<?xml version="1.0" encoding="UTF-8"?>
<svg width="16px" height="16px" viewBox="0 0 16 16" version="1.1" xmlns="http://www.w3.org/2000/svg" xmlns:xlink="http://www.w3.org/1999/xlink">
    <!-- Generator: sketchtool 63.1 (101010) - https://sketch.com -->
    <title>0DB0F1C3-C088-4C29-AA1F-7A8AB9E8221F@1.5x</title>
    <desc>Created with sketchtool.</desc>
    <g id="Page-1" stroke="none" stroke-width="1" fill="none" fill-rule="evenodd">
        <g id="40_admin_deleted_toast" transform="translate(-1336.000000, -256.000000)">
            <g id="activate_admin" transform="translate(1335.000000, 255.000000)">
                <rect id="Rectangle" x="0" y="0" width="18" height="18"></rect>
                <rect id="Rectangle" x="0" y="0" width="18" height="18"></rect>
                <path d="M10.21,13.73 L2.73,13.73 L2.73,13.54 C3.09257386,11.0581246 5.22178088,9.21848971 7.73,9.22 L9.36,9.22 C10.0203587,9.22313027 10.6733296,9.35916589 11.28,9.62 C11.5802206,9.34536395 11.916689,9.11320069 12.28,8.93 C11.9778898,8.75646636 11.6597511,8.61246673 11.33,8.5 L11,8.4 L11.22,8.21 C12.5121382,7.08412646 12.970014,5.27463702 12.368887,3.66968887 C11.7677599,2.06474072 10.2338297,1.00127446 8.52,1.00127446 C6.80617028,1.00127446 5.27224008,2.06474072 4.67111302,3.66968887 C4.06998596,5.27463702 4.52786182,7.08412646 5.82,8.21 L6.04,8.4 L5.76,8.5 C4.883073,8.81789955 4.08979129,9.33079721 3.44,10 C2.29231455,11.1354798 1.65065244,12.6855624 1.65989928,14.3 L1.74,14.82 L10.66,14.82 C10.4577526,14.4805029 10.3061539,14.1132971 10.21,13.73 L10.21,13.73 Z M5.48,5.11 C5.48,3.41448582 6.85448582,2.04 8.55,2.04 C10.2455142,2.04 11.62,3.41448582 11.62,5.11 C11.62,6.80551418 10.2455142,8.18 8.55,8.18 C6.8567645,8.17451135 5.48548865,6.8032355 5.48,5.11 Z" id="Shape" fill="#71757B" fill-rule="nonzero"></path>
                <path d="M11.91,9.55 L16.09,12.69 C16.2475613,12.8459004 16.3362192,13.058346 16.3362192,13.28 C16.3362192,13.501654 16.2475613,13.7140996 16.09,13.87 L11.91,17" id="Path" fill="#71757B" fill-rule="nonzero"></path>
            </g>
        </g>
    </g>
</svg>