<?xml version="1.0" encoding="UTF-8"?>
<svg width="22px" height="19px" viewBox="0 0 22 19" version="1.1" xmlns="http://www.w3.org/2000/svg" xmlns:xlink="http://www.w3.org/1999/xlink">
    <!-- Generator: sketchtool 63.1 (101010) - https://sketch.com -->
    <title>DC431D42-A7B2-4618-A581-8DCB01D6B6CC</title>
    <desc>Created with sketchtool.</desc>
    <g id="Page-1" stroke="none" stroke-width="1" fill="none" fill-rule="evenodd">
        <g id="08_admin_user_list" transform="translate(-1265.000000, -109.000000)">
            <g id="add_admin_24" transform="translate(1263.000000, 106.000000)">
                <g>
                    <rect id="Rectangle" x="0" y="0" width="24" height="24"></rect>
                    <path d="M9.66,10.6300143 C8.17786606,10.6259007 6.84451861,9.72832844 6.2829783,8.35668334 C5.72143798,6.98503823 6.04257375,5.41013405 7.09633154,4.36786136 C8.15008932,3.32558867 9.72841813,3.02173089 11.0938272,3.59826876 C12.4592363,4.17480664 13.342143,5.51791013 13.33,7 C13.3135027,9.01354178 11.6736017,10.6355692 9.66,10.6300143 L9.66,10.6300143 Z M9.66,4.80999999 C8.47099554,4.81011469 7.50565921,5.77114652 7.50020786,6.9601386 C7.4948025,8.14913067 8.45132358,9.11893676 9.64027742,9.12990803 C10.8292313,9.14087931 11.803486,8.18888978 11.82,7 C11.8280292,6.42195222 11.604008,5.86480919 11.1980559,5.45321887 C10.7921038,5.04162854 10.2381035,4.80994424 9.66,4.80999999 L9.66,4.80999999 Z" id="Shape" fill="#2B8000" fill-rule="nonzero"></path>
                    <path d="M14.5644986,11.0278821 C13.9710694,11.0278821 13.49,10.6920956 13.49,10.2778821 C13.49,9.86366849 13.9710694,9.52788206 14.5644986,9.52788206 L22.4155014,9.52788206 C22.7993828,9.52788206 23.1541038,9.67083124 23.3460445,9.90288205 C23.5379852,10.1349329 23.5379852,10.4208313 23.3460445,10.6528821 C23.1541038,10.8849329 22.7993828,11.0278821 22.4155014,11.0278821 L14.5644986,11.0278821 Z" id="Path" fill="#2B8000" fill-rule="nonzero"></path>
                    <path d="M19.490106,13.7487081 C19.5381542,14.1698932 19.4085186,14.5920981 19.1595799,14.8251849 C18.9106413,15.0582717 18.5893587,15.0582717 18.3404201,14.8251849 C18.0914814,14.5920981 17.9618458,14.1698932 18.009894,13.7487081 L18.009894,6.25129191 C17.9618458,5.83010685 18.0914814,5.40790195 18.3404201,5.17481512 C18.5893587,4.94172829 18.9106413,4.94172829 19.1595799,5.17481512 C19.4085186,5.40790195 19.5381542,5.83010685 19.490106,6.25129191 L19.490106,13.7487081 Z" id="Path" fill="#2B8000" fill-rule="nonzero"></path>
                    <path d="M9.66,12 C5.55,12 2.2,14.83 2.2,18.3 C2.17670893,19.1087301 2.28477953,19.9158823 2.52,20.69 C2.61307105,21.0044817 2.9020352,21.2201873 3.23,21.22 C3.30599566,21.2343449 3.38400434,21.2343449 3.46,21.22 C3.65110101,21.1620409 3.81011523,21.0283244 3.9,20.85 C4.03479729,20.657778 4.07180527,20.4135254 4,20.19 C3.82113177,19.559438 3.74018782,18.905141 3.76,18.25 C3.71,15.78 6,13.74 9,13.49 L8.75,17.79 L9.66,19 L10.55,17.84 L10.26,13.53 C13.26,13.77 15.62,15.82 15.62,18.3 C15.6473017,18.9562311 15.5799435,19.6129736 15.42,20.25 C15.3380363,20.4817121 15.3748053,20.7388799 15.5184166,20.9383401 C15.6620279,21.1378002 15.894255,21.2542381 16.14,21.25 C16.474458,21.2534029 16.7696186,21.0320325 16.86,20.71 C17.0661506,19.9341856 17.1571233,19.1322782 17.13,18.33 C17.13,14.78 13.78,12 9.66,12 Z" id="Path" fill="#2B8000" fill-rule="nonzero"></path>
                </g>
            </g>
        </g>
    </g>
</svg>