<?xml version="1.0" encoding="UTF-8"?>
<svg width="20px" height="18px" viewBox="0 0 20 18" version="1.1" xmlns="http://www.w3.org/2000/svg" xmlns:xlink="http://www.w3.org/1999/xlink">
    <!-- Generator: sketchtool 63.1 (101010) - https://sketch.com -->
    <title>2110911A-7227-4F5E-AE29-C618F088BB56</title>
    <desc>Created with sketchtool.</desc>
    <g id="Page-1" stroke="none" stroke-width="1" fill="none" fill-rule="evenodd">
        <g id="07_manageEmployee" transform="translate(-1235.000000, -109.000000)">
            <g id="add_user_24" transform="translate(1233.000000, 106.000000)">
                <g id="add_user">
                    <rect id="Rectangle" x="0" y="0" width="24" height="24"></rect>
                    <path d="M3.23,20.69 C2.90477881,20.6915192 2.61668489,20.4805208 2.52,20.17 C2.28529699,19.3957699 2.17723774,18.5887024 2.2,17.78 C2.2,14.31 5.55,11.48 9.66,11.48 C13.77,11.48 17.13,14.31 17.13,17.78 C17.1565756,18.5789606 17.0656038,19.3774902 16.86,20.15 C16.7727026,20.4741326 16.4756105,20.6969516 16.14,20.69 C16.0703373,20.6997176 15.9996627,20.6997176 15.93,20.69 C15.532355,20.5740202 15.3040202,20.157645 15.42,19.76 C15.5793976,19.1228777 15.6467477,18.4662142 15.62,17.81 C15.62,15.16 12.95,13.01 9.62,13.01 C6.29,13.01 3.67,15.16 3.67,17.81 C3.68184135,18.4565157 3.79314502,19.0973551 4,19.71 C4.05880837,19.9025412 4.04089261,20.110364 3.95,20.29 C3.85660122,20.465513 3.69893414,20.5980966 3.51,20.66 C3.4187887,20.6844681 3.32432458,20.6945892 3.23,20.69 Z" id="Path" fill="#2B8000" fill-rule="nonzero"></path>
                    <path d="M9.66,10.6300143 C8.17786606,10.6259007 6.84451861,9.72832844 6.2829783,8.35668334 C5.72143798,6.98503823 6.04257375,5.41013405 7.09633154,4.36786136 C8.15008932,3.32558867 9.72841813,3.02173089 11.0938272,3.59826876 C12.4592363,4.17480664 13.342143,5.51791013 13.33,7 C13.3135027,9.01354178 11.6736017,10.6355692 9.66,10.6300143 L9.66,10.6300143 Z M9.66,4.80999999 C8.47099554,4.81011469 7.50565921,5.77114652 7.50020786,6.9601386 C7.4948025,8.14913067 8.45132358,9.11893676 9.64027742,9.12990803 C10.8292313,9.14087931 11.803486,8.18888978 11.82,7 C11.8280292,6.42195222 11.604008,5.86480919 11.1980559,5.45321887 C10.7921038,5.04162854 10.2381035,4.80994424 9.66,4.80999999 L9.66,4.80999999 Z" id="Shape" fill="#2B8000" fill-rule="nonzero"></path>
                    <path d="M15.76,11.59 C15.3457864,11.59 15.01,11.2542136 15.01,10.84 C15.01,10.4257864 15.3457864,10.09 15.76,10.09 L21.24,10.09 C21.6542136,10.09 21.99,10.4257864 21.99,10.84 C21.99,11.2542136 21.6542136,11.59 21.24,11.59 L15.76,11.59 Z" id="Path" fill="#2B8000" fill-rule="nonzero"></path>
                    <path d="M19.25,13.49 C19.2986905,13.7871782 19.1673219,14.0850761 18.9150554,14.2495366 C18.6627888,14.4139972 18.3372112,14.4139972 18.0849446,14.2495366 C17.8326781,14.0850761 17.7013095,13.7871782 17.75,13.49 L17.75,8.19 C17.7013095,7.89282175 17.8326781,7.59492393 18.0849446,7.43046337 C18.3372112,7.2660028 18.6627888,7.2660028 18.9150554,7.43046337 C19.1673219,7.59492393 19.2986905,7.89282175 19.25,8.19 L19.25,13.49 Z" id="Path" fill="#2B8000" fill-rule="nonzero"></path>
                </g>
            </g>
        </g>
    </g>
</svg>