<svg width="24" height="24" viewBox="0 0 24 24" fill="none" xmlns="http://www.w3.org/2000/svg">
<path d="M22 12C22 10.0222 21.4135 8.08879 20.3147 6.4443C19.2159 4.79981 17.6541 3.51809 15.8268 2.76121C13.9996 2.00433 11.9889 1.8063 10.0491 2.19215C8.10929 2.578 6.32746 3.53041 4.92894 4.92894C3.53041 6.32746 2.578 8.10929 2.19215 10.0491C1.8063 11.9889 2.00433 13.9996 2.76121 15.8268C3.51809 17.6541 4.79981 19.2159 6.4443 20.3147C8.08879 21.4135 10.0222 22 12 22C14.6522 22 17.1957 20.9464 19.0711 19.0711C20.9464 17.1957 22 14.6522 22 12ZM11.62 4.45C12.0107 4.33613 12.4295 4.3688 12.7977 4.54188C13.166 4.71497 13.4584 5.01656 13.62 5.39C13.7356 5.6576 13.7836 5.94948 13.76 6.24L13.61 8.76C13.54 10.07 13.46 11.38 13.39 12.69L13.33 13.92C13.33 14.2515 13.1983 14.5695 12.9639 14.8039C12.7295 15.0383 12.4115 15.17 12.08 15.17C11.7485 15.17 11.4305 15.0383 11.1961 14.8039C10.9617 14.5695 10.83 14.2515 10.83 13.92L10.5 7.84C10.5 7.29 10.43 6.75 10.4 6.2C10.3712 5.81251 10.4768 5.42693 10.699 5.10818C10.9212 4.78944 11.2465 4.557 11.62 4.45ZM12 19.69C11.6676 19.6821 11.3448 19.5764 11.0722 19.3859C10.7996 19.1955 10.5893 18.9289 10.4675 18.6195C10.3457 18.3101 10.3178 17.9716 10.3875 17.6465C10.4572 17.3213 10.6212 17.0239 10.8591 16.7916C11.0969 16.5592 11.398 16.4022 11.7247 16.3401C12.0514 16.2781 12.3892 16.3138 12.6956 16.4428C13.0021 16.5718 13.2637 16.7884 13.4477 17.0654C13.6317 17.3424 13.7299 17.6675 13.73 18C13.7287 18.225 13.6828 18.4474 13.5949 18.6545C13.507 18.8616 13.3789 19.0491 13.218 19.2063C13.0571 19.3635 12.8665 19.4872 12.6575 19.5702C12.4484 19.6533 12.2249 19.694 12 19.69Z" fill="#C12335"/>
</svg>
