<?xml version="1.0" encoding="UTF-8"?>
<svg width="24px" height="25px" viewBox="0 0 24 25" version="1.1" xmlns="http://www.w3.org/2000/svg" xmlns:xlink="http://www.w3.org/1999/xlink">
    <title>80C01E67-4236-4D23-87E0-B1AC1F29AEEA</title>
    <g id="Phase-4_Manager" stroke="none" stroke-width="1" fill="none" fill-rule="evenodd">
        <g id="100_nnotification" transform="translate(-973.000000, -214.000000)">
            <g id="Group-35" transform="translate(949.000000, 62.000000)">
                <g id="alert_24" transform="translate(24.000000, 152.071068)">
                    <rect id="Rectangle" x="0" y="0" width="24" height="24"></rect>
                    <path d="M22,12 C22,6.4771525 17.5228475,2 12,2 C6.4771525,2 2,6.4771525 2,12 C2,17.5228475 6.4771525,22 12,22 C17.5228475,22 22,17.5228475 22,12 Z M11.62,4.45 C12.4283055,4.21437356 13.2856058,4.6173047 13.62,5.39 C13.7355582,5.65759686 13.7836327,5.94947759 13.76,6.24 L13.61,8.76 C13.54,10.07 13.46,11.38 13.39,12.69 L13.33,13.92 C13.33,14.6103559 12.7703559,15.17 12.08,15.17 C11.3896441,15.17 10.83,14.6103559 10.83,13.92 L10.5,7.84 C10.5,7.29 10.43,6.75 10.4,6.2 C10.3406029,5.40127062 10.8500267,4.67053972 11.62,4.45 L11.62,4.45 Z M12,19.69 C11.0721635,19.6680332 10.3356494,18.9019454 10.350208,17.9739631 C10.3647667,17.0459809 11.12495,16.303374 12.0530189,16.3105236 C12.9810878,16.3176731 13.72974,17.0719036 13.73,18 C13.727398,18.4543779 13.5430033,18.8888037 13.2179687,19.206323 C12.8929341,19.5238424 12.4543145,19.698026 12,19.69 Z" id="Shape" fill="#C12335" fill-rule="nonzero"></path>
                </g>
            </g>
        </g>
    </g>
</svg>