<?xml version="1.0" encoding="UTF-8"?>
<svg width="33px" height="36px" viewBox="0 0 33 36" version="1.1" xmlns="http://www.w3.org/2000/svg" xmlns:xlink="http://www.w3.org/1999/xlink">
    <!-- Generator: sketchtool 63.1 (101010) - https://sketch.com -->
    <title>D342023E-413A-499A-B3CA-921DFDC67D99@1.5x</title>
    <desc>Created with sketchtool.</desc>
    <g id="Page-1" stroke="none" stroke-width="1" fill="none" fill-rule="evenodd">
        <g id="002" transform="translate(-827.000000, -211.000000)">
            <g id="User_card" transform="translate(767.000000, 153.000000)">
                <g id="Group-5" transform="translate(36.000000, 36.000000)">
                    <g id="User" transform="translate(17.000000, 17.000000)">
                        <path d="M23.5,24 C18.2532949,24 14,19.7467051 14,14.5 C14,9.25329488 18.2532949,5 23.5,5 C28.7467051,5 33,9.25329488 33,14.5 C32.9915704,19.7432095 28.7432095,23.9915704 23.5,24 L23.5,24 Z M23.5,5.76551168 C18.6969791,5.76551168 14.8018045,9.65619095 14.7961859,14.4592086 C14.7905794,19.2622263 18.6766504,23.1619686 23.4796581,23.1732479 C28.2826659,23.1844784 32.1869707,19.3029912 32.2038982,14.5 C32.2099665,12.1869099 31.2958919,9.96635716 29.6631591,8.32788029 C28.0304262,6.68940342 25.8130973,5.76753624 23.5,5.76551168 Z" id="Shape" fill="#4B286D" fill-rule="nonzero"></path>
                        <path d="M7.39402985,41 C7.28952664,41 7.1893036,40.9575717 7.11540867,40.8820488 C7.04151374,40.8065259 7,40.7040949 7,40.5972894 C7,25 19.4119403,25 23.4962113,25 C25.519403,25 29.7249139,25 33.3469575,26.9593417 C37.7646383,29.3446273 40,33.929332 40,40.5972894 C40,40.8197003 39.8235868,41 39.6059701,41 L7.39402985,41 Z M23.4962113,25.8054211 C16.4036739,25.8054211 8.20482204,27.3543078 7.8032147,39.660213 L7.8032147,40.1945789 L39.2119403,40.1945789 L39.2119403,39.660213 C38.7876005,27.3852856 30.5887486,25.8054211 23.4962113,25.8054211 Z" id="Shape" fill="#4B286D" fill-rule="nonzero"></path>
                        <rect id="Rectangle" x="0" y="0" width="46" height="46"></rect>
                    </g>
                </g>
            </g>
        </g>
    </g>
</svg>