<svg width="22" height="22" viewBox="0 0 22 22" fill="none" xmlns="http://www.w3.org/2000/svg">
<circle cx="11" cy="11" r="10.5" stroke="#2B8000"/>
<path d="M5.31235 11.6096C5.09672 11.4371 4.78207 11.472 4.60957 11.6877C4.43706 11.9033 4.47202 12.2179 4.68765 12.3904L5.31235 11.6096ZM8.75 15L8.43765 15.3904C8.63431 15.5478 8.91728 15.5343 9.09807 15.359L8.75 15ZM17.3481 7.35895C17.5463 7.16671 17.5512 6.85017 17.359 6.65193C17.1667 6.45368 16.8502 6.44881 16.6519 6.64105L17.3481 7.35895ZM4.68765 12.3904L8.43765 15.3904L9.06235 14.6096L5.31235 11.6096L4.68765 12.3904ZM9.09807 15.359L17.3481 7.35895L16.6519 6.64105L8.40193 14.641L9.09807 15.359Z" fill="#2B8000"/>
</svg>
