<?xml version="1.0" encoding="UTF-8"?>
<svg width="16px" height="16px" viewBox="0 0 16 16" version="1.1" xmlns="http://www.w3.org/2000/svg" xmlns:xlink="http://www.w3.org/1999/xlink">
    <!-- Generator: sketchtool 63.1 (101010) - https://sketch.com -->
    <title>D6E93B8D-46CF-46CD-A119-9758D5AE2088</title>
    <desc>Created with sketchtool.</desc>
    <g id="Phase-4_Manager" stroke="none" stroke-width="1" fill="none" fill-rule="evenodd">
        <g id="35-copy" transform="translate(-1208.000000, -32.000000)">
            <g id="header">
                <g id="bell" transform="translate(1207.000000, 31.000000)">
                    <rect id="Rectangle" x="0" y="0" width="18" height="18"></rect>
                    <path d="M9,17 C7.59976084,17.0021157 6.40693711,15.9833338 6.19,14.6 L2.07,14.6 C1.90092899,14.5961906 1.74427062,14.5104015 1.65,14.37 C1.56983737,14.2271439 1.56983737,14.0528561 1.65,13.91 L3.4,9.87 L3.4,6.61 C3.40099286,4.19399282 4.95401622,2.05203072 7.25,1.3 C7.76277482,1.1111226 8.30363165,1.00971194 8.85,1 L9,1 C9.50538152,1.02385698 10.0074971,1.09415315 10.5,1.21 C12.9172623,1.88907032 14.5908163,4.08918153 14.6,6.6 L14.6,9.88 L16.39,14 C16.4647207,14.1442303 16.4647207,14.3157697 16.39,14.46 C16.2957294,14.6004015 16.139071,14.6861906 15.97,14.69 L11.77,14.69 C11.5431274,16.0380009 10.3668278,17.0189584 9,17 Z M7.21,14.63 C7.41554343,15.4540203 8.15573112,16.0322557 9.005,16.0322557 C9.85426888,16.0322557 10.5944566,15.4540203 10.8,14.63 L7.21,14.63 Z M9,1.99990239 C6.45624897,2.00550002 4.39550002,4.06624897 4.39,6.61 L4.39,10 C4.39930638,10.0629915 4.39930638,10.1270085 4.39,10.19 L2.8,13.71 L15.24,13.65 L13.65,10.17 C13.6406936,10.1070085 13.6406936,10.0429915 13.65,9.98 L13.65,6.61 C13.6473662,5.38121828 13.155329,4.20410876 12.282702,3.33898822 C11.410075,2.47386767 10.2287586,1.99201806 9,1.99990239 Z" id="Shape" fill="#71757B" fill-rule="nonzero"></path>
                </g>
            </g>
        </g>
    </g>
</svg>