<svg id="Layer_1" data-name="Layer 1" xmlns="http://www.w3.org/2000/svg" viewBox="0 0 18 18"><defs><style>.cls-1{fill:none;}.cls-2{fill:#54595f;}</style></defs><rect class="cls-1" width="18" height="18"/><path class="cls-2" d="M3.45,17a2.24,2.24,0,0,1-2.24-2.23V4.52A2.24,2.24,0,0,1,3.45,2.28H4.63V1h1V2.28h6.64V1h1V2.28h1.18a2.24,2.24,0,0,1,2.24,2.24V14.77A2.24,2.24,0,0,1,14.55,17ZM2.27,14.77A1.18,1.18,0,0,0,3.45,16h11.1a1.19,1.19,0,0,0,1.19-1.18v-8H2.27ZM15.74,5.7V4.52a1.19,1.19,0,0,0-1.19-1.19H13.37v.86h-1V3.33H5.68v.86h-1V3.33H3.45A1.18,1.18,0,0,0,2.27,4.52V5.7Z"/><path class="cls-2" d="M8.15,11a1,1,0,0,1-1-.95V8.36a1,1,0,0,1,1-.95h1.7a1,1,0,0,1,1,.95v1.71a1,1,0,0,1-1,.95Z"/><path class="cls-2" d="M12.42,11a1,1,0,0,1-1-.95V8.36a1,1,0,0,1,1-.95h1.71a1,1,0,0,1,.95.95v1.71a1,1,0,0,1-.95.95ZM14,10V8.46H12.52V10Z"/><path class="cls-2" d="M3.88,15.29a1,1,0,0,1-1-.95V12.63a1,1,0,0,1,1-1h1.7a1,1,0,0,1,1,1v1.71a1,1,0,0,1-1,.95Zm1.61-1V12.73H4v1.51Z"/><path class="cls-2" d="M8.15,15.29a1,1,0,0,1-1-.95V12.63a1,1,0,0,1,1-1h1.7a1,1,0,0,1,1,1v1.71a1,1,0,0,1-1,.95Zm1.61-1V12.73H8.24v1.51Z"/><path class="cls-2" d="M12.42,15.29a1,1,0,0,1-1-.95V12.63a1,1,0,0,1,1-1h1.71a1,1,0,0,1,.95,1v1.71a1,1,0,0,1-.95.95Zm1.61-1V12.73H12.52v1.51Z"/></svg>