<svg width="8" height="12" viewBox="0 0 8 12" fill="none" xmlns="http://www.w3.org/2000/svg">
<path fill-rule="evenodd" clip-rule="evenodd" d="M0.18323 11.7941C-0.117489 11.4425 0.0450443 11.0896 0.245276 10.8869L4.74055 5.99682L0.245276 1.11722C0.0814521 0.938392 -0.180033 0.490533 0.18323 0.16524C0.546493 -0.160052 0.916105 0.0652096 1.07993 0.243272L6.8766 5.63482C7.04113 5.81365 7.04113 6.10607 6.8766 6.2849C6.8759 6.2849 1.07993 11.7941 1.07993 11.7941C0.935043 11.9792 0.48395 12.1457 0.18323 11.7941Z" fill="#4B286D"/>
<mask id="mask0" mask-type="alpha" maskUnits="userSpaceOnUse" x="0" y="0" width="7" height="12">
<path fill-rule="evenodd" clip-rule="evenodd" d="M0.18323 11.7941C-0.117489 11.4425 0.0450443 11.0896 0.245276 10.8869L4.74055 5.99682L0.245276 1.11722C0.0814521 0.938392 -0.180033 0.490533 0.18323 0.16524C0.546493 -0.160052 0.916105 0.0652096 1.07993 0.243272L6.8766 5.63482C7.04113 5.81365 7.04113 6.10607 6.8766 6.2849C6.8759 6.2849 1.07993 11.7941 1.07993 11.7941C0.935043 11.9792 0.48395 12.1457 0.18323 11.7941Z" fill="white"/>
</mask>
<g mask="url(#mask0)">
<rect width="8" height="12" fill="#4B286D"/>
</g>
</svg>
