<svg width="8" height="12" viewBox="0 0 8 12" fill="none" xmlns="http://www.w3.org/2000/svg">
<path fill-rule="evenodd" clip-rule="evenodd" d="M7.81677 11.7941C8.11749 11.4425 7.95496 11.0896 7.75472 10.8869L3.25945 5.99682L7.75472 1.11722C7.91855 0.938392 8.18003 0.490533 7.81677 0.16524C7.45351 -0.160052 7.08389 0.0652096 6.92007 0.243272L1.1234 5.63482C0.958868 5.81365 0.958868 6.10607 1.1234 6.2849C1.1241 6.2849 6.92007 11.7941 6.92007 11.7941C7.06496 11.9792 7.51605 12.1457 7.81677 11.7941Z" fill="#2A2C2E"/>
<mask id="mask0" mask-type="alpha" maskUnits="userSpaceOnUse" x="1" y="0" width="7" height="12">
<path fill-rule="evenodd" clip-rule="evenodd" d="M7.81677 11.7941C8.11749 11.4425 7.95496 11.0896 7.75472 10.8869L3.25945 5.99682L7.75472 1.11722C7.91855 0.938392 8.18003 0.490533 7.81677 0.16524C7.45351 -0.160052 7.08389 0.0652096 6.92007 0.243272L1.1234 5.63482C0.958868 5.81365 0.958868 6.10607 1.1234 6.2849C1.1241 6.2849 6.92007 11.7941 6.92007 11.7941C7.06496 11.9792 7.51605 12.1457 7.81677 11.7941Z" fill="white"/>
</mask>
<g mask="url(#mask0)">
<rect width="8" height="12" fill="#4B286D"/>
</g>
</svg>
