<?xml version="1.0" encoding="UTF-8"?>
<svg width="16px" height="16px" viewBox="0 0 16 16" version="1.1" xmlns="http://www.w3.org/2000/svg" xmlns:xlink="http://www.w3.org/1999/xlink">
    <!-- Generator: sketchtool 63.1 (101010) - https://sketch.com -->
    <title>78B544CA-ABB4-42B1-AC05-95AFEC79B497@1.5x</title>
    <desc>Created with sketchtool.</desc>
    <g id="Page-1" stroke="none" stroke-width="1" fill="none" fill-rule="evenodd">
        <g id="29_manageEmp_RM_filter_result" transform="translate(-1076.000000, -202.000000)">
            <g id="grid" transform="translate(113.000000, 181.040609)">
                <g id="Group-5">
                    <g id="updated" transform="translate(962.000000, 19.959391)">
                        <rect id="Rectangle" x="0" y="0" width="18" height="18"></rect>
                        <rect id="Rectangle" x="0" y="0" width="18" height="18"></rect>
                        <path d="M4.16,17 C3.91283277,16.9974889 3.70459244,16.8147474 3.67,16.57 L3.13,13.87 C3.10721235,13.7298511 3.14388256,13.5865469 3.23118696,13.4745695 C3.31849136,13.3625921 3.44852539,13.29208 3.59,13.28 L6.29,13.1 C6.56614237,13.1 6.79,13.3238576 6.79,13.6 C6.79,13.8761424 6.56614237,14.1 6.29,14.1 L4.86,14.2 C6.01027066,15.1950725 7.47905733,15.7449805 9,15.75 C12.7886734,15.75 15.86,12.6786734 15.86,8.89 C15.86,5.10132662 12.7886734,2.03 9,2.03 C5.21132662,2.03 2.14,5.10132662 2.14,8.89 C2.14233884,9.02371432 2.09206217,9.15299719 2,9.25 C1.90832691,9.34514108 1.78211809,9.39923058 1.65,9.4 C1.52061477,9.40004137 1.39719439,9.3455912 1.31,9.25 C1.21022281,9.15738667 1.15550363,9.02606065 1.16,8.89 C1.16552636,4.55456989 4.68456563,1.04448872 9.01999574,1.05000622 C13.3554258,1.05553675 16.8655089,4.57457412 16.8599938,8.91000423 C16.8544656,13.2454343 13.3354301,16.7555193 9,16.75 C7.3616883,16.7191027 5.77684659,16.1616031 4.48,15.16 L4.64,16.33 C4.6768569,16.4813775 4.64778294,16.6412843 4.56,16.77 C4.47733527,16.8720267 4.35973894,16.9397337 4.23,16.96 L4.16,17 Z M8.64,9.75 C8.36385763,9.75 8.14,9.52614237 8.14,9.25 L8.14,3.76 C8.13680012,3.62417962 8.19130633,3.49336473 8.29,3.4 C8.37872101,3.30066997 8.50688445,3.24574278 8.64,3.25 C8.7752235,3.24712575 8.90562107,3.30027312 9.00030856,3.39685436 C9.09499605,3.4934356 9.14555112,3.62485992 9.14,3.76 L9.14,8.76 L14.06,8.76 C14.1991379,8.76458498 14.3313606,8.82176236 14.43,8.92 C14.5205426,9.01393328 14.5707837,9.13953619 14.570009,9.27 C14.5594518,9.53999644 14.3401544,9.75490788 14.07,9.76 L8.64,9.75 Z" id="Shape" fill="#71757B" fill-rule="nonzero"></path>
                    </g>
                </g>
            </g>
        </g>
    </g>
</svg>