<svg width="12" height="12" viewBox="0 0 12 12" fill="none" xmlns="http://www.w3.org/2000/svg">
<path fill-rule="evenodd" clip-rule="evenodd" d="M5.99975 6.70675L1.85325 10.8532C1.75625 10.9502 1.62825 10.9993 1.50025 10.9993C1.37225 10.9993 1.24425 10.9502 1.14625 10.8532C0.95125 10.6582 0.95125 10.3412 1.14625 10.1462L5.29275 5.99975L1.14625 1.85325C0.95125 1.65825 0.95125 1.34125 1.14625 1.14625C1.34125 0.95125 1.65825 0.95125 1.85325 1.14625L5.99975 5.29275L10.1462 1.14625C10.3412 0.95125 10.6582 0.95125 10.8532 1.14625C11.0482 1.34125 11.0482 1.65825 10.8532 1.85325L6.70675 5.99975L10.8532 10.1462C11.0482 10.3412 11.0482 10.6582 10.8532 10.8532C10.7562 10.9502 10.6283 10.9993 10.5002 10.9993C10.3722 10.9993 10.2442 10.9502 10.1462 10.8532L5.99975 6.70675Z" fill="#54595F" stroke="#54595F" stroke-width="0.4"/>
</svg>
