<svg width="24" height="24" viewBox="0 0 24 24" fill="none" xmlns="http://www.w3.org/2000/svg">
<path d="M18.65 4.26001C18.6567 4.07663 18.627 3.89374 18.5626 3.72189C18.4983 3.55005 18.4005 3.39265 18.275 3.25878C18.1495 3.12491 17.9987 3.01721 17.8314 2.9419C17.6641 2.8666 17.4835 2.82517 17.3 2.82001H6.70004C6.51661 2.82517 6.33602 2.8666 6.16868 2.9419C6.00134 3.01721 5.85057 3.12491 5.72506 3.25878C5.59956 3.39265 5.5018 3.55005 5.43744 3.72189C5.37307 3.89374 5.34337 4.07663 5.35004 4.26001V12H18.65V4.26001Z" stroke="#71757B" stroke-width="1.5" stroke-miterlimit="10" stroke-linecap="round"/>
<path d="M5.3501 19.52C5.3501 20.52 5.9501 21.41 6.7001 21.41H17.3001C18.0501 21.41 18.6501 20.56 18.6501 19.52V18.43H5.3501V19.52Z" stroke="#71757B" stroke-width="1.5" stroke-miterlimit="10" stroke-linecap="round"/>
<path d="M5.35004 12H3.85004C3.67238 11.9987 3.49624 12.0327 3.33184 12.1001C3.16745 12.1674 3.0181 12.2668 2.89248 12.3924C2.76685 12.5181 2.66746 12.6674 2.60009 12.8318C2.53272 12.9962 2.49871 13.1724 2.50004 13.35V17.09C2.50003 17.2668 2.53502 17.4419 2.60299 17.6051C2.67095 17.7684 2.77055 17.9165 2.89604 18.0411C3.02154 18.1656 3.17044 18.2641 3.33417 18.3309C3.4979 18.3976 3.67323 18.4313 3.85004 18.43H5.35004" stroke="#71757B" stroke-width="1.5" stroke-miterlimit="10" stroke-linecap="round"/>
<path d="M18.6499 18.43H20.1499C20.3267 18.4313 20.502 18.3976 20.6658 18.3309C20.8295 18.2641 20.9784 18.1656 21.1039 18.0411C21.2294 17.9165 21.329 17.7684 21.397 17.6051C21.4649 17.4419 21.4999 17.2668 21.4999 17.09V13.35C21.5012 13.1724 21.4672 12.9962 21.3999 12.8318C21.3325 12.6674 21.2331 12.5181 21.1075 12.3924C20.9818 12.2668 20.8325 12.1674 20.6681 12.1001C20.5037 12.0327 20.3276 11.9987 20.1499 12H18.6499" stroke="#71757B" stroke-width="1.5" stroke-miterlimit="10" stroke-linecap="round"/>
<path d="M18.6501 12H5.3501" stroke="#71757B" stroke-width="1.5" stroke-miterlimit="10" stroke-linecap="round"/>
<path d="M5.3501 18.43H18.6501" stroke="#71757B" stroke-width="1.5" stroke-miterlimit="10" stroke-linecap="round"/>
<path d="M7.15967 15.014C7.15967 14.5114 7.29443 14.124 7.56396 13.8519C7.79834 13.6149 8.09652 13.4964 8.4585 13.4964C8.94287 13.4964 9.29704 13.6553 9.521 13.973C9.64469 14.1513 9.7111 14.3304 9.72021 14.5101H9.11865C9.07959 14.372 9.02946 14.2679 8.96826 14.1976C8.85889 14.0726 8.69678 14.0101 8.48193 14.0101C8.26318 14.0101 8.09066 14.0986 7.96436 14.2757C7.83805 14.4515 7.7749 14.7008 7.7749 15.0237C7.7749 15.3467 7.84131 15.5888 7.97412 15.7503C8.10824 15.9105 8.27816 15.9905 8.48389 15.9905C8.69482 15.9905 8.85563 15.9215 8.96631 15.7835C9.02751 15.7093 9.07829 15.598 9.11865 15.4495H9.71436C9.66227 15.7633 9.52881 16.0185 9.31396 16.2151C9.10042 16.4118 8.82633 16.5101 8.4917 16.5101C8.07764 16.5101 7.75212 16.3773 7.51514 16.1116C7.27816 15.8447 7.15967 15.4788 7.15967 15.014ZM10.6108 15.5413C10.6291 15.6728 10.6649 15.7711 10.7183 15.8362C10.8159 15.9547 10.9832 16.014 11.2202 16.014C11.3621 16.014 11.4774 15.9984 11.5659 15.9671C11.7339 15.9072 11.8179 15.7959 11.8179 15.6331C11.8179 15.5381 11.7762 15.4645 11.6929 15.4124C11.6095 15.3616 11.4787 15.3167 11.3003 15.2776L10.9956 15.2093C10.6961 15.1416 10.4891 15.068 10.3745 14.9886C10.1805 14.8558 10.0835 14.6481 10.0835 14.3655C10.0835 14.1077 10.1772 13.8935 10.3647 13.723C10.5522 13.5524 10.8276 13.4671 11.1909 13.4671C11.4943 13.4671 11.7528 13.5478 11.9663 13.7093C12.1812 13.8694 12.2938 14.1025 12.3042 14.4085H11.7261C11.7157 14.2353 11.6401 14.1123 11.4995 14.0394C11.4058 13.9912 11.2892 13.9671 11.1499 13.9671C10.995 13.9671 10.8713 13.9984 10.7788 14.0609C10.6864 14.1234 10.6401 14.2106 10.6401 14.3226C10.6401 14.4254 10.6857 14.5023 10.7769 14.553C10.8354 14.5869 10.9604 14.6266 11.1519 14.6722L11.6479 14.7913C11.8654 14.8434 12.0295 14.9131 12.1401 15.0003C12.312 15.1357 12.3979 15.3317 12.3979 15.5882C12.3979 15.8512 12.297 16.07 12.0952 16.2444C11.8947 16.4176 11.6108 16.5042 11.2437 16.5042C10.8687 16.5042 10.5737 16.4189 10.3589 16.2484C10.144 16.0765 10.0366 15.8408 10.0366 15.5413H10.6108ZM14.5288 13.5511H15.1538L14.1714 16.43H13.603L12.6304 13.5511H13.2729L13.8979 15.7366L14.5288 13.5511Z" fill="#71757B"/>
</svg>
