<?xml version="1.0" encoding="UTF-8"?>
<svg width="18px" height="15px" viewBox="0 0 18 15" version="1.1" xmlns="http://www.w3.org/2000/svg" xmlns:xlink="http://www.w3.org/1999/xlink">
    <!-- Generator: sketchtool 63.1 (101010) - https://sketch.com -->
    <title>3D2D7ED9-50DB-43E7-BFD4-961DA168EBE8@1.5x</title>
    <desc>Created with sketchtool.</desc>
    <g id="Page-1" stroke="none" stroke-width="1" fill="none" fill-rule="evenodd">
        <g id="023" transform="translate(-120.000000, -103.000000)">
            <g id="Dashbaord" transform="translate(120.000000, 102.000000)">
                <rect id="Rectangle" x="0" y="0" width="18" height="18"></rect>
                <polyline id="Path" stroke="#71757B" stroke-linecap="round" stroke-linejoin="round" points="1.375 1.78 1.375 15.2 16.535 15.2"></polyline>
                <line x1="12.585" y1="7.135" x2="9.79" y2="10.9" id="Path" stroke="#71757B" stroke-linecap="round" stroke-linejoin="round"></line>
                <line x1="8.63" y1="11.07" x2="6.61" y2="9.57" id="Path" stroke="#71757B" stroke-linecap="round" stroke-linejoin="round"></line>
                <line x1="5.43" y1="9.74" x2="1.375" y2="15.2" id="Path" stroke="#71757B" stroke-linecap="round" stroke-linejoin="round"></line>
                <path d="M6.77,9.08 C6.77110528,9.25942699 6.71506655,9.434548 6.61,9.58 C6.45210479,9.79450344 6.20134933,9.92080989 5.935,9.92000758 C5.75402179,9.92078259 5.57799477,9.8609334 5.435,9.75 C5.22851906,9.59366803 5.1080283,9.34897911 5.11,9.09 C5.08573835,8.77717492 5.23889345,8.47715412 5.50648384,8.31331413 C5.77407423,8.14947415 6.11092577,8.14947415 6.37851616,8.31331413 C6.64610655,8.47715412 6.79926165,8.77717492 6.775,9.09 L6.77,9.08 Z" id="Path" stroke="#71757B" stroke-linecap="round" stroke-linejoin="round"></path>
                <path d="M10.13,11.565 C10.1542616,11.8778251 10.0011065,12.1778459 9.73351616,12.3416859 C9.46592577,12.5055259 9.12907423,12.5055259 8.86148384,12.3416859 C8.59389345,12.1778459 8.44073835,11.8778251 8.465,11.565 C8.46354153,11.3847269 8.52153226,11.2089974 8.63,11.065 C8.78527336,10.8527013 9.03198271,10.7265642 9.295,10.725 C9.47623335,10.7226316 9.65276956,10.7826539 9.795,10.895 C10.0081116,11.0512991 10.1328277,11.3007312 10.13,11.565 L10.13,11.565 Z" id="Path" stroke="#71757B" stroke-linecap="round" stroke-linejoin="round"></path>
                <path d="M13.915,6.47 C13.915,6.93115777 13.5411578,7.305 13.08,7.305 C12.8987667,7.30736838 12.7222304,7.24734606 12.58,7.135 C12.3676801,6.98028207 12.2429601,6.73270368 12.245,6.47 C12.2436687,6.24900527 12.3305268,6.03660475 12.4863265,5.87986647 C12.6421262,5.72312819 12.8540013,5.63499599 13.075,5.635 C13.2552731,5.63354153 13.4310026,5.69153226 13.575,5.8 C13.787463,5.9573771 13.9134286,6.2056033 13.915,6.47 Z" id="Path" stroke="#71757B" stroke-linecap="round" stroke-linejoin="round"></path>
                <line x1="15.595" y1="2.89" x2="13.56" y2="5.79" id="Path" stroke="#71757B" stroke-linecap="round" stroke-linejoin="round"></line>
                <polyline id="Path" stroke="#71757B" stroke-linecap="round" stroke-linejoin="round" points="13.425 2.545 16.175 2.095 16.625 4.85"></polyline>
                <line x1="16.175" y1="2.095" x2="15.52" y2="2.995" id="Path" stroke="#71757B" stroke-linecap="round" stroke-linejoin="round"></line>
            </g>
        </g>
    </g>
</svg>