<?xml version="1.0" encoding="UTF-8"?>
<svg width="21px" height="18px" viewBox="0 0 21 18" version="1.1" xmlns="http://www.w3.org/2000/svg" xmlns:xlink="http://www.w3.org/1999/xlink">
    <!-- Generator: sketchtool 63.1 (101010) - https://sketch.com -->
    <title>6746A1DC-2926-4572-B966-D4FC93ED63F6</title>
    <desc>Created with sketchtool.</desc>
    <g id="Page-1" stroke="none" stroke-width="1" fill="none" fill-rule="evenodd">
        <g id="08_admin_user_list" transform="translate(-1326.000000, -199.000000)">
            <g id="Group-2" transform="translate(113.000000, 181.000000)">
                <g id="Group">
                    <g id="deactivate_aadmin_24" transform="translate(1211.000000, 15.000000)">
                        <g>
                            <rect id="Rectangle" x="0" y="0" width="24" height="24"></rect>
                            <path d="M9.66,11.48 C5.55,11.48 2.2,14.31 2.2,17.78 C2.17723774,18.5887024 2.28529699,19.3957699 2.52,20.17 C2.61668489,20.4805208 2.90477881,20.6915192 3.23,20.69 C3.3063581,20.6997276 3.3836419,20.6997276 3.46,20.69 C3.64893414,20.6280966 3.80660122,20.495513 3.9,20.32 C4.01591895,20.1391156 4.05209723,19.9184281 4,19.71 C3.82058234,19.0829677 3.7396178,18.4318779 3.76,17.78 C3.71,15.31 6,13.27 9,13 L8.75,17.31 L9.63,18.46 L10.52,17.31 L10.26,13 C13.26,13.24 15.62,15.29 15.62,17.77 C15.6467477,18.4262142 15.5793976,19.0828777 15.42,19.72 C15.3040202,20.117645 15.532355,20.5340202 15.93,20.65 C15.9996627,20.6597176 16.0703373,20.6597176 16.14,20.65 C16.4756105,20.6569516 16.7727026,20.4341326 16.86,20.11 C17.0656038,19.3374902 17.1565756,18.5389606 17.13,17.74 C17.13,14.31 13.78,11.48 9.66,11.48 Z" id="Path" fill="#71757B" fill-rule="nonzero"></path>
                            <path d="M9.66,10.63 C11.1430511,10.63 12.4794787,9.73493892 13.0441743,8.36360399 C13.6088699,6.99226905 13.2901979,5.41571206 12.2372158,4.37136094 C11.1842337,3.32700981 9.6051073,3.02132416 8.23846644,3.59728717 C6.87182557,4.17325017 5.98784384,5.51699869 6,7 C6.02187271,9.00735669 7.65253128,10.6246492 9.66,10.63 L9.66,10.63 Z M9.66,4.80999999 C10.8490045,4.81011469 11.8143408,5.77114652 11.8197921,6.9601386 C11.8251975,8.14913067 10.8686764,9.11893676 9.67972258,9.12990803 C8.49076873,9.14087931 7.51651396,8.18888978 7.5,7 C7.49197078,6.42195222 7.71599203,5.86480919 8.12194413,5.45321887 C8.52789623,5.04162854 9.08189646,4.80994424 9.66,4.80999999 L9.66,4.80999999 Z" id="Shape" fill="#71757B" fill-rule="nonzero"></path>
                            <path d="M21.93,9.22 L15.25,9.22 C14.8357864,9.22 14.5,9.55578644 14.5,9.97 C14.5,10.3842136 14.8357864,10.72 15.25,10.72 L21.93,10.72 C22.3442136,10.72 22.68,10.3842136 22.68,9.97 C22.68,9.55578644 22.3442136,9.22 21.93,9.22 Z" id="Path" fill="#71757B" fill-rule="nonzero"></path>
                        </g>
                    </g>
                </g>
            </g>
        </g>
    </g>
</svg>