<?xml version="1.0" encoding="UTF-8"?>
<svg width="15px" height="16px" viewBox="0 0 15 16" version="1.1" xmlns="http://www.w3.org/2000/svg" xmlns:xlink="http://www.w3.org/1999/xlink">
    <!-- Generator: sketchtool 63.1 (101010) - https://sketch.com -->
    <title>51B7FF86-FD1D-43D4-ADAC-5E307D6628B1@1.5x</title>
    <desc>Created with sketchtool.</desc>
    <g id="Page-1" stroke="none" stroke-width="1" fill="none" fill-rule="evenodd">
        <g id="40_admin_deleted_toast" transform="translate(-1336.000000, -201.000000)">
            <g id="deactivate_admin" transform="translate(1335.000000, 200.000000)">
                <rect id="Rectangle" x="0" y="0" width="18" height="18"></rect>
                <rect id="Rectangle" x="0" y="0" width="18" height="18"></rect>
                <path d="M11.47,1 C11.2188345,0.921366987 10.9511907,1.05964962 10.87,1.31 L5.94,16.38 C5.86136699,16.6311655 5.99964962,16.8988093 6.25,16.98 L6.39,16.98 C6.59779502,16.9786663 6.78215145,16.8464106 6.85,16.65 L11.78,1.65 C11.8340747,1.52325651 11.8310708,1.37938607 11.7717531,1.25501008 C11.7124353,1.13063409 11.6025253,1.03774966 11.47,1 Z" id="Path" fill="#71757B" fill-rule="nonzero"></path>
                <path d="M5.31,13.92 L6.25,13.92 L6.55,13 L5.19,13 C5.37152458,11.7634293 6.23408568,10.7345447 7.42,10.34 L7.89,8.9 C7.22097855,8.39169549 6.94099151,7.51943414 7.18918682,6.71671236 C7.43738213,5.91399058 8.16083347,5.35198455 9,5.31 L9.06,5.31 L9.35,4.43 C9.2335575,4.41977205 9.1164425,4.41977205 9,4.43 C7.81158281,4.44484325 6.75434038,5.18818865 6.33823972,6.30147926 C5.92213906,7.41476986 6.23265167,8.66932391 7.12,9.46 C6.50046014,9.66210479 5.93584371,10.0042966 5.47,10.46 C4.79491407,11.1448326 4.37793544,12.0423967 4.29,13 C2.68324502,11.1590715 2.30321126,8.54790972 3.3185587,6.32535514 C4.33390613,4.10280055 6.55652063,2.68062745 9,2.69 C9.30123387,2.69304332 9.60191821,2.71642988 9.9,2.76 L10.18,1.91 C9.79073162,1.83823513 9.39582578,1.80142188 9,1.8 C5.70800995,1.80387298 2.84917469,4.06709404 2.09000672,7.27035449 C1.33083876,10.4736149 2.86989205,13.7791291 5.81,15.26 L6.09,14.4 C5.81866398,14.2591974 5.5579709,14.0987709 5.31,13.92 L5.31,13.92 Z" id="Path" fill="#71757B" fill-rule="nonzero"></path>
                <path d="M12,2.47 L11.72,3.33 C13.4581748,4.16512584 14.707847,5.76261631 15.0999757,7.65071636 C15.4921045,9.5388164 14.9818886,11.501808 13.72,12.96 C13.6187579,12.0235877 13.2027412,11.1492474 12.54,10.48 C12.0741563,10.0242966 11.5095399,9.68210479 10.89,9.48 C11.5266439,8.9349522 11.8921789,8.13808578 11.89,7.3 C11.888977,6.55554542 11.6026761,5.83979333 11.09,5.3 L10.74,6.37 C11.0004202,6.84233347 11.0524464,7.40176177 10.8835918,7.91401731 C10.7147372,8.42627284 10.3402463,8.84510845 9.85,9.07 L9.49,10.18 L9.56,10.18 C11.1898913,10.1915931 12.5687521,11.38802 12.81,13 L8.55,13 L8.25,13.92 L12.69,13.92 C11.6215573,14.7097324 10.3286231,15.1372066 9,15.14 C8.62675564,15.1242219 8.25547306,15.0773935 7.89,15 L7.6,15.86 C8.06100531,15.9520711 8.5298916,15.9989598 9,16 C12.3130155,15.9743754 15.169226,13.6638855 15.8864226,10.4293287 C16.6036192,7.19477198 14.9916878,3.89356329 12,2.47 Z" id="Path" fill="#71757B" fill-rule="nonzero"></path>
            </g>
        </g>
    </g>
</svg>