<?xml version="1.0" encoding="UTF-8"?>
<svg width="16px" height="16px" viewBox="0 0 16 16" version="1.1" xmlns="http://www.w3.org/2000/svg" xmlns:xlink="http://www.w3.org/1999/xlink">
    <!-- Generator: sketchtool 63.1 (101010) - https://sketch.com -->
    <title>3F0A25A9-3C56-42C6-B3AC-E582549939FA</title>
    <desc>Created with sketchtool.</desc>
    <g id="Phase-4_Manager" stroke="none" stroke-width="1" fill="none" fill-rule="evenodd">
        <g id="33" transform="translate(-794.000000, -387.000000)">
            <g id="Group-36" transform="translate(401.000000, 138.000000)">
                <g id="delete_image" transform="translate(392.000000, 248.000000)">
                    <rect id="Rectangle" x="0" y="0" width="18" height="18"></rect>
                    <circle id="Oval" fill="#71757B" fill-rule="nonzero" cx="9" cy="9" r="8"></circle>
                    <path d="M6.22,15.13 C5.58722159,15.11326 5.06508812,14.6296446 5,14 L4.65999768,6.23 C4.65919337,5.95773433 4.86853976,5.73094241 5.14,5.71 L5.14,5.71 C5.41424684,5.70877713 5.64413013,5.91697331 5.67,6.19 L6,13.9 C6.01042556,14.0246807 6.1148849,14.1204351 6.24,14.12 L11.83,14.12 C11.9512599,14.1153585 12.0499764,14.020934 12.06,13.9 L12.38,6.19 C12.3959028,5.92011409 12.6196464,5.70953188 12.89,5.71 C13.0252235,5.70712575 13.1556211,5.76027312 13.2503086,5.85685436 C13.344996,5.9534356 13.3955511,6.08485992 13.39,6.22 L13.06,14 C13.0182766,14.6568158 12.4780764,15.1708772 11.82,15.18 L6.22,15.18 L6.22,15.13 Z" id="Path" fill="#FFFFFF" fill-rule="nonzero"></path>
                    <path d="M8.93,13.22 L8.93,13.22 C8.82,13.22 8.68,13.07 8.68,12.88 L8.68,6.88 C8.68000001,6.6701318 8.8501318,6.50000002 9.06,6.50000002 C9.2698682,6.50000002 9.43999999,6.6701318 9.44,6.88 L9.44,12.88 C9.44269967,12.9798511 9.40491272,13.0765516 9.3352295,13.1481182 C9.26554628,13.2196847 9.16988754,13.26 9.07,13.26 L9,13.26 L8.93,13.22 Z" id="Path" fill="#FFFFFF" fill-rule="nonzero"></path>
                    <path d="M7.15,13.24 C6.99463328,13.1868023 6.88756707,13.0440474 6.88,12.88 L6.71,7 C6.70242522,6.89188846 6.74263098,6.78589147 6.82,6.71 C6.88734394,6.64284943 6.97548404,6.60054219 7.07,6.58999968 L7.07,6.58999968 C7.2833334,6.58973317 7.45933349,6.75693326 7.47,6.97 L7.64,12.97 C7.65780367,13.0793794 7.61586558,13.1899434 7.53,13.26 C7.45939289,13.3206058 7.37238492,13.3588893 7.28,13.37 L7.16,13.37 L7.15,13.24 Z" id="Path" fill="#FFFFFF" fill-rule="nonzero"></path>
                    <path d="M10.77,13.26 C10.6621837,13.2595322 10.5599345,13.2120593 10.49,13.13 C10.4154617,13.0569597 10.3785954,12.9537342 10.39,12.85 L10.56,6.85 C10.5700452,6.64443632 10.7344363,6.48004516 10.94,6.47 L10.94,6.47 C11.0507392,6.47019575 11.1561739,6.5174596 11.23,6.6 C11.3045383,6.67304029 11.3414046,6.77626583 11.33,6.88 L11.19,12.88 C11.1793429,13.087543 11.0078163,13.2502734 10.8,13.25 L10.77,13.26 Z" id="Path" fill="#FFFFFF" fill-rule="nonzero"></path>
                    <path d="M13.4,5.22 L4.64,5.22 C4.41130868,5.19217445 4.22818651,5.01719105 4.19,4.79 C4.17286283,4.65827982 4.20884275,4.52515412 4.29,4.42 C4.36536965,4.30818831 4.48600328,4.23507702 4.62,4.22 L6.87,4.22 L7,3.83 C7.16338669,3.25766938 7.67531231,2.85457834 8.27,2.83 L9.81,2.83 C10.3901818,2.85038473 10.89659,3.22919398 11.08,3.78 L11.19,4.2 L13.4,4.2 C13.6318027,4.22111759 13.8183732,4.39939603 13.85,4.63 C13.8861776,4.90205953 13.7005655,5.15396173 13.43,5.2 L13.43,5.2 L13.4,5.22 Z M8.24,3.88 C8.10082369,3.8901063 7.98002399,3.97973188 7.93,4.11 L7.87,4.26 L10.16,4.26 L10.11,4.16 C10.0653708,4.02420255 9.94264726,3.92919076 9.8,3.92 L8.24,3.88 Z" id="Shape" fill="#FFFFFF" fill-rule="nonzero"></path>
                </g>
            </g>
        </g>
    </g>
</svg>