<svg width="18" height="18" viewBox="0 0 18 18" fill="none" xmlns="http://www.w3.org/2000/svg">
<path d="M1.62008 16.9C1.55094 16.9 1.4825 16.8862 1.41875 16.8595C1.355 16.8327 1.29722 16.7935 1.2488 16.7442C1.20038 16.6948 1.16229 16.6363 1.13675 16.5721C1.11122 16.5078 1.09875 16.4391 1.10008 16.37V12.22C1.07797 12.1426 1.07413 12.0611 1.08886 11.982C1.10358 11.9029 1.13648 11.8283 1.18495 11.764C1.23341 11.6998 1.29614 11.6476 1.36817 11.6117C1.44021 11.5759 1.51959 11.5572 1.60008 11.5572C1.68056 11.5572 1.75995 11.5759 1.83198 11.6117C1.90402 11.6476 1.96674 11.6998 2.01521 11.764C2.06368 11.8283 2.09657 11.9029 2.1113 11.982C2.12603 12.0611 2.12218 12.1426 2.10008 12.22V15.85H15.8601V12.22C15.8911 12.1113 15.9567 12.0157 16.0469 11.9477C16.1371 11.8796 16.2471 11.8428 16.3601 11.8428C16.4731 11.8428 16.583 11.8796 16.6732 11.9477C16.7634 12.0157 16.829 12.1113 16.8601 12.22V16.37C16.8614 16.4391 16.8489 16.5078 16.8234 16.5721C16.7979 16.6363 16.7598 16.6948 16.7114 16.7442C16.6629 16.7935 16.6052 16.8327 16.5414 16.8595C16.4777 16.8862 16.4092 16.9 16.3401 16.9H1.62008Z" fill="#71757B"/>
<path d="M8.9999 11.55C8.91603 11.5513 8.83328 11.5306 8.7599 11.49L8.6599 11.42L5.5799 8.31C5.52967 8.26235 5.48967 8.20497 5.46233 8.14136C5.435 8.07775 5.4209 8.00924 5.4209 7.94C5.4209 7.87076 5.435 7.80225 5.46233 7.73864C5.48967 7.67503 5.52967 7.61765 5.5799 7.57C5.62607 7.5212 5.68197 7.48263 5.74398 7.45679C5.80599 7.43095 5.87274 7.41842 5.9399 7.42C6.00849 7.41883 6.07661 7.43151 6.14019 7.45729C6.20376 7.48306 6.26149 7.5214 6.3099 7.57L8.4799 9.76V1.63C8.45779 1.55261 8.45395 1.47115 8.46868 1.39202C8.48341 1.3129 8.5163 1.23827 8.56477 1.17402C8.61324 1.10977 8.67596 1.05764 8.74799 1.02175C8.82003 0.985853 8.89942 0.967171 8.9799 0.967171C9.06038 0.967171 9.13977 0.985853 9.21181 1.02175C9.28384 1.05764 9.34656 1.10977 9.39503 1.17402C9.4435 1.23827 9.47639 1.3129 9.49112 1.39202C9.50585 1.47115 9.50201 1.55261 9.4799 1.63V9.76L11.6499 7.57C11.6978 7.52005 11.7552 7.48016 11.8188 7.45269C11.8823 7.42521 11.9507 7.4107 12.0199 7.41C12.0878 7.40968 12.155 7.42378 12.2171 7.45136C12.2791 7.47895 12.3346 7.51938 12.3799 7.57C12.4301 7.61765 12.4701 7.67503 12.4975 7.73864C12.5248 7.80225 12.5389 7.87076 12.5389 7.94C12.5389 8.00924 12.5248 8.07775 12.4975 8.14136C12.4701 8.20497 12.4301 8.26235 12.3799 8.31L9.3699 11.39C9.31136 11.4496 9.23932 11.4942 9.1599 11.52L8.9999 11.55Z" fill="#71757B"/>
</svg>
