<?xml version="1.0" encoding="UTF-8"?>
<svg width="18px" height="20px" viewBox="0 0 18 20" version="1.1" xmlns="http://www.w3.org/2000/svg" xmlns:xlink="http://www.w3.org/1999/xlink">
    <!-- Generator: sketchtool 63.1 (101010) - https://sketch.com -->
    <title>72F6AE1D-0808-4D25-B0ED-7E28083CCB5C</title>
    <desc>Created with sketchtool.</desc>
    <g id="Dashboard" stroke="none" stroke-width="1" fill="none" fill-rule="evenodd">
        <g id="27" transform="translate(-488.000000, -530.000000)">
            <g id="Group-23" transform="translate(400.000000, 140.000000)">
                <g id="download" transform="translate(85.000000, 388.000000)">
                    <rect id="Rectangle" x="0" y="0" width="24" height="24"></rect>
                    <path d="M11.43,17.25 C11.6498867,17.4700382 11.9489365,17.5925405 12.26,17.5900387 C12.5738831,17.5918864 12.8757994,17.4696821 13.1,17.25 L19.1,11.25 C19.2905714,11.0555782 19.2905714,10.7444218 19.1,10.55 C19.0061167,10.4553437 18.8783188,10.4021008 18.745,10.4021008 C18.6116812,10.4021008 18.4838833,10.4553437 18.39,10.55 L12.81,16.13 L12.81,3.09 C12.81,2.81385763 12.5861424,2.59 12.31,2.59 C12.0338576,2.59 11.81,2.81385763 11.81,3.09 L11.81,16.17 L6.18,10.59 C6.0861167,10.4953437 5.95831877,10.4421008 5.825,10.4421008 C5.69168123,10.4421008 5.5638833,10.4953437 5.47,10.59 C5.27942856,10.7844218 5.27942856,11.0955782 5.47,11.29 L11.43,17.25 Z" id="Path" fill="#54595F" fill-rule="nonzero"></path>
                    <path d="M20,17.87 C19.7238576,17.87 19.5,18.0938576 19.5,18.37 L19.5,20.37 L4.5,20.37 L4.5,18.37 C4.5,18.0938576 4.27614237,17.87 4,17.87 C3.72385763,17.87 3.5,18.0938576 3.5,18.37 L3.5,20.37 C3.5,20.9222847 3.94771525,21.37 4.5,21.37 L19.5,21.37 C20.0522847,21.37 20.5,20.9222847 20.5,20.37 L20.5,18.37 C20.5,18.0938576 20.2761424,17.87 20,17.87 Z" id="Path" fill="#54595F" fill-rule="nonzero"></path>
                </g>
            </g>
        </g>
    </g>
</svg>