<?xml version="1.0" encoding="UTF-8"?>
<svg width="16px" height="16px" viewBox="0 0 16 16" version="1.1" xmlns="http://www.w3.org/2000/svg" xmlns:xlink="http://www.w3.org/1999/xlink">
    <!-- Generator: sketchtool 63.1 (101010) - https://sketch.com -->
    <title>AE057185-1E5C-46AC-8248-4556071B428A</title>
    <desc>Created with sketchtool.</desc>
    <g id="Phase-4_Manager" stroke="none" stroke-width="1" fill="none" fill-rule="evenodd">
        <g id="33" transform="translate(-584.000000, -387.000000)">
            <g id="Group-36" transform="translate(401.000000, 138.000000)">
                <g id="edit_image" transform="translate(182.000000, 248.000000)">
                    <rect id="Rectangle" x="0" y="0" width="18" height="18"></rect>
                    <circle id="Oval" fill="#71757B" fill-rule="nonzero" cx="9" cy="9" r="8"></circle>
                    <path d="M5.21,13.67 C4.84491414,13.67 4.4949252,13.5242989 4.23771096,13.2652072 C3.98049672,13.0061155 3.83733514,12.6550761 3.84,12.29 L3.84,6 C3.83464469,5.63320058 3.97661593,5.27957559 4.23412351,5.01830878 C4.49163108,4.75704197 4.84316149,4.60999999 5.21,4.60999999 L7.36,4.60999999 C7.55933105,4.64141838 7.70616427,4.81320807 7.70616427,5.015 C7.70616427,5.21679193 7.55933105,5.38858162 7.36,5.42 L5.21,5.42 C5.0579477,5.419903 4.91239263,5.48164029 4.80677792,5.59102696 C4.70116321,5.70041362 4.64456953,5.84804468 4.65,6 L4.65,12.31 C4.64995215,12.6209381 4.89910979,12.8745449 5.21,12.88 L12,12.88 C12.3125619,12.8746559 12.5646559,12.6225619 12.57,12.31 L12.57,10.14 C12.6014184,9.94066895 12.7732081,9.79383573 12.975,9.79383573 C13.1767919,9.79383573 13.3485816,9.94066895 13.38,10.14 L13.38,12.29 C13.38,13.052153 12.762153,13.67 12,13.67 L5.21,13.67 Z" id="Path" fill="#FFFFFF" fill-rule="nonzero"></path>
                    <path d="M6.86,11.1000559 C6.75460479,11.1016603 6.65197115,11.0662694 6.57,11 C6.46901098,10.8933282 6.43109056,10.7416465 6.47,10.6 L7,8.53 C7.0170541,8.46230139 7.05152976,8.4002452 7.1,8.35 L11.46,4 C11.6981349,3.76817101 12.0176571,3.63892608 12.35,3.63999336 C12.6793016,3.63940105 12.9955374,3.76877025 13.23,4 L13.52,4.29 C14.0041739,4.78066763 14.0041739,5.56933237 13.52,6.06 L9.2,10.41 C9.1497548,10.4584702 9.08769861,10.4929459 9.02,10.51 L7.02,11.08 L6.86,11.1000559 Z M7.44,10.1 L8.16,9.9 L7.64,9.4 L7.44,10.1 Z M8.93,9.52 L12.23,6.22 L11.32,5.31 L8,8.63 L8.93,9.52 Z M12.8,5.66 L12.94,5.52 C13.0275538,5.43864366 13.0772971,5.32451786 13.0772971,5.205 C13.0772971,5.08548214 13.0275538,4.97135634 12.94,4.89 L12.66,4.61 C12.5789263,4.52565968 12.4669882,4.47799329 12.35,4.47799329 C12.2330118,4.47799329 12.1210737,4.52565968 12.04,4.61 L11.89,4.75 L12.8,5.66 Z" id="Shape" fill="#FFFFFF" fill-rule="nonzero"></path>
                </g>
            </g>
        </g>
    </g>
</svg>