<?xml version="1.0" encoding="UTF-8"?>
<svg width="102px" height="104px" viewBox="0 0 102 104" version="1.1" xmlns="http://www.w3.org/2000/svg" xmlns:xlink="http://www.w3.org/1999/xlink">
    <title>7104FB28-4940-4F21-AE55-F745B99A1DAB</title>
    <g id="Successful_login" stroke="none" stroke-width="1" fill="none" fill-rule="evenodd">
        <g id="00_dashboard" transform="translate(-265.000000, -497.000000)">
            <g id="Nodata" transform="translate(137.000000, 472.000000)">
                <g id="Group-11" transform="translate(101.000000, 25.000000)">
                    <g id="empty_data" transform="translate(27.000000, 0.000000)">
                        <rect id="Rectangle" x="0.81" y="0.27" width="100.5" height="103.21"></rect>
                        <ellipse id="Oval" fill="#4B286D" fill-rule="nonzero" cx="48.79" cy="39.72" rx="25.11" ry="11.65"></ellipse>
                        <path d="M23.68,44.73 C23.68,44.73 25.92,54.29 48.68,54.29 C70.81,54.29 73.94,44.73 73.94,44.73 L73.48,53.6 C73.48,53.6 69,63.15 48.74,63.15 C27.63,63.15 23.68,53.6 23.68,53.6 L23.68,44.73 Z" id="Path" fill="#4B286D" fill-rule="nonzero"></path>
                        <path d="M57.44,87.17 L47.93,70.17 C47.8339165,70.0233011 47.6703643,69.9349123 47.495,69.9349123 C47.3196357,69.9349123 47.1560835,70.0233011 47.06,70.17 L37.55,87.17 C37.4644816,87.3221394 37.4644816,87.5078606 37.55,87.66 C37.6356114,87.8168896 37.8013011,87.9132208 37.98,87.9100783 L57,87.9100783 C57.1786989,87.9132208 57.3443886,87.8168896 57.43,87.66 C57.5227505,87.5108034 57.5265861,87.3228566 57.44,87.17 Z" id="Path" fill="#4B286D" fill-rule="nonzero"></path>
                        <path d="M48,68.24 L51.81,75.07 C69.38,74.15 73.4,65.6 73.4,65.6 L73.86,56.73 C73.86,56.73 70.73,66.29 48.6,66.29 C25.88,66.29 23.6,56.73 23.6,56.73 L23.6,65.6 C23.6,65.6 26.86,73.47 43.26,74.92 L46.99,68.24 C47.0928738,68.0578829 47.2858358,67.945263 47.495,67.945263 C47.7041642,67.945263 47.8971262,68.0578829 48,68.24 Z" id="Path" fill="#4B286D" fill-rule="nonzero"></path>
                        <path d="M23.68,68.73 L23.68,77.6 C23.68,77.6 26.08,83.41 37.16,85.97 L41.65,77.97 C25.45,76.23 23.68,68.73 23.68,68.73 Z" id="Path" fill="#4B286D" fill-rule="nonzero"></path>
                        <path d="M53.55,78.11 L58.15,86.34 C70.41,84 73.44,77.6 73.44,77.6 L73.9,68.73 C73.9,68.73 71.24,76.82 53.55,78.11 Z" id="Path" fill="#4B286D" fill-rule="nonzero"></path>
                        <path d="M48.34,76.19 C48.308257,76.0994979 48.2256813,76.036583 48.13,76.03 L46.86,76.03 C46.7652503,76.0390107 46.6838363,76.1010404 46.65,76.19 C46.6141562,76.3107291 46.6141562,76.4392709 46.65,76.56 L47.28,81.3 C47.28,81.5 47.42,81.64 47.55,81.64 C47.68,81.64 47.78,81.5 47.81,81.3 L48.45,76.56 C48.4467126,76.429107 48.4087545,76.3014298 48.34,76.19 Z" id="Path" fill="#E9EDF3" fill-rule="nonzero"></path>
                        <circle id="Oval" fill="#E9EDF3" fill-rule="nonzero" cx="47.5" cy="83.18" r="1"></circle>
                        <circle id="Oval" fill="#456F85" fill-rule="nonzero" cx="17.78" cy="24.41" r="1"></circle>
                        <circle id="Oval" stroke="#E3C99D" cx="43.76" cy="19.24" r="2.11"></circle>
                        <line x1="9.06" y1="30.27" x2="9.06" y2="33.45" id="Path" stroke="#E3C99D"></line>
                        <line x1="10.64" y1="31.86" x2="7.47" y2="31.86" id="Path" stroke="#E3C99D"></line>
                        <line x1="34.64" y1="22.93" x2="33.51" y2="25.9" id="Path" stroke="#E3C99D"></line>
                        <line x1="35.56" y1="24.98" x2="32.59" y2="23.85" id="Path" stroke="#E3C99D"></line>
                        <line x1="15.46" y1="17.65" x2="15.3" y2="20.82" id="Path" stroke="#4B286D"></line>
                        <line x1="16.97" y1="19.32" x2="13.8" y2="19.16" id="Path" stroke="#4B286D"></line>
                        <line x1="30.37" y1="12.15" x2="30.21" y2="15.32" id="Path" stroke="#456F85"></line>
                        <line x1="31.87" y1="13.82" x2="28.7" y2="13.65" id="Path" stroke="#456F85"></line>
                        <circle id="Oval" fill="#E3C99D" fill-rule="nonzero" cx="22.96" cy="20.2" r="1"></circle>
                        <circle id="Oval" fill="#E3C99D" fill-rule="nonzero" cx="17.14" cy="38.21" r="1"></circle>
                        <circle id="Oval" stroke="#4B286D" cx="22.31" cy="31.28" r="1.94"></circle>
                        <circle id="Oval" fill="#456F85" fill-rule="nonzero" cx="88.98" cy="74.94" r="1"></circle>
                        <circle id="Oval" fill="#E3C99D" fill-rule="nonzero" cx="86.51" cy="67.9" r="1"></circle>
                        <line x1="94.72" y1="66.13" x2="93.48" y2="63.21" id="Path" stroke="#E3C99D"></line>
                        <line x1="92.64" y1="65.29" x2="95.56" y2="64.05" id="Path" stroke="#E3C99D"></line>
                        <line x1="74.04" y1="82.89" x2="73.92" y2="79.72" id="Path" stroke="#E3C99D"></line>
                        <line x1="72.4" y1="81.37" x2="75.57" y2="81.25" id="Path" stroke="#E3C99D"></line>
                        <line x1="93.75" y1="80.25" x2="92.67" y2="77.27" id="Path" stroke="#4B286D"></line>
                        <line x1="91.72" y1="79.31" x2="94.7" y2="78.22" id="Path" stroke="#4B286D"></line>
                        <line x1="82.18" y1="91.15" x2="81.1" y2="88.17" id="Path" stroke="#456F85"></line>
                        <line x1="80.15" y1="90.2" x2="83.13" y2="89.11" id="Path" stroke="#456F85"></line>
                        <circle id="Oval" fill="#E3C99D" fill-rule="nonzero" cx="85.86" cy="80.84" r="1"></circle>
                        <circle id="Oval" fill="#E3C99D" fill-rule="nonzero" cx="84.18" cy="61.99" r="1"></circle>
                        <circle id="Oval" stroke="#4B286D" cx="80.81" cy="70.32" r="1.94"></circle>
                        <circle id="Oval" fill="#4B286D" fill-rule="nonzero" cx="91.68" cy="72.1" r="1"></circle>
                        <line x1="82.18" y1="81.69" x2="81.1" y2="78.71" id="Path" stroke="#EEB600"></line>
                        <line x1="80.15" y1="80.74" x2="83.13" y2="79.65" id="Path" stroke="#EEB600"></line>
                        <circle id="Oval" fill="#4B286D" fill-rule="nonzero" cx="73.98" cy="90.91" r="1"></circle>
                    </g>
                </g>
            </g>
        </g>
    </g>
</svg>