<?xml version="1.0" encoding="UTF-8"?>
<svg width="20px" height="20px" viewBox="0 0 20 20" version="1.1" xmlns="http://www.w3.org/2000/svg" xmlns:xlink="http://www.w3.org/1999/xlink">
    <!-- Generator: sketchtool 63.1 (101010) - https://sketch.com -->
    <title>EC3B1451-D36D-4EAE-945D-23B9E9A59C76</title>
    <desc>Created with sketchtool.</desc>
    <g id="Page-1" stroke="none" stroke-width="1" fill="none" fill-rule="evenodd">
        <g id="icon" transform="translate(-88.000000, -129.000000)">
            <g id="exempt_24" transform="translate(86.000000, 127.000000)">
                <g>
                    <rect id="Rectangle" x="0" y="0" width="24" height="24"></rect>
                    <path d="M20.16,6.66 L19.51,6.66 L19.51,6.16 C19.51,5.78444637 19.2055536,5.48 18.83,5.48 C18.4544464,5.48 18.15,5.78444637 18.15,6.16 L18.15,6.66 L16.85,6.66 L15.76,4.79 C15.4777704,4.30519103 14.9609532,4.00498104 14.4,4 L10.07,4 C9.51054415,4.00088481 8.99326844,4.29755765 8.71,4.78 L8.37,5.38 C8.2485297,5.5907867 8.24873987,5.85036528 8.37055136,6.06095499 C8.49236284,6.27154471 8.71726957,6.40115198 8.96055136,6.400955 C9.20383315,6.40075801 9.4285297,6.2707867 9.55,6.06 L9.9,5.46 C9.94293433,5.39733669 10.0140392,5.35991306 10.09,5.36 L14.41,5.36 C14.4914413,5.35866597 14.5675141,5.40050601 14.61,5.47 L15.9,7.67 C16.0183647,7.87915115 16.2396811,8.00888834 16.48,8.01 L20.16,8.01 C20.2870255,8.01 20.39,8.11297451 20.39,8.24 L20.39,17.85 C20.39,18.2255536 20.6944464,18.53 21.07,18.53 C21.4455536,18.53 21.75,18.2255536 21.75,17.85 L21.75,8.25 C21.75,7.37186725 21.0381328,6.66 20.16,6.66 Z" id="Path" fill="#71757B" fill-rule="nonzero"></path>
                    <path d="M19.8,18.83 L3.41,2.45 C3.28125638,2.31032507 3.0999579,2.23086874 2.91,2.23086874 C2.7200421,2.23086874 2.53874362,2.31032507 2.41,2.45 C2.16970582,2.71343444 2.16970582,3.11656556 2.41,3.38 L5.7,6.66 L3.84,6.66 C2.96186725,6.66 2.25,7.37186725 2.25,8.25 L2.25,18.41 C2.25,19.2881328 2.96186725,20 3.84,20 L19,20 L20.56,21.55 C20.6887436,21.6896749 20.8700421,21.7691313 21.06,21.7691313 C21.2499579,21.7691313 21.4312564,21.6896749 21.56,21.55 C21.8002942,21.2865656 21.8002942,20.8834344 21.56,20.62 L19.8,18.83 Z M10.47,11.43 L13.64,14.6 C13.073734,15.166266 12.2483834,15.387418 11.4748497,15.1801503 C10.701316,14.9728826 10.0971174,14.368684 9.88984971,13.5951503 C9.68258198,12.8216166 9.90373403,11.996266 10.47,11.43 L10.47,11.43 Z M12,18.63 L3.84,18.63 C3.77993982,18.6327329 3.72137781,18.6107665 3.6779309,18.5692086 C3.63448399,18.5276507 3.60993786,18.4701223 3.61,18.41 L3.61,8.25 C3.60437962,8.18561584 3.62610701,8.12183784 3.66986451,8.07427535 C3.713622,8.02671285 3.77537145,7.99975515 3.84,7.99999835 L7.06,7.99999835 L9.51,10.45 C8.52311051,11.3381378 8.10696884,12.6984381 8.42805328,13.98671 C8.74913773,15.2749819 9.75501813,16.2808623 11.04329,16.6019467 C12.3315619,16.9230312 13.6918622,16.5068895 14.58,15.52 L17.67,18.61 L12,18.63 Z" id="Shape" fill="#71757B" fill-rule="nonzero"></path>
                </g>
            </g>
        </g>
    </g>
</svg>