<svg width="41" height="40" viewBox="0 0 41 40" fill="none" xmlns="http://www.w3.org/2000/svg">
<path d="M34.57 11.37H33.57V10.57C33.57 9.96249 33.0775 9.47001 32.47 9.47001C31.8625 9.47001 31.37 9.96249 31.37 10.57V11.37H29.27L27.51 8.37001C27.0503 7.58997 26.2154 7.10799 25.31 7.10001H18.31C17.4047 7.10799 16.5697 7.58997 16.11 8.37001L15.57 9.37001C15.422 9.62147 15.3811 9.92176 15.4562 10.2037C15.5314 10.4856 15.7165 10.7256 15.97 10.87C16.4949 11.1724 17.1655 10.9936 17.47 10.47L18.03 9.47001C18.0955 9.36061 18.2126 9.2926 18.34 9.29001H25.34C25.4731 9.29118 25.5953 9.36373 25.66 9.48001L27.68 13C27.8786 13.3357 28.24 13.5411 28.63 13.54H34.57C34.6672 13.5373 34.7614 13.574 34.8311 13.6418C34.9008 13.7097 34.9401 13.8028 34.94 13.9V29.46C34.94 30.0675 35.4325 30.56 36.04 30.56C36.6475 30.56 37.14 30.0675 37.14 29.46V13.93C37.1345 12.5145 35.9855 11.37 34.57 11.37Z" fill="#4B286D"/>
<path fill-rule="evenodd" clip-rule="evenodd" d="M33.9999 31L7.50993 4.57C7.07217 4.18122 6.40546 4.20771 5.99993 4.63C5.61099 5.05436 5.61099 5.70564 5.99993 6.13L11.2399 11.37H8.23993C7.56098 11.37 6.90983 11.6397 6.42974 12.1198C5.94965 12.5999 5.67993 13.251 5.67993 13.93V30.35C5.67967 31.7501 6.80012 32.8928 8.19993 32.92H32.7499L35.2599 35.43C35.5386 35.7087 35.9448 35.8175 36.3254 35.7155C36.7061 35.6135 37.0034 35.3162 37.1054 34.9355C37.2074 34.5548 37.0986 34.1487 36.8199 33.87L33.9999 31ZM18.9299 19L23.9999 24.2C20.5199 27.63 15.4499 22.56 18.9099 19.08L18.9299 19ZM8.19993 30.64H21.4099L30.5999 30.72L25.5999 25.72C19.9599 31.16 11.9599 23.15 17.3999 17.52L13.3999 13.57H8.19993C8.00111 13.57 7.83993 13.7312 7.83993 13.93V30.27C7.83986 30.4705 7.9995 30.6346 8.19993 30.64Z" fill="#4B286D"/>
</svg>
