<?xml version="1.0" encoding="UTF-8"?>
<svg width="16px" height="16px" viewBox="0 0 16 16" version="1.1" xmlns="http://www.w3.org/2000/svg" xmlns:xlink="http://www.w3.org/1999/xlink">
    <!-- Generator: sketchtool 63.1 (101010) - https://sketch.com -->
    <title>767A2F0B-376F-49E8-B93D-427918E42FD9@1.5x</title>
    <desc>Created with sketchtool.</desc>
    <g id="Page-1" stroke="none" stroke-width="1" fill="none" fill-rule="evenodd">
        <g id="70_exempted_emp_list" transform="translate(-1266.000000, -242.000000)">
            <g id="Group-6" transform="translate(113.000000, 223.000000)">
                <g id="Group-2">
                    <g id="exemption_remarks" transform="translate(1152.000000, 18.000000)">
                        <rect id="Rectangle" x="0" y="0" width="18" height="18"></rect>
                        <rect id="Rectangle" x="0" y="0" width="18" height="18"></rect>
                        <path d="M3.42,17 C3.35484104,17.0200513 3.28515896,17.0200513 3.22,17 C3.02989638,16.9219291 2.90692403,16.7354872 2.91,16.53 L2.91,14.53 C1.78930784,14.2680329 1.0102381,13.2502159 1.05,12.1 L1.05,3.42 C1.05,2.11108514 2.11108514,1.05 3.42,1.05 L14.58,1.05 C15.208603,1.03659838 15.81677,1.27352976 16.270639,1.70864384 C16.724508,2.14375793 16.9868782,2.74139109 17,3.37 L17,12.1 C17,13.4089149 15.9389149,14.47 14.63,14.47 L6.11,14.47 L3.78,16.8 C3.69714978,16.9184899 3.56437457,16.9922539 3.42,17 L3.42,17 Z M3.42,2.12 C2.69558627,2.12462199 2.10194533,2.69627622 2.07,3.42 L2.07,12.1 C2.08074211,12.8410893 2.67891072,13.4392579 3.42,13.45 C3.55526041,13.45 3.68498091,13.503732 3.78062446,13.5993755 C3.87626801,13.6950191 3.93,13.8247396 3.93,13.96 L3.93,13.96 L3.93,15.21 L5.54,13.6 C5.63336473,13.5013063 5.76417962,13.4468001 5.9,13.45 L14.58,13.45 C15.3210893,13.4392579 15.9192579,12.8410893 15.93,12.1 L15.93,3.42 C15.9192579,2.67891072 15.3210893,2.08074211 14.58,2.07 L3.42,2.12 Z" id="Shape" fill="#71757B" fill-rule="nonzero"></path>
                    </g>
                </g>
            </g>
        </g>
    </g>
</svg>