<?xml version="1.0" encoding="UTF-8"?>
<svg width="16px" height="16px" viewBox="0 0 16 16" version="1.1" xmlns="http://www.w3.org/2000/svg" xmlns:xlink="http://www.w3.org/1999/xlink">
    <!-- Generator: sketchtool 63.1 (101010) - https://sketch.com -->
    <title>75738A82-06E8-4FD9-89C2-5476A99E9B0E@1.5x</title>
    <desc>Created with sketchtool.</desc>
    <g id="Page-1" stroke="none" stroke-width="1" fill="none" fill-rule="evenodd">
        <g id="001_Login_FD" transform="translate(-848.000000, -475.000000)">
            <g id="Login-block" transform="translate(523.000000, 219.000000)">
                <g id="hide" transform="translate(324.000000, 255.000000)">
                    <rect id="Rectangle" x="0" y="0" width="18" height="18"></rect>
                    <path d="M7.76,11.36 L8.28,10.36 C7.35733617,9.98187873 6.82288877,9.01187867 6.99617674,8.02991354 C7.1694647,7.04794841 8.00364349,6.31947062 9,6.28 C9.45742074,6.28965841 9.90080113,6.43977933 10.27,6.71 L10.79,5.71 C9.76958199,5.0064152 8.43590733,4.95098291 7.36062271,5.56746281 C6.28533809,6.18394272 5.65935171,7.36288372 5.75097717,8.5989619 C5.84260264,9.83504008 6.63557257,10.9087996 7.79,11.36 L7.76,11.36 Z" id="Path" fill="#71757B" fill-rule="nonzero"></path>
                    <path d="M11.11,8.31 L11.11,8.4 C11.1194018,9.13752054 10.7393641,9.82538878 10.11,10.21 L9.37,11.58 C10.9877978,11.396835 12.21016,10.0281336 12.21,8.4 C12.1973073,7.91212905 12.0742253,7.43347684 11.85,7 L11.11,8.31 Z" id="Path" fill="#71757B" fill-rule="nonzero"></path>
                    <path d="M6.23,16.2600087 C6.14940077,16.2604956 6.07008608,16.2398048 6,16.2 C5.8820165,16.1403154 5.79316083,16.0354832 5.75361544,15.9093146 C5.71407006,15.783146 5.72719172,15.6463507 5.79,15.53 L5.79,15.53 L13.1,2 C13.2325483,1.75699471 13.5369947,1.66745166 13.78,1.8 C14.0230053,1.93254834 14.1125483,2.23699471 13.98,2.48 L6.67,16 C6.58047285,16.1592041 6.41264288,16.2583764 6.23,16.2600087 Z" id="Path" fill="#71757B" fill-rule="nonzero"></path>
                    <path d="M7.36,12.09 C5.40233243,11.3226722 3.67885732,10.0576415 2.36,8.42 C3.13,7.49 5.87,4.42 9.02,4.42 C9.78756905,4.43264205 10.5452049,4.59572062 11.25,4.9 L11.74,4 C10.8772233,3.61374535 9.94515217,3.40624047 9,3.39 C4.72,3.39 1.39,7.9 1.24,8.09 C1.12027205,8.27932621 1.12027205,8.52067379 1.24,8.71 C2.68310725,10.6255152 4.62329563,12.1091887 6.85,13 L7.36,12.09 Z" id="Path" fill="#71757B" fill-rule="nonzero"></path>
                    <path d="M16.75,8.09 C15.7179454,6.75906402 14.4707766,5.60991116 13.06,4.69 L12.56,5.63 C13.7166363,6.39756402 14.7572271,7.32702378 15.65,8.39 C14.89,9.32 12.15,12.39 9,12.39 L8.93,12.39 L8.37,13.39 C8.57973746,13.4048504 8.79026254,13.4048504 9,13.39 C13.34,13.39 16.71,8.73 16.74,8.69 C16.8643816,8.51043141 16.8683286,8.27361376 16.75,8.09 Z" id="Path" fill="#71757B" fill-rule="nonzero"></path>
                </g>
            </g>
        </g>
    </g>
</svg>