<?xml version="1.0" encoding="UTF-8"?>
<svg width="16px" height="16px" viewBox="0 0 16 16" version="1.1" xmlns="http://www.w3.org/2000/svg" xmlns:xlink="http://www.w3.org/1999/xlink">
    <!-- Generator: sketchtool 63.1 (101010) - https://sketch.com -->
    <title>86F70A3F-D912-4E97-B0A7-649CB1AF9445@1.5x</title>
    <desc>Created with sketchtool.</desc>
    <g id="Page-1" stroke="none" stroke-width="1" fill="none" fill-rule="evenodd">
        <g id="41_admin_userFilter" transform="translate(-921.000000, -110.000000)">
            <g id="filter" transform="translate(912.000000, 98.000000)">
                <g id="filter_1" transform="translate(8.000000, 11.000000)">
                    <rect id="Rectangle" x="0" y="0" width="18" height="18"></rect>
                    <rect id="Rectangle" x="0" y="0" width="18" height="18"></rect>
                    <path d="M7.53,17.0000687 C7.33115465,16.9998249 7.14051736,16.9206925 7,16.78 C6.85411603,16.6380611 6.77126302,16.4435367 6.77,16.24 L6.77,10.31 C6.77221844,10.0175445 6.67724804,9.73263331 6.5,9.5 L1.34,2.22 C1.16692298,1.98035815 1.14631604,1.66278769 1.28697165,1.40278794 C1.42762725,1.14278819 1.70471169,0.986263882 2,1 L16,1 C16.2881067,1.00179945 16.5511052,1.16428871 16.6816344,1.4211366 C16.8121637,1.67798448 16.788383,1.98621399 16.62,2.22 L11.5,9.49 C11.3239807,9.72709267 11.2292769,10.0147116 11.23,10.31 L11.23,15.12 C11.2373146,15.446187 11.0301363,15.7386741 10.72,15.84 L7.83,16.94 C7.73536057,16.9809656 7.63311547,17.0014146 7.53,17.0000687 Z M7.31,8.9 C7.61705009,9.30574211 7.7821948,9.80117626 7.78,10.31 L7.78,15.89 L10.22,15 L10.22,10.31 C10.2178052,9.80117626 10.3829499,9.30574211 10.69,8.9 L15.58,2 L2.42,2 L7.31,8.9 Z" id="Shape" fill="#71757B" fill-rule="nonzero"></path>
                </g>
            </g>
        </g>
    </g>
</svg>