<?xml version="1.0" encoding="UTF-8"?>
<svg width="20px" height="20px" viewBox="0 0 20 20" version="1.1" xmlns="http://www.w3.org/2000/svg" xmlns:xlink="http://www.w3.org/1999/xlink">
    <!-- Generator: sketchtool 63.1 (101010) - https://sketch.com -->
    <title>49019DB4-3522-4B6B-9D8E-6A7497BC5D26</title>
    <desc>Created with sketchtool.</desc>
    <g id="Page-1" stroke="none" stroke-width="1" fill="none" fill-rule="evenodd">
        <g id="07_manageEmployee" transform="translate(-1314.000000, -197.000000)">
            <g id="Group-5" transform="translate(113.000000, 181.040609)">
                <g id="Group-2">
                    <g id="edit_24" transform="translate(1199.000000, 13.959391)">
                        <g>
                            <rect id="Rectangle" x="0" y="0" width="24" height="24"></rect>
                            <path d="M4.61,21.55 C3.19164684,21.5503748 2.03260577,20.4179784 2,19 L2,6.86 C2,5.4185368 3.1685368,4.25 4.61,4.25 L8.73,4.25 C9.14421356,4.25 9.48,4.58578644 9.48,5 C9.48,5.41421356 9.14421356,5.75 8.73,5.75 L4.61,5.75 C3.99696393,5.75 3.5,6.24696393 3.5,6.86 L3.5,19 C3.50548786,19.6091272 4.00084803,20.1000247 4.61,20.1 L17.61,20.1 C17.9043939,20.1026641 18.1877872,19.9882655 18.3978305,19.7819729 C18.6078739,19.5756803 18.7273597,19.2943941 18.73,19 L18.73,14.83 C18.73,14.4157864 19.0657864,14.08 19.48,14.08 C19.8942136,14.08 20.23,14.4157864 20.23,14.83 L20.23,19 C20.2244921,20.4375564 19.057567,21.6 17.62,21.6 L4.61,21.55 Z" id="Path" fill="#71757B" fill-rule="nonzero"></path>
                            <path d="M7.77,16.63 C7.53626047,16.6291149 7.31629698,16.5193045 7.1751128,16.3330198 C7.03392862,16.1467351 6.98766733,15.9052767 7.05,15.68 L8.13,11.75 C8.17080933,11.6262706 8.2391973,11.5134304 8.33,11.42 L16.6,3.14 C17.5310231,2.21988235 19.0289769,2.21988235 19.96,3.14 L20.5,3.69 C21.424419,4.61534938 21.424419,6.11465062 20.5,7.04 L12.22,15.32 C12.1287462,15.4114128 12.014872,15.4769768 11.89,15.51 L8,16.6 C7.92557541,16.6229067 7.84781024,16.63305 7.77,16.63 L7.77,16.63 Z M8.85,14.8 L10.3,14.4 L9.25,13.35 L8.85,14.8 Z M11.73,13.7 L18.1,7.33 L16.32,5.55 L10,11.92 L11.73,13.7 Z M19.16,6.27 L19.44,6 C19.6061238,5.83646775 19.6996722,5.61310927 19.6996722,5.38 C19.6996722,5.14689073 19.6061238,4.92353225 19.44,4.76 L18.9,4.2 C18.558063,3.86589912 18.011937,3.86589912 17.67,4.2 L17.38,4.49 L19.16,6.27 Z" id="Shape" fill="#71757B" fill-rule="nonzero"></path>
                        </g>
                    </g>
                </g>
            </g>
        </g>
    </g>
</svg>