<svg width="24" height="24" viewBox="0 0 24 24" fill="none" xmlns="http://www.w3.org/2000/svg">
<path d="M21.2912 3.34922C21.1189 3.1779 20.8987 3.0629 20.6597 3.0194C20.4206 2.9759 20.174 3.00595 19.9524 3.1056L2.71425 10.7677C2.50543 10.8626 2.32763 11.0145 2.20133 11.206C2.07502 11.3974 2.00534 11.6207 2.00029 11.85C1.99525 12.0793 2.05505 12.3054 2.17281 12.5022C2.29058 12.699 2.46152 12.8586 2.66597 12.9626L7.19608 15.2342V19.7907C7.19296 20.0475 7.2732 20.2984 7.42477 20.5058C7.57633 20.7131 7.79105 20.8657 8.0367 20.9407C8.15881 20.9795 8.2861 20.9995 8.41421 21C8.60612 20.9999 8.79511 20.953 8.96489 20.8636C9.13466 20.7741 9.28012 20.6446 9.38871 20.4864L11.5616 17.4137L13.7169 18.4913C13.9489 18.6061 14.2043 18.6655 14.4631 18.6647C14.6578 18.6651 14.8511 18.6309 15.0338 18.5637C15.2465 18.4856 15.4411 18.3649 15.6056 18.209C15.7701 18.0532 15.9012 17.8655 15.9907 17.6573L21.5524 4.68367C21.6489 4.46092 21.6756 4.21414 21.629 3.97591C21.5823 3.73767 21.4646 3.51917 21.2912 3.34922ZM3.08957 11.8761C3.09141 11.8549 3.09917 11.8345 3.11197 11.8175C3.12477 11.8004 3.1421 11.7873 3.162 11.7795L19.1118 4.67709L7.66797 14.2443L3.15541 11.999C3.13263 11.9884 3.1139 11.9707 3.10203 11.9485C3.09016 11.9264 3.08579 11.901 3.08957 11.8761ZM8.49323 19.8521C8.47993 19.8712 8.46092 19.8855 8.43895 19.8931C8.41697 19.9006 8.39317 19.901 8.37096 19.8942C8.34874 19.8874 8.32928 19.8737 8.31536 19.855C8.30143 19.8364 8.29378 19.8139 8.2935 19.7907V15.7829L10.5695 16.9198L8.49323 19.8521ZM14.9811 17.2183C14.9512 17.2895 14.9069 17.3537 14.8511 17.407C14.7952 17.4603 14.729 17.5016 14.6565 17.5281C14.584 17.5547 14.5068 17.566 14.4297 17.5615C14.3527 17.5569 14.2774 17.5364 14.2085 17.5014L8.73905 14.7777L20.0995 5.28506L14.9811 17.2183Z" fill="#54595F" stroke="#54595F" stroke-width="0.3"/>
</svg>
