<?xml version="1.0" encoding="UTF-8"?>
<svg width="24px" height="24px" viewBox="0 0 24 24" version="1.1" xmlns="http://www.w3.org/2000/svg" xmlns:xlink="http://www.w3.org/1999/xlink">
    <title>88F16272-203B-4957-A597-C8DD605A265F</title>
    <g id="Global-Search" stroke="none" stroke-width="1" fill="none" fill-rule="evenodd">
        <g id="40" transform="translate(-1001.000000, -213.000000)">
            <g id="Suspicious-Activity" transform="translate(407.000000, 187.000000)">
                <g id="grid_view_24" transform="translate(594.000000, 26.000000)">
                    <rect id="Rectangle" x="0" y="0" width="24" height="24"></rect>
                    <path d="M20.25,2 L3.75,2 C2.78577367,2.00546317 2.00546317,2.78577367 2,3.75 L2,20.25 C2.00546317,21.2142263 2.78577367,21.9945368 3.75,22 L20.25,22 C21.2142263,21.9945368 21.9945368,21.2142263 22,20.25 L22,3.75 C21.9945368,2.78577367 21.2142263,2.00546317 20.25,2 Z M20.5,3.75 L20.5,11.25 L12.75,11.25 L12.75,3.5 L20.25,3.5 C20.3880712,3.5 20.5,3.61192881 20.5,3.75 Z M3.75,3.5 L11.25,3.5 L11.25,11.25 L3.5,11.25 L3.5,3.75 C3.5,3.61192881 3.61192881,3.5 3.75,3.5 Z M3.5,20.25 L3.5,12.75 L11.25,12.75 L11.25,20.5 L3.75,20.5 C3.61192881,20.5 3.5,20.3880712 3.5,20.25 Z M20.25,20.5 L12.75,20.5 L12.75,12.75 L20.5,12.75 L20.5,20.25 C20.5,20.3880712 20.3880712,20.5 20.25,20.5 Z" id="Shape" fill="#71757B" fill-rule="nonzero"></path>
                </g>
            </g>
        </g>
    </g>
</svg>