<svg width="18" height="18" viewBox="0 0 18 18" fill="none" xmlns="http://www.w3.org/2000/svg">
<circle cx="9" cy="9" r="9" fill="#2B8000"/>
<path d="M3.39631 7.57014C3.22795 7.35127 2.91402 7.31032 2.69514 7.47869C2.47627 7.64705 2.43532 7.96098 2.60369 8.17986L3.39631 7.57014ZM6.75 12.75L6.35369 13.0549C6.43889 13.1656 6.56655 13.2357 6.70574 13.248C6.84493 13.2604 6.98294 13.214 7.08634 13.12L6.75 12.75ZM15.3363 5.61997C15.5407 5.43422 15.5557 5.11799 15.37 4.91366C15.1842 4.70933 14.868 4.69428 14.6637 4.88003L15.3363 5.61997ZM2.60369 8.17986L6.35369 13.0549L7.14631 12.4451L3.39631 7.57014L2.60369 8.17986ZM7.08634 13.12L15.3363 5.61997L14.6637 4.88003L6.41366 12.38L7.08634 13.12Z" fill="white"/>
</svg>
