<svg id="Layer_1" data-name="Layer 1" xmlns="http://www.w3.org/2000/svg" viewBox="0 0 18 18"><defs><style>.cls-1{fill:none;}.cls-2{fill:#54595f;}</style></defs><rect class="cls-1" width="18" height="18"/><path class="cls-2" d="M7.76,11.36l.52-1A2.12,2.12,0,0,1,9,6.28a2.16,2.16,0,0,1,1.27.43l.52-1a3.2,3.2,0,0,0-5,2.66A3.2,3.2,0,0,0,7.76,11.36Z"/><path class="cls-2" d="M11.11,8.31s0,.06,0,.09a2.11,2.11,0,0,1-1,1.81l-.74,1.37A3.21,3.21,0,0,0,12.21,8.4,3.24,3.24,0,0,0,11.85,7Z"/><path class="cls-2" d="M6.23,16.26A.46.46,0,0,1,6,16.2a.5.5,0,0,1-.21-.68L13.1,2a.5.5,0,0,1,.88.48L6.67,16A.49.49,0,0,1,6.23,16.26Z"/><path class="cls-2" d="M7.36,12.09a12.13,12.13,0,0,1-5-3.67c.77-.93,3.51-4,6.66-4a5.83,5.83,0,0,1,2.23.48L11.74,4A7,7,0,0,0,9,3.39c-4.28,0-7.61,4.51-7.76,4.7a.56.56,0,0,0,0,.62A13.18,13.18,0,0,0,6.85,13Z"/><path class="cls-2" d="M16.75,8.09a14.77,14.77,0,0,0-3.69-3.4l-.5.94a14.62,14.62,0,0,1,3.09,2.76c-.76.93-3.5,4-6.65,4H8.93l-.56,1a4.46,4.46,0,0,0,.63.05c4.34,0,7.71-4.66,7.74-4.7A.54.54,0,0,0,16.75,8.09Z"/></svg>