<svg width="22" height="22" viewBox="0 0 22 22" fill="none" xmlns="http://www.w3.org/2000/svg">
<path fill-rule="evenodd" clip-rule="evenodd" d="M11 21C5.48609 21 1 16.5139 1 11C1 5.48609 5.48609 1 11 1C16.5139 1 21 5.48609 21 11C21 16.5139 16.5139 21 11 21ZM11 2C6.03714 2 2 6.03714 2 11C2 15.9629 6.03714 20 11 20C15.9629 20 20 15.9629 20 11C20 6.03714 15.9629 2 11 2ZM11.1836 10.5837L18.2638 14.8276C18.6985 15.0882 18.917 15.521 18.7572 15.7977L18.9193 15.5171C18.7618 15.7898 18.2695 15.8226 17.8247 15.5816C17.8247 15.5816 13.2596 13.1166 10.6059 11.5844C8.34396 10.2785 3.53463 7.32956 3.53463 7.32956C3.09331 7.05976 2.8824 6.62708 3.04213 6.35042L2.88011 6.63104C3.03758 6.35831 3.5265 6.32857 3.96708 6.5734L11.1836 10.5837Z" fill="#4B286D"/>
<path d="M11.1836 10.5837L11.3122 10.3691L11.3051 10.3652L11.1836 10.5837ZM18.2638 14.8276L18.1353 15.042L18.2638 14.8276ZM17.8247 15.5816L17.9438 15.3618L17.9435 15.3616L17.8247 15.5816ZM3.53463 7.32956L3.66531 7.11643L3.66503 7.11626L3.53463 7.32956ZM3.96708 6.5734L3.84564 6.79193L3.96708 6.5734ZM11 20.75C5.62416 20.75 1.25 16.3758 1.25 11H0.75C0.75 16.652 5.34802 21.25 11 21.25V20.75ZM1.25 11C1.25 5.62416 5.62416 1.25 11 1.25V0.75C5.34802 0.75 0.75 5.34802 0.75 11H1.25ZM11 1.25C16.3758 1.25 20.75 5.62416 20.75 11H21.25C21.25 5.34802 16.652 0.75 11 0.75V1.25ZM20.75 11C20.75 16.3758 16.3758 20.75 11 20.75V21.25C16.652 21.25 21.25 16.652 21.25 11H20.75ZM11 1.75C5.89907 1.75 1.75 5.89907 1.75 11H2.25C2.25 6.17521 6.17522 2.25 11 2.25V1.75ZM1.75 11C1.75 16.1009 5.89907 20.25 11 20.25V19.75C6.17522 19.75 2.25 15.8248 2.25 11H1.75ZM11 20.25C16.1009 20.25 20.25 16.1009 20.25 11H19.75C19.75 15.8248 15.8248 19.75 11 19.75V20.25ZM20.25 11C20.25 5.89907 16.1009 1.75 11 1.75V2.25C15.8248 2.25 19.75 6.17521 19.75 11H20.25ZM11.0551 10.7981L18.1353 15.042L18.3923 14.6132L11.3122 10.3693L11.0551 10.7981ZM18.1353 15.042C18.3184 15.1518 18.4458 15.2923 18.5105 15.4197C18.5769 15.5505 18.5636 15.6331 18.5407 15.6727L18.9738 15.9227C19.1106 15.6856 19.068 15.4134 18.9564 15.1935C18.843 14.9701 18.6439 14.764 18.3923 14.6132L18.1353 15.042ZM18.9738 15.9227L19.1358 15.6421L18.7028 15.3921L18.5407 15.6727L18.9738 15.9227ZM18.7028 15.3921C18.6816 15.4288 18.6159 15.4832 18.4644 15.4925C18.3184 15.5014 18.1303 15.4629 17.9438 15.3618L17.7056 15.8014C17.9638 15.9414 18.2443 16.0069 18.495 15.9915C18.7402 15.9765 18.9995 15.8781 19.1358 15.6421L18.7028 15.3921ZM17.8247 15.5816C17.9435 15.3616 17.9435 15.3616 17.9434 15.3616C17.9434 15.3616 17.9433 15.3616 17.9433 15.3615C17.9431 15.3614 17.9429 15.3613 17.9427 15.3612C17.9421 15.3609 17.9413 15.3604 17.9402 15.3598C17.938 15.3587 17.9347 15.3569 17.9304 15.3545C17.9217 15.3498 17.9087 15.3428 17.8917 15.3336C17.8576 15.3152 17.8073 15.288 17.7424 15.2528C17.6125 15.1825 17.4239 15.0803 17.1893 14.9528C16.72 14.6979 16.0668 14.3421 15.3306 13.9384C13.8578 13.1307 12.0552 12.1325 10.7309 11.3679L10.4809 11.801C11.8103 12.5685 13.6171 13.5689 15.0902 14.3768C15.8271 14.7809 16.4809 15.137 16.9506 15.3922C17.1854 15.5198 17.3742 15.6221 17.5043 15.6925C17.5694 15.7278 17.6197 15.755 17.6539 15.7735C17.6709 15.7827 17.6839 15.7897 17.6927 15.7944C17.697 15.7968 17.7003 15.7986 17.7026 15.7998C17.7037 15.8004 17.7045 15.8008 17.7051 15.8011C17.7053 15.8013 17.7055 15.8014 17.7057 15.8015C17.7058 15.8015 17.7058 15.8015 17.7058 15.8015C17.7059 15.8016 17.7059 15.8016 17.8247 15.5816ZM10.7309 11.3679C9.60254 10.7165 7.83689 9.6541 6.35165 8.75352C5.60939 8.30344 4.93777 7.89415 4.45171 7.59737C4.20868 7.44898 4.01206 7.32873 3.8762 7.24559C3.80827 7.20402 3.75554 7.17172 3.71979 7.14982C3.70192 7.13887 3.68829 7.13052 3.67914 7.12491C3.67456 7.1221 3.6711 7.11998 3.66879 7.11856C3.66763 7.11786 3.66676 7.11732 3.66618 7.11697C3.66589 7.11679 3.66567 7.11665 3.66553 7.11657C3.66546 7.11652 3.6654 7.11649 3.66537 7.11647C3.66533 7.11644 3.66531 7.11643 3.53463 7.32956C3.40395 7.54268 3.40397 7.54269 3.40401 7.54272C3.40404 7.54274 3.4041 7.54277 3.40417 7.54282C3.40432 7.54291 3.40454 7.54305 3.40484 7.54323C3.40542 7.54359 3.4063 7.54412 3.40746 7.54484C3.40979 7.54626 3.41326 7.54839 3.41786 7.55121C3.42704 7.55684 3.44069 7.5652 3.4586 7.57617C3.4944 7.59811 3.5472 7.63044 3.6152 7.67206C3.75119 7.75528 3.94796 7.87563 4.19115 8.02411C4.67752 8.32108 5.3496 8.73065 6.09241 9.18106C7.57731 10.0814 9.34727 11.1465 10.4809 11.801L10.7309 11.3679ZM3.66503 7.11626C3.47776 7.00178 3.3505 6.85903 3.28675 6.73108C3.22156 6.60023 3.23484 6.51664 3.25864 6.47542L2.82563 6.22542C2.68969 6.46086 2.72856 6.73195 2.83922 6.95405C2.95132 7.17905 3.15018 7.38754 3.40423 7.54286L3.66503 7.11626ZM2.82563 6.22542L2.66361 6.50604L3.09662 6.75604L3.25864 6.47542L2.82563 6.22542ZM3.09662 6.75604C3.11772 6.7195 3.18219 6.66602 3.33127 6.65775C3.47525 6.64977 3.66114 6.68939 3.84564 6.79193L4.08852 6.35488C3.83244 6.21257 3.55358 6.14465 3.30359 6.15852C3.0587 6.1721 2.79997 6.26985 2.66361 6.50604L3.09662 6.75604ZM3.84564 6.79193L11.0622 10.8022L11.3051 10.3652L4.08852 6.35488L3.84564 6.79193Z" fill="#4B286D"/>
</svg>
