<?xml version="1.0" encoding="UTF-8"?>
<svg width="32px" height="24px" viewBox="0 0 32 24" version="1.1" xmlns="http://www.w3.org/2000/svg" xmlns:xlink="http://www.w3.org/1999/xlink">
    <!-- Generator: sketchtool 63.1 (101010) - https://sketch.com -->
    <title>583CA57F-3CFF-45B8-871D-19C80B2DF6ED@1.5x</title>
    <desc>Created with sketchtool.</desc>
    <g id="Page-1" stroke="none" stroke-width="1" fill="none" fill-rule="evenodd">
        <g id="006" transform="translate(-705.000000, -244.000000)">
            <g id="Group-21" transform="translate(401.000000, 140.000000)">
                <g id="add_image" transform="translate(304.000000, 100.000000)">
                    <rect id="Rectangle" x="0" y="0" width="32" height="32"></rect>
                    <path d="M26,27.17 C24.3876203,27.1677815 22.863934,26.4317012 21.86,25.17 L21.8,25.1 L1.53,25.1 C1.07385858,25.0946013 0.705398688,24.7261414 0.7,24.27 L0.7,5.67 C0.7,5.20995816 1.06999076,4.83547669 1.53,4.83 L27.71,4.83 C28.1700092,4.83547669 28.5400326,5.20995816 28.54,5.67 L28.54,17.2 L28.64,17.26 C30.7204314,18.4596539 31.7367145,20.9063132 31.118512,23.2269144 C30.5003095,25.5475156 28.401527,27.164329 26,27.17 Z M26,17.5199884 C24.2437295,17.5159533 22.6581415,18.5707908 21.98324,20.1922131 C21.3083386,21.8136354 21.6771781,23.6819846 22.917619,24.9252903 C24.1580599,26.1685959 26.0255533,26.5417444 27.6485281,25.870585 C29.271503,25.1994256 30.33,23.6162752 30.33,21.86 C30.33,19.466984 28.3930096,17.5255139 26,17.5199884 L26,17.5199884 Z M1.68,20 L1.68,24.09 L21.17,24.09 L21.06,23.82 C20.0873631,21.3771881 21.0376802,18.5898739 23.3,17.25 L23.53,17.12 L19.12,12.9 L12.91,19.77 C12.8166353,19.8686937 12.6858204,19.9231999 12.55,19.92 L12.55,19.92 C12.4370787,19.9201487 12.3275716,19.8812913 12.24,19.81 L7.24,15.59 L1.68,20 Z M1.68,18.74 L7,14.57 C7.08808451,14.5092757 7.19303534,14.4777905 7.3,14.48 C7.41620921,14.4783617 7.52935936,14.517257 7.62,14.59 L12.55,18.76 L18.78,11.88 C18.8628002,11.7773489 18.9881271,11.7183715 19.12,11.72 C19.2551661,11.7257289 19.3848978,11.7748166 19.49,11.86 L24.57,16.75 L24.68,16.75 C25.1090348,16.6230682 25.5527564,16.5524761 26,16.54 C26.4492162,16.5427416 26.8962152,16.6032377 27.33,16.72 L27.58,16.79 L27.58,5.79 L1.68,5.79 L1.68,18.74 Z M25.99,24.74 C25.8609724,24.7426887 25.7362977,24.6933068 25.6441057,24.6029963 C25.5519137,24.5126858 25.499972,24.3890556 25.5,24.26 L25.5,22.34 L23.58,22.34 C23.3038576,22.34 23.08,22.1161424 23.08,21.84 C23.08,21.5638576 23.3038576,21.34 23.58,21.34 L25.5,21.34 L25.5,19.44 C25.5,19.1638576 25.7238576,18.94 26,18.94 C26.2761424,18.94 26.5,19.1638576 26.5,19.44 L26.5,21.37 L28.4,21.37 C28.6761424,21.37 28.9,21.5938576 28.9,21.87 C28.9,22.1461424 28.6761424,22.37 28.4,22.37 L26.48,22.37 L26.48,24.3 C26.4641374,24.5533139 26.2538096,24.7504962 26,24.7500009 L25.99,24.74 Z M11.52,13.39 C10.106151,13.39 8.96,12.243849 8.96,10.83 C8.96,9.41615104 10.106151,8.27 11.52,8.27 C12.933849,8.27 14.08,9.41615104 14.08,10.83 C14.08,12.243849 12.933849,13.39 11.52,13.39 Z M11.52,9.26 C10.8800424,9.26001282 10.3032945,9.64605843 10.059338,10.2376926 C9.81538159,10.8293267 9.95240267,11.5096903 10.4063553,11.9607698 C10.8603079,12.4118493 11.5415278,12.5445479 12.1316011,12.29684 C12.7216744,12.0491321 13.1040504,11.4699448 13.1,10.83 C13.1027202,10.4110427 12.9368049,10.0086003 12.6396121,9.7132885 C12.3424192,9.41797666 11.9389316,9.25461981 11.52,9.26 L11.52,9.26 Z" id="Shape" fill="#D8D8D8" fill-rule="nonzero"></path>
                </g>
            </g>
        </g>
    </g>
</svg>