<?xml version="1.0" encoding="UTF-8"?>
<svg width="14px" height="14px" viewBox="0 0 14 14" version="1.1" xmlns="http://www.w3.org/2000/svg" xmlns:xlink="http://www.w3.org/1999/xlink">
    <!-- Generator: sketchtool 63.1 (101010) - https://sketch.com -->
    <title>91DB77D4-4CC6-4E01-86C4-9C454CDD8CD9</title>
    <desc>Created with sketchtool.</desc>
    <g id="Page-1" stroke="none" stroke-width="1" fill="none" fill-rule="evenodd" opacity="0.300000012">
        <g id="02_dashboardTooltip" transform="translate(-646.000000, -224.000000)">
            <g id="Total-Unnique-login" transform="translate(113.000000, 153.000000)">
                <g id="information_24" transform="translate(528.000000, 66.000000)">
                    <g>
                        <rect id="Rectangle" x="0" y="0" width="24" height="24"></rect>
                        <path d="M12,18.5 C8.41014913,18.5 5.5,15.5898509 5.5,12 C5.5,8.41014913 8.41014913,5.5 12,5.5 C15.5898509,5.5 18.5,8.41014913 18.5,12 C18.4944934,15.5875675 15.5875675,18.4944934 12,18.5 L12,18.5 Z M12,6.67 C9.05632228,6.67 6.67,9.05632228 6.67,12 C6.67,14.9436777 9.05632228,17.33 12,17.33 C14.9436777,17.33 17.33,14.9436777 17.33,12 C17.33,9.05632228 14.9436777,6.67 12,6.67 Z" id="Shape" fill="#71757B" fill-rule="nonzero"></path>
                        <path d="M12,15.63 C11.6796748,15.63 11.42,15.3703252 11.42,15.05 L11.42,10.87 C11.42,10.5496748 11.6796748,10.29 12,10.29 C12.3203252,10.29 12.58,10.5496748 12.58,10.87 L12.58,15.05 C12.58,15.3703252 12.3203252,15.63 12,15.63 Z" id="Path" fill="#71757B" fill-rule="nonzero"></path>
                        <path d="M12,10 C11.6410149,10 11.35,9.70898509 11.35,9.35 C11.35,8.99101491 11.6410149,8.7 12,8.7 C12.3589851,8.7 12.65,8.99101491 12.65,9.35 C12.65,9.70898509 12.3589851,10 12,10 Z" id="Path" fill="#71757B" fill-rule="nonzero"></path>
                    </g>
                </g>
            </g>
        </g>
    </g>
</svg>