<?xml version="1.0" encoding="UTF-8"?>
<svg width="24px" height="25px" viewBox="0 0 24 25" version="1.1" xmlns="http://www.w3.org/2000/svg" xmlns:xlink="http://www.w3.org/1999/xlink">
    <title>59EE4835-C09D-4037-BB71-1A9C981D67B2</title>
    <g id="Phase-4_Manager" stroke="none" stroke-width="1" fill="none" fill-rule="evenodd">
        <g id="100_nnotification" transform="translate(-973.000000, -135.000000)">
            <g id="Group-35" transform="translate(949.000000, 62.000000)">
                <g id="information_24_1" transform="translate(24.000000, 73.071068)">
                    <rect id="Rectangle" x="0" y="0" width="24" height="24"></rect>
                    <path d="M12,2 C6.4771525,2 2,6.4771525 2,12 C2,17.5228475 6.4771525,22 12,22 C17.5228475,22 22,17.5228475 22,12 C22,9.3478351 20.9464316,6.80429597 19.0710678,4.92893219 C17.195704,3.0535684 14.6521649,2 12,2 Z M12.65,17.93 C12.18,18.01 11.23,18.21 10.75,18.25 C10.3477096,18.2570307 9.97002848,18.0568598 9.75,17.72 C9.51277435,17.3851087 9.45661274,16.9545364 9.6,16.57 L11.49,11.38 L9.49,11.38 C9.53842159,10.3148358 10.2979109,9.4157647 11.34,9.19 C11.9552373,8.99628462 12.5950959,8.89188662 13.24,8.88 C13.6320353,8.9116285 13.9937366,9.10333015 14.24,9.41 C14.4771636,9.74113607 14.5334332,10.1687854 14.39,10.55 L12.5,15.75 L14.5000148,15.75 C14.5039464,16.8329571 13.7191727,17.7577174 12.65,17.93 L12.65,17.93 Z M13.25,8.25 C12.5596441,8.25 12,7.69035594 12,7 C12,6.30964406 12.5596441,5.75 13.25,5.75 C13.9403559,5.75 14.5,6.30964406 14.5,7 C14.5,7.69035594 13.9403559,8.25 13.25,8.25 L13.25,8.25 Z" id="Shape" fill="#4B286D" fill-rule="nonzero"></path>
                </g>
            </g>
        </g>
    </g>
</svg>