<svg id="Layer_1" data-name="Layer 1" xmlns="http://www.w3.org/2000/svg" viewBox="0 0 48 48.05"><defs><style>.cls-1{fill:#4b286d;}.cls-2{fill:#6c0;}.cls-3{fill:none;}</style></defs><path class="cls-1" d="M39.9,16.71,26,19.47v1h0c9.18-2.23,13.85-3.57,13.88-3.58s.08-.06.07-.09a.09.09,0,0,0-.1-.05"/><path class="cls-2" d="M28.24,17.48c.22-.14.28-.05.21.1s-.57,1.76-4.07,4.63a20.87,20.87,0,0,1-2.87,1.94,30.06,30.06,0,0,1,6.73-6.67m.36-1A6.88,6.88,0,0,0,26,18.08a32.77,32.77,0,0,0-6.24,6.81A76.1,76.1,0,0,1,8.84,29.56l-.09,0-.75,2,.43-.17A103,103,0,0,0,18.8,26.75a4.47,4.47,0,0,0-.32,1.55,2.59,2.59,0,0,0,.18,1A2.32,2.32,0,0,0,20,30.58a5.86,5.86,0,0,0,3.77-.06c3.82-1.16,8.35-4.71,9.34-5.42l0,0a.08.08,0,0,0,0-.1.08.08,0,0,0-.11,0h0l0,0c-1.06.64-6.2,3.69-9.55,4.59-1.7.45-3,.2-3.49-.48a1.47,1.47,0,0,1-.25-.88,4.85,4.85,0,0,1,.93-2.48c.56-.32,1.09-.63,1.56-.93,3.26-1.83,7-5.4,7.18-7.57v-.05a.73.73,0,0,0-.23-.52A.75.75,0,0,0,28.6,16.44Z"/><polyline class="cls-1" points="25.96 19.48 11.35 22.62 10.79 24.14 26.01 20.44 26.03 20.43 26.03 19.47 25.96 19.48"/><rect class="cls-3" y="-0.01" width="48" height="48"/></svg>