<svg width="160" height="160" viewBox="0 0 160 160" fill="none" xmlns="http://www.w3.org/2000/svg">
<circle cx="80" cy="80" r="80" fill="#F7F7F8"/>
<g clip-path="url(#clip0)">
<path d="M90.5768 35.6105L35.8523 47.3524L52.0758 122.964L106.8 111.222L90.5768 35.6105Z" fill="#E0E0E0"/>
<g opacity="0.5">
<path opacity="0.5" d="M89.927 37.0874L37.052 48.4325L52.7271 121.488L105.602 110.143L89.927 37.0874Z" fill="url(#paint0_linear)"/>
</g>
<path d="M89.3688 37.7696L37.8398 48.8258L53.1687 120.267L104.698 109.211L89.3688 37.7696Z" fill="#FAFAFA"/>
<path d="M75.7886 37.4436L50.2258 42.9285L51.5545 49.1207L77.1173 43.6358L75.7886 37.4436Z" fill="url(#paint1_linear)"/>
<path d="M61.7088 34.1381C59.7352 34.562 58.4865 36.5433 58.9207 38.563C59.3548 40.5827 61.3054 41.8787 63.2751 41.4548C65.2449 41.0309 66.4974 39.0496 66.0632 37.0299C65.6291 35.0102 63.6824 33.7142 61.7088 34.1381ZM62.9473 39.9141C62.5301 40.0136 62.0929 39.9866 61.6911 39.8367C61.2894 39.6867 60.9414 39.4205 60.6915 39.072C60.4417 38.7235 60.3012 38.3085 60.2881 37.8799C60.2749 37.4513 60.3897 37.0285 60.6177 36.6654C60.8458 36.3022 61.1768 36.0152 61.5686 35.8409C61.9603 35.6666 62.3952 35.6129 62.8176 35.6866C63.24 35.7603 63.6309 35.9581 63.9405 36.2549C64.2501 36.5516 64.4643 36.9338 64.5558 37.3527C64.6191 37.6265 64.6276 37.9102 64.5809 38.1873C64.5343 38.4645 64.4333 38.7297 64.2838 38.9677C64.1343 39.2057 63.9393 39.4118 63.71 39.5742C63.4806 39.7367 63.2214 39.8522 62.9473 39.9141Z" fill="url(#paint2_linear)"/>
<path d="M75.4623 37.2358L50.438 42.6051L51.708 48.5244L76.7324 43.155L75.4623 37.2358Z" fill="#4B286D"/>
<path d="M61.7087 34.138C61.017 34.2865 60.3849 34.6367 59.8922 35.1444C59.3996 35.6522 59.0685 36.2946 58.941 36.9904C58.8134 37.6863 58.895 38.4043 59.1756 39.0538C59.4561 39.7033 59.9229 40.255 60.517 40.6391C61.111 41.0233 61.8057 41.2227 62.513 41.2121C63.2204 41.2014 63.9088 40.9813 64.491 40.5795C65.0733 40.1777 65.5234 39.6122 65.7843 38.9546C66.0452 38.2971 66.1052 37.5769 65.9569 36.8851C65.8583 36.4258 65.6703 35.9904 65.4035 35.6037C65.1366 35.2171 64.7963 34.8868 64.4018 34.6317C64.0073 34.3766 63.5664 34.2017 63.1044 34.117C62.6423 34.0323 62.168 34.0394 61.7087 34.138ZM62.8921 39.6579C62.4928 39.7436 62.0772 39.7089 61.6976 39.5583C61.318 39.4077 60.9917 39.148 60.7597 38.8119C60.5278 38.4758 60.4008 38.0785 60.3947 37.6702C60.3886 37.2619 60.5037 36.8609 60.7255 36.5181C60.9472 36.1752 61.2657 35.9058 61.6406 35.7439C62.0155 35.5821 62.43 35.535 62.8316 35.6087C63.2332 35.6824 63.604 35.8736 63.897 36.158C64.19 36.4424 64.392 36.8073 64.4776 37.2066C64.5924 37.7419 64.4898 38.3009 64.1925 38.7606C63.8951 39.2203 63.4274 39.5431 62.8921 39.6579Z" fill="#4B286D"/>
<path d="M115.999 44.9729H60.0286V122.305H115.999V44.9729Z" fill="#E0E0E0"/>
<g opacity="0.5">
<path opacity="0.5" d="M115.053 46.2805H60.9749V120.999H115.053V46.2805Z" fill="url(#paint3_linear)"/>
</g>
<path d="M114.364 46.8313H61.6628V119.899H114.364V46.8313Z" fill="white"/>
<path d="M101.155 43.6627H75.0105V49.9959H101.155V43.6627Z" fill="url(#paint4_linear)"/>
<path d="M88.0827 37.4807C86.0642 37.4807 84.4275 39.1559 84.4275 41.223C84.4275 43.2901 86.0642 44.9652 88.0827 44.9652C90.1011 44.9652 91.7378 43.2901 91.7378 41.223C91.7378 39.1559 90.1011 37.4807 88.0827 37.4807ZM88.0827 43.3823C87.6536 43.3925 87.2312 43.2745 86.8694 43.0435C86.5076 42.8125 86.2229 42.479 86.0516 42.0854C85.8803 41.6919 85.8301 41.2562 85.9076 40.834C85.985 40.4118 86.1865 40.0223 86.4864 39.7152C86.7862 39.408 87.1708 39.1972 87.591 39.1097C88.0112 39.0221 88.4479 39.0618 88.8455 39.2236C89.243 39.3854 89.5833 39.6621 89.823 40.0182C90.0626 40.3743 90.1906 40.7938 90.1907 41.223C90.1948 41.7871 89.9753 42.3299 89.5803 42.7326C89.1852 43.1354 88.6468 43.3653 88.0827 43.372V43.3823Z" fill="url(#paint5_linear)"/>
<path d="M100.88 43.3912H75.2856V49.4452H100.88V43.3912Z" fill="#4B286D"/>
<path d="M88.0827 37.4807C87.3752 37.4807 86.6836 37.6905 86.0954 38.0836C85.5071 38.4766 85.0486 39.0353 84.7779 39.6889C84.5072 40.3425 84.4363 41.0617 84.5743 41.7556C84.7124 42.4495 85.0531 43.0869 85.5533 43.5871C86.0536 44.0874 86.6909 44.4281 87.3848 44.5661C88.0787 44.7041 88.7979 44.6333 89.4515 44.3625C90.1052 44.0918 90.6638 43.6333 91.0569 43.0451C91.4499 42.4568 91.6597 41.7652 91.6597 41.0578C91.6597 40.1091 91.2829 39.1992 90.612 38.5284C89.9412 37.8576 89.0314 37.4807 88.0827 37.4807ZM88.0827 43.1223C87.6747 43.1218 87.276 43.0004 86.9369 42.7735C86.5979 42.5465 86.3336 42.2242 86.1776 41.8472C86.0216 41.4702 85.9808 41.0555 86.0603 40.6553C86.1399 40.2551 86.3362 39.8875 86.6245 39.5988C86.9128 39.3102 87.2802 39.1134 87.6803 39.0334C88.0803 38.9533 88.4952 38.9936 88.8723 39.1492C89.2495 39.3047 89.5722 39.5685 89.7995 39.9073C90.0269 40.2461 90.1487 40.6446 90.1497 41.0526C90.1496 41.3239 90.096 41.5924 89.992 41.8429C89.888 42.0934 89.7357 42.3209 89.5437 42.5126C89.3517 42.7042 89.1239 42.8561 88.8732 42.9596C88.6225 43.0631 88.3539 43.1162 88.0827 43.1159V43.1223Z" fill="#4B286D"/>
<g opacity="0.5">
<path opacity="0.5" d="M29.4374 124.396H28.9558V127.127H29.4374V124.396Z" fill="#248700"/>
<path opacity="0.5" d="M30.563 126.003V125.521H27.8312V126.003H30.563Z" fill="#248700"/>
</g>
<g opacity="0.5">
<path opacity="0.5" d="M85.3048 30H84.8232V32.7318H85.3048V30Z" fill="#47E6B1"/>
<path opacity="0.5" d="M86.4304 31.6061V31.1245H83.6986V31.6061H86.4304Z" fill="#47E6B1"/>
</g>
<path opacity="0.5" d="M125.754 128.943C125.621 128.886 125.514 128.781 125.453 128.649C125.393 128.518 125.382 128.369 125.425 128.23C125.431 128.209 125.436 128.187 125.437 128.165C125.441 128.101 125.425 128.038 125.39 127.985C125.355 127.932 125.304 127.891 125.245 127.869C125.185 127.847 125.12 127.845 125.059 127.863C124.998 127.881 124.944 127.918 124.906 127.969C124.893 127.987 124.881 128.006 124.873 128.026C124.815 128.159 124.71 128.266 124.579 128.327C124.447 128.388 124.298 128.398 124.159 128.356C124.138 128.349 124.116 128.344 124.094 128.343C124.031 128.339 123.968 128.356 123.914 128.39C123.861 128.425 123.821 128.476 123.799 128.536C123.777 128.595 123.774 128.66 123.792 128.721C123.81 128.782 123.847 128.836 123.898 128.874C123.916 128.888 123.935 128.899 123.956 128.908C124.089 128.965 124.195 129.07 124.256 129.202C124.317 129.333 124.327 129.482 124.285 129.621C124.278 129.642 124.274 129.664 124.272 129.686C124.268 129.75 124.285 129.813 124.32 129.866C124.354 129.919 124.405 129.96 124.465 129.982C124.525 130.004 124.59 130.006 124.651 129.988C124.712 129.97 124.765 129.933 124.804 129.882C124.817 129.864 124.828 129.845 124.837 129.825C124.895 129.692 124.999 129.585 125.131 129.524C125.262 129.463 125.412 129.453 125.55 129.495C125.571 129.502 125.593 129.506 125.616 129.508C125.679 129.512 125.742 129.495 125.795 129.461C125.848 129.426 125.889 129.375 125.911 129.315C125.933 129.256 125.935 129.19 125.917 129.13C125.899 129.069 125.862 129.015 125.811 128.977C125.794 128.963 125.774 128.952 125.754 128.943Z" fill="#4B286D"/>
<path opacity="0.5" d="M44.5035 102.681C44.3707 102.623 44.2637 102.519 44.203 102.387C44.1424 102.255 44.1321 102.106 44.1743 101.968C44.1812 101.946 44.1855 101.924 44.1872 101.902C44.191 101.839 44.1743 101.776 44.1395 101.723C44.1048 101.669 44.0538 101.629 43.9942 101.607C43.9346 101.585 43.8694 101.583 43.8085 101.601C43.7475 101.619 43.6939 101.656 43.6557 101.706C43.6423 101.724 43.6312 101.743 43.6224 101.764C43.5645 101.897 43.4599 102.004 43.3284 102.064C43.1968 102.125 43.0476 102.135 42.909 102.093C42.8878 102.086 42.8659 102.082 42.8437 102.08C42.7802 102.076 42.7173 102.093 42.6641 102.128C42.6109 102.163 42.5703 102.214 42.5483 102.273C42.5263 102.333 42.5241 102.398 42.542 102.459C42.5599 102.52 42.597 102.574 42.6477 102.612C42.6656 102.625 42.6849 102.636 42.7054 102.645C42.8382 102.703 42.9451 102.808 43.0058 102.939C43.0665 103.071 43.0767 103.22 43.0345 103.358C43.0277 103.38 43.0234 103.402 43.0217 103.424C43.0179 103.487 43.0346 103.55 43.0693 103.603C43.1041 103.657 43.155 103.697 43.2147 103.719C43.2743 103.741 43.3394 103.743 43.4004 103.725C43.4613 103.708 43.5149 103.67 43.5532 103.62C43.5665 103.602 43.5777 103.583 43.5865 103.562C43.6443 103.429 43.7489 103.322 43.8805 103.262C44.012 103.201 44.1613 103.191 44.2999 103.233C44.3211 103.24 44.343 103.244 44.3652 103.246C44.4286 103.25 44.4916 103.233 44.5448 103.198C44.598 103.163 44.6386 103.112 44.6606 103.053C44.6825 102.993 44.6847 102.928 44.6668 102.867C44.6489 102.806 44.6119 102.753 44.5611 102.714C44.5433 102.701 44.5239 102.69 44.5035 102.681Z" fill="#FDD835"/>
<path opacity="0.5" d="M112.178 38.732C112.045 38.6741 111.938 38.5695 111.878 38.438C111.817 38.3064 111.807 38.1572 111.849 38.0186C111.856 37.9974 111.86 37.9755 111.862 37.9533C111.866 37.8899 111.849 37.8269 111.814 37.7737C111.78 37.7205 111.729 37.6799 111.669 37.6579C111.609 37.6359 111.544 37.6337 111.483 37.6516C111.422 37.6695 111.369 37.7066 111.33 37.7573C111.317 37.7752 111.306 37.7945 111.297 37.815C111.239 37.9478 111.135 38.0547 111.003 38.1154C110.872 38.1761 110.722 38.1863 110.584 38.1441C110.563 38.1373 110.541 38.133 110.518 38.1313C110.455 38.1275 110.392 38.1442 110.339 38.1789C110.286 38.2137 110.245 38.2647 110.223 38.3243C110.201 38.3839 110.199 38.449 110.217 38.51C110.235 38.571 110.272 38.6245 110.323 38.6628C110.34 38.6761 110.36 38.6873 110.38 38.6961C110.513 38.7539 110.62 38.8586 110.681 38.9901C110.741 39.1216 110.751 39.2709 110.709 39.4095C110.702 39.4307 110.698 39.4526 110.696 39.4748C110.693 39.5382 110.709 39.6012 110.744 39.6544C110.779 39.7076 110.83 39.7482 110.889 39.7702C110.949 39.7921 111.014 39.7943 111.075 39.7764C111.136 39.7585 111.19 39.7215 111.228 39.6707C111.241 39.6529 111.252 39.6335 111.261 39.6131C111.319 39.4803 111.424 39.3733 111.555 39.3127C111.687 39.252 111.836 39.2417 111.975 39.284C111.996 39.2908 112.018 39.2951 112.04 39.2968C112.103 39.3006 112.166 39.2839 112.22 39.2491C112.273 39.2144 112.313 39.1634 112.335 39.1038C112.357 39.0442 112.359 38.9791 112.342 38.9181C112.324 38.8571 112.287 38.8035 112.236 38.7653C112.218 38.7519 112.199 38.7408 112.178 38.732Z" fill="#248700"/>
<path opacity="0.5" d="M131.076 71.2392C131.609 71.2392 132.041 70.8074 132.041 70.2748C132.041 69.7422 131.609 69.3104 131.076 69.3104C130.544 69.3104 130.112 69.7422 130.112 70.2748C130.112 70.8074 130.544 71.2392 131.076 71.2392Z" fill="#C12335"/>
<path opacity="0.5" d="M56.5501 126.589C57.0827 126.589 57.5144 126.158 57.5144 125.625C57.5144 125.092 57.0827 124.661 56.5501 124.661C56.0175 124.661 55.5857 125.092 55.5857 125.625C55.5857 126.158 56.0175 126.589 56.5501 126.589Z" fill="#C12335"/>
<path opacity="0.5" d="M121.173 92.0843C121.705 92.0843 122.137 91.6525 122.137 91.1199C122.137 90.5873 121.705 90.1555 121.173 90.1555C120.64 90.1555 120.208 90.5873 120.208 91.1199C120.208 91.6525 120.64 92.0843 121.173 92.0843Z" fill="#C12335"/>
<path opacity="0.5" d="M38.1602 43.3041C38.6928 43.3041 39.1246 42.8724 39.1246 42.3398C39.1246 41.8071 38.6928 41.3754 38.1602 41.3754C37.6276 41.3754 37.1958 41.8071 37.1958 42.3398C37.1958 42.8724 37.6276 43.3041 38.1602 43.3041Z" fill="#4B286D"/>
<path opacity="0.5" d="M27.9644 69.6115C28.497 69.6115 28.9288 69.1797 28.9288 68.6471C28.9288 68.1145 28.497 67.6827 27.9644 67.6827C27.4318 67.6827 27 68.1145 27 68.6471C27 69.1797 27.4318 69.6115 27.9644 69.6115Z" fill="#C12335"/>
</g>
<defs>
<linearGradient id="paint0_linear" x1="79.164" y1="115.816" x2="63.4889" y2="42.7601" gradientUnits="userSpaceOnUse">
<stop stop-color="#808080" stop-opacity="0.25"/>
<stop offset="0.54" stop-color="#808080" stop-opacity="0.12"/>
<stop offset="1" stop-color="#808080" stop-opacity="0.1"/>
</linearGradient>
<linearGradient id="paint1_linear" x1="14090.1" y1="-1801.29" x2="14024.4" y2="-2107.5" gradientUnits="userSpaceOnUse">
<stop stop-color="#808080" stop-opacity="0.25"/>
<stop offset="0.54" stop-color="#808080" stop-opacity="0.12"/>
<stop offset="1" stop-color="#808080" stop-opacity="0.1"/>
</linearGradient>
<linearGradient id="paint2_linear" x1="4133.48" y1="238.881" x2="4041.82" y2="-188.302" gradientUnits="userSpaceOnUse">
<stop stop-color="#808080" stop-opacity="0.25"/>
<stop offset="0.54" stop-color="#808080" stop-opacity="0.12"/>
<stop offset="1" stop-color="#808080" stop-opacity="0.1"/>
</linearGradient>
<linearGradient id="paint3_linear" x1="25823.9" y1="53136.1" x2="25823.9" y2="9544.5" gradientUnits="userSpaceOnUse">
<stop stop-color="#808080" stop-opacity="0.25"/>
<stop offset="0.54" stop-color="#808080" stop-opacity="0.12"/>
<stop offset="1" stop-color="#808080" stop-opacity="0.1"/>
</linearGradient>
<linearGradient id="paint4_linear" x1="12544.4" y1="1032.46" x2="12544.4" y2="719.286" gradientUnits="userSpaceOnUse">
<stop stop-color="#808080" stop-opacity="0.25"/>
<stop offset="0.54" stop-color="#808080" stop-opacity="0.12"/>
<stop offset="1" stop-color="#808080" stop-opacity="0.1"/>
</linearGradient>
<linearGradient id="paint5_linear" x1="4959.4" y1="1357.68" x2="4959.4" y2="920.281" gradientUnits="userSpaceOnUse">
<stop stop-color="#808080" stop-opacity="0.25"/>
<stop offset="0.54" stop-color="#808080" stop-opacity="0.12"/>
<stop offset="1" stop-color="#808080" stop-opacity="0.1"/>
</linearGradient>
<clipPath id="clip0">
<rect width="105.04" height="100" fill="white" transform="translate(27 30)"/>
</clipPath>
</defs>
</svg>
