<svg width="48" height="48" viewBox="0 0 48 48" fill="none" xmlns="http://www.w3.org/2000/svg">
<circle cx="24" cy="24" r="24" fill="#FFF6F8"/>
<g clip-path="url(#clip0)">
<path d="M11.3299 16.24V15.32H36.7399V19.24H38.3799V15.08C38.3647 14.7916 38.2407 14.5197 38.0328 14.3193C37.8249 14.1188 37.5487 14.0047 37.2599 14H22.7699C22.5133 13.997 22.2615 13.9295 22.0379 13.8036C21.8142 13.6778 21.6258 13.4978 21.4899 13.28L20.0499 11C19.9141 10.7823 19.7256 10.6022 19.5019 10.4764C19.2783 10.3506 19.0265 10.2831 18.7699 10.28H10.7699C10.4828 10.2845 10.2079 10.3972 10.0003 10.5956C9.79263 10.794 9.6675 11.0634 9.6499 11.35V19.2H11.2899V16.2L11.3299 16.24Z" fill="#A3192D"/>
<path d="M36.7401 15.28H11.3301V16.2H36.7401V15.28Z" fill="#EBF0F3"/>
<path d="M36.7401 16.24H11.3301V19.24H36.7401V16.24Z" fill="white"/>
<path d="M38.9 19.24H9.13C8.97048 19.2343 8.81163 19.2634 8.66449 19.3253C8.51735 19.3872 8.38544 19.4804 8.27792 19.5984C8.17041 19.7164 8.08985 19.8563 8.04186 20.0086C7.99387 20.1608 7.97958 20.3217 8 20.48L9.53 36.77C9.58257 37.0576 9.73668 37.3168 9.96426 37.5003C10.1919 37.6838 10.4778 37.7795 10.77 37.77H37.22C37.5107 37.7735 37.7936 37.6756 38.0199 37.4931C38.2463 37.3106 38.4019 37.0549 38.46 36.77L40 20.48C40.0273 20.3231 40.0188 20.162 39.9753 20.0088C39.9318 19.8557 39.8543 19.7142 39.7486 19.5951C39.6429 19.476 39.5117 19.3822 39.3648 19.3207C39.2179 19.2592 39.059 19.2316 38.9 19.24Z" fill="#C12335"/>
<path d="M24.02 35.2C27.5104 35.2 30.34 32.3704 30.34 28.88C30.34 25.3896 27.5104 22.56 24.02 22.56C20.5295 22.56 17.7 25.3896 17.7 28.88C17.7 32.3704 20.5295 35.2 24.02 35.2Z" fill="#A3192D"/>
<path d="M24.02 34.84C27.5104 34.84 30.34 32.0105 30.34 28.52C30.34 25.0296 27.5104 22.2 24.02 22.2C20.5295 22.2 17.7 25.0296 17.7 28.52C17.7 32.0105 20.5295 34.84 24.02 34.84Z" fill="white"/>
<path d="M27.9999 24.24V30.16C27.9999 30.64 27.5599 31.16 26.7999 31.44C26.5535 31.5158 26.2976 31.5562 26.0399 31.56C25.8296 31.5892 25.6154 31.5506 25.4284 31.4499C25.2414 31.3493 25.0913 31.1917 24.9999 31C24.8399 30.48 25.3199 29.84 26.1999 29.56C26.6016 29.4213 27.0382 29.4213 27.4399 29.56V26.4L23.1599 27.48V31.4C23.1599 31.88 22.7099 32.4 21.9499 32.68C21.7035 32.7558 21.4476 32.7962 21.1899 32.8C20.9859 32.8204 20.7806 32.7776 20.6017 32.6775C20.4229 32.5773 20.2791 32.4246 20.1899 32.24C20.0299 31.72 20.5099 31.08 21.3899 30.8C21.7916 30.6613 22.2282 30.6613 22.6299 30.8V25.6L27.9999 24.24Z" fill="#4B286D"/>
</g>
<defs>
<clipPath id="clip0">
<rect width="40" height="40" fill="white" transform="translate(4 4)"/>
</clipPath>
</defs>
</svg>
