<?xml version="1.0" encoding="UTF-8"?>
<svg width="87px" height="105px" viewBox="0 0 87 105" version="1.1" xmlns="http://www.w3.org/2000/svg" xmlns:xlink="http://www.w3.org/1999/xlink">
    <title>BCD52860-780A-44A6-A8A5-96840052E674</title>
    <g id="Phase-4_Manager" stroke="none" stroke-width="1" fill="none" fill-rule="evenodd">
        <g id="101_notification_empty" transform="translate(-1048.000000, -181.000000)">
            <g id="Group-43" transform="translate(938.000000, 65.000000)">
                <g id="Group-3" transform="translate(111.000000, 116.000000)">
                    <g id="notification" transform="translate(3.000000, 0.000000)">
                        <rect id="Rectangle" x="0" y="0" width="78.59" height="78.59"></rect>
                        <path d="M47.36,59 C47.3437227,62.7337255 44.8478227,66.0016797 41.25,67 C40.5239322,67.2017458 39.7735706,67.3026913 39.02,67.3000524 C34.429521,67.3000524 30.7020167,63.5904262 30.68,59 L39,54.67 L47.36,59 Z" id="Path" fill="#E58E13" fill-rule="nonzero"></path>
                        <path d="M47,61.53 C46.1340746,64.2098894 43.9697457,66.2688248 41.25,67 C39.5759188,66.5328957 38.0898708,65.5538523 37,64.2 C36.6016612,63.7064908 36.523575,63.0275434 36.7994776,62.4564892 C37.0753801,61.885435 37.6558104,61.5246472 38.29,61.53 L47,61.53 Z" id="Path" fill="#F7D360" fill-rule="nonzero"></path>
                        <path d="M60.55,50.62 L42.63,54.49 L17.5,50.62 C19.2291062,50.6920084 20.77595,49.5526665 21.22,47.88 C24.28,39.62 16.12,15.54 39.02,15.54 C61.92,15.54 53.76,39.62 56.82,47.88 C57.2681446,49.5542099 58.8183868,50.6929937 60.55,50.62 L60.55,50.62 Z" id="Path" fill="#F7D360" fill-rule="nonzero"></path>
                        <path d="M64.7101922,54.79 C64.7206619,55.9011357 64.2874088,56.9705728 63.5063886,57.7609802 C62.7253685,58.5513876 61.6611838,58.9973864 60.55,59 L17.55,59 C15.2469726,59 13.38,57.1330274 13.38,54.83 C13.38,52.5269726 15.2469726,50.66 17.55,50.66 L60.55,50.66 C62.8491212,50.6655135 64.7101922,52.5308722 64.7101922,54.83 L64.7101922,54.79 Z" id="Path" fill="#E58E13" fill-rule="nonzero"></path>
                        <path d="M56.82,47.88 L34.45,47.88 C33.2937221,47.877832 32.1875162,47.4079168 31.3831947,46.5772241 C30.5788733,45.7465315 30.1448773,44.6257464 30.18,43.47 C30.5,33.27 28.87,15.74 38.85,15.54 C11.45,15.69 29,50.62 17.5,50.62 L60.55,50.62 C58.8183868,50.6929937 57.2681446,49.5542099 56.82,47.88 L56.82,47.88 Z" id="Path" fill="#E58E13" fill-rule="nonzero"></path>
                        <path d="M64.7101922,54.79 C64.7206619,55.9011357 64.2874088,56.9705728 63.5063886,57.7609802 C62.7253685,58.5513876 61.6611838,58.9973864 60.55,59 L29.55,59 C27.2469726,59 25.38,57.1330274 25.38,54.83 C25.38,52.5269726 27.2469726,50.66 29.55,50.66 L60.55,50.66 C62.8491212,50.6655135 64.7101922,52.5308722 64.7101922,54.83 L64.7101922,54.79 Z" id="Path" fill="#F7D360" fill-rule="nonzero"></path>
                        <path d="M43.26,15.86 C43.26,15.76 43.26,15.65 43.26,15.54 C43.26,13.1927898 41.3572102,11.29 39.01,11.29 C36.6627898,11.29 34.76,13.1927898 34.76,15.54 C34.76,15.65 34.76,15.76 34.76,15.86" id="Path" fill="#E58E13" fill-rule="nonzero"></path>
                        <path d="M9.38,64.18 L9.58,64.59 C9.80068795,65.035314 10.2276194,65.342405 10.72,65.41 L11.16,65.48 L10.84,65.79 C10.4824397,66.1374704 10.31802,66.638203 10.4,67.13 L10.48,67.57 L10.08,67.36 C9.6415262,67.1305949 9.1184738,67.1305949 8.68,67.36 L8.28,67.57 L8.36,67.13 C8.44197998,66.638203 8.27756031,66.1374704 7.92,65.79 L7.6,65.48 L8,65.41 C8.49238058,65.342405 8.91931205,65.035314 9.14,64.59 L9.38,64.18 Z" id="Path" stroke="#FFA7AD" stroke-linecap="round"></path>
                        <path d="M46.82,7.91 L47.02,8.31 C47.242252,8.75572893 47.6675551,9.06537943 48.16,9.14 L48.61,9.2 L48.28,9.51 C47.9260713,9.85941803 47.7654741,10.3598839 47.85,10.85 L47.92,11.29 L47.53,11.08 C47.08801,10.8505248 46.56199,10.8505248 46.12,11.08 L45.72,11.29 L45.8,10.85 C45.8810717,10.3601315 45.7209754,9.86122654 45.37,9.51 L45,9.2 L45.45,9.14 C45.9393933,9.06395151 46.3610484,8.75424024 46.58,8.31 L46.82,7.91 Z" id="Path" stroke="#71757B"></path>
                        <line x1="60.55" y1="60.47" x2="62.67" y2="62.59" id="Path" stroke="#FFA7AD" stroke-linecap="round"></line>
                        <line x1="60.55" y1="62.59" x2="62.67" y2="60.47" id="Path" stroke="#FFA7AD" stroke-linecap="round"></line>
                        <line x1="59.49" y1="25.28" x2="61.61" y2="27.4" id="Path" stroke="#71757B" stroke-linecap="round"></line>
                        <line x1="59.49" y1="27.4" x2="61.61" y2="25.28" id="Path" stroke="#71757B" stroke-linecap="round"></line>
                        <path d="M9.38,22.41 L9.76,25 C9.77925502,25.1293788 9.86539092,25.2389767 9.9865539,25.2882633 C10.1077169,25.33755 10.2458993,25.3192002 10.35,25.24 L12.35,23.64 C12.4524892,23.5605443 12.5043237,23.4321064 12.4856942,23.3037702 C12.4670647,23.175434 12.3808508,23.0670353 12.26,23.02 L9.88,22 C9.75500406,21.9428962 9.60840248,21.9619347 9.50213841,22.0490712 C9.39587433,22.1362078 9.34848745,22.2762398 9.38,22.41 L9.38,22.41 Z" id="Path" stroke="#FFD938"></path>
                    </g>
                    <text id="All-caught-up!" font-family="HelveticaNeue, Helvetica Neue" font-size="14" font-weight="normal" fill="#2A2C2E">
                        <tspan x="0" y="102">All caught up!</tspan>
                    </text>
                </g>
            </g>
        </g>
    </g>
</svg>