<?xml version="1.0" encoding="UTF-8"?>
<svg width="41px" height="40px" viewBox="0 0 41 40" version="1.1" xmlns="http://www.w3.org/2000/svg" xmlns:xlink="http://www.w3.org/1999/xlink">
    <title>EE1D1463-731E-4DA4-BADC-D49E41CAD2D8</title>
    <g id="Global-Search" stroke="none" stroke-width="1" fill="none" fill-rule="evenodd">
        <g id="40" transform="translate(-665.000000, -272.000000)">
            <g id="Suspicious-Activity" transform="translate(407.000000, 187.000000)">
                <g id="Group-6" transform="translate(257.000000, 83.000000)">
                    <g id="object_40" transform="translate(1.000000, 2.000000)">
                        <rect id="Rectangle" x="0.99" y="0" width="40" height="40"></rect>
                        <path d="M35.94,35.81 C35.6727541,35.8088906 35.4170714,35.7008556 35.23,35.51 L26.63,26.91 C21.4240247,31.4784212 13.5394944,31.1203831 8.76899723,26.0989285 C3.99850004,21.0774738 4.04481131,13.1849543 8.87390718,8.21982753 C13.703003,3.25470079 21.591192,2.98921302 26.7431981,7.61841214 C31.8952041,12.2476113 32.4720765,20.1191567 28.05,25.45 L36.65,34.09 C36.8408556,34.2770714 36.9488906,34.5327541 36.95,34.8 C36.95,35.3522847 36.5022847,35.8 35.95,35.8 L35.94,35.81 Z M18,6.22 C11.9248678,6.22 7,11.1448678 7,17.22 C7,23.2951322 11.9248678,28.22 18,28.22 C24.0751322,28.22 29,23.2951322 29,17.22 C29,14.3026186 27.8410748,11.5047256 25.7781746,9.44182541 C23.7152744,7.37892524 20.9173814,6.22 18,6.22 Z" id="Shape" fill="#EB5D5D" fill-rule="nonzero"></path>
                        <path d="M15.14,24.75 C14.0078163,24.75 13.09,23.8321837 13.09,22.7 L13.09,11.8599999 C13.1171449,10.7473895 14.0270585,9.85966892 15.14,9.85999991 L20.93,9.85999991 C22.0429415,9.85966892 22.9528551,10.7473895 22.98,11.8599999 L22.98,22.7 C22.98,23.8321837 22.0621837,24.75 20.93,24.75 L15.14,24.75 Z M20.93,22.75 C20.9815478,22.7502583 21.0248458,22.7112901 21.03,22.66 L21.03,11.86 C21.0253496,11.8068166 20.9831834,11.7646504 20.93,11.76 L15.14,11.76 C15.0887099,11.7651542 15.0497417,11.8084522 15.0499987,11.86 L15.0499987,22.7 C15.0499987,22.7497056 15.0902944,22.79 15.14,22.79 L17.14,22.79 C16.6469619,22.7152306 16.2843628,22.2886434 16.29,21.79 C16.29,21.2377153 16.7377153,20.79 17.29,20.79 L18.86,20.79 C19.4122847,20.79 19.86,21.2377153 19.86,21.79 C19.8615675,22.0509276 19.7610851,22.3021334 19.58,22.49 C19.4267611,22.6372124 19.2306122,22.7317842 19.02,22.76 L20.93,22.75 Z" id="Shape" fill="#EB5D5D" fill-rule="nonzero"></path>
                    </g>
                </g>
            </g>
        </g>
    </g>
</svg>