<svg width="45" height="45" viewBox="0 0 45 45" fill="none" xmlns="http://www.w3.org/2000/svg">
<circle cx="22.5" cy="22.5" r="22.5" fill="#FFF6F8"/>
<path d="M29.5 11H17.5C16.6716 11 16 11.6716 16 12.5V31.5C16 32.3284 16.6716 33 17.5 33H29.5C30.3284 33 31 32.3284 31 31.5V12.5C31 11.6716 30.3284 11 29.5 11Z" stroke="#C12335" stroke-miterlimit="10"/>
<path d="M25.8701 30.03H21.14C20.6761 30.03 20.3 30.4061 20.3 30.87V31.91C20.3 32.3739 20.6761 32.75 21.14 32.75H25.8701C26.334 32.75 26.71 32.3739 26.71 31.91V30.87C26.71 30.4061 26.334 30.03 25.8701 30.03Z" fill="#C12335"/>
</svg>
