<svg width="26" height="26" viewBox="0 0 26 26" fill="none" xmlns="http://www.w3.org/2000/svg">
<path fill-rule="evenodd" clip-rule="evenodd" d="M12.9998 13.7067L8.85325 17.8532C8.75625 17.9502 8.62825 17.9993 8.50025 17.9993C8.37225 17.9993 8.24425 17.9502 8.14625 17.8532C7.95125 17.6582 7.95125 17.3412 8.14625 17.1462L12.2927 12.9998L8.14625 8.85325C7.95125 8.65825 7.95125 8.34125 8.14625 8.14625C8.34125 7.95125 8.65825 7.95125 8.85325 8.14625L12.9998 12.2927L17.1462 8.14625C17.3412 7.95125 17.6582 7.95125 17.8532 8.14625C18.0482 8.34125 18.0482 8.65825 17.8532 8.85325L13.7067 12.9998L17.8532 17.1462C18.0482 17.3412 18.0482 17.6582 17.8532 17.8532C17.7562 17.9502 17.6283 17.9993 17.5002 17.9993C17.3722 17.9993 17.2442 17.9502 17.1462 17.8532L12.9998 13.7067ZM13 25C6.3833 25 1 19.6167 1 13C1 6.3833 6.3833 1 13 1C19.6167 1 25 6.3833 25 13C25 19.6167 19.6167 25 13 25ZM13 2.04348C6.95826 2.04348 2.04348 6.95826 2.04348 13C2.04348 19.0417 6.95826 23.9565 13 23.9565C19.0417 23.9565 23.9565 19.0417 23.9565 13C23.9565 6.95826 19.0417 2.04348 13 2.04348Z" fill="#54595F"/>
<path d="M12.9998 13.7067L13.0705 13.636L12.9998 13.5653L12.929 13.636L12.9998 13.7067ZM8.85325 17.8532L8.78254 17.7825L8.85325 17.8532ZM8.14625 17.8532L8.07554 17.924L8.0759 17.9243L8.14625 17.8532ZM8.14625 17.1462L8.21696 17.217H8.21696L8.14625 17.1462ZM12.2927 12.9998L12.3635 13.0705L12.4342 12.9998L12.3635 12.929L12.2927 12.9998ZM8.14625 8.85325L8.21696 8.78254L8.14625 8.85325ZM8.14625 8.14625L8.07554 8.07554L8.14625 8.14625ZM8.85325 8.14625L8.78254 8.21696L8.85325 8.14625ZM12.9998 12.2927L12.929 12.3635L12.9998 12.4342L13.0705 12.3635L12.9998 12.2927ZM17.1462 8.14625L17.217 8.21696V8.21696L17.1462 8.14625ZM17.8532 8.14625L17.924 8.07554L17.8532 8.14625ZM17.8532 8.85325L17.924 8.92396L17.8532 8.85325ZM13.7067 12.9998L13.636 12.929L13.5653 12.9998L13.636 13.0705L13.7067 12.9998ZM17.1462 17.8532L17.0755 17.924L17.0759 17.9243L17.1462 17.8532ZM12.929 13.636L8.78254 17.7825L8.92396 17.924L13.0705 13.7775L12.929 13.636ZM8.78254 17.7825C8.70506 17.86 8.60283 17.8993 8.50025 17.8993V18.0993C8.65367 18.0993 8.80744 18.0405 8.92396 17.924L8.78254 17.7825ZM8.50025 17.8993C8.39777 17.8993 8.29529 17.8601 8.2166 17.7822L8.0759 17.9243C8.19321 18.0404 8.34673 18.0993 8.50025 18.0993V17.8993ZM8.21696 17.7825C8.06101 17.6266 8.06101 17.3729 8.21696 17.217L8.07554 17.0755C7.84149 17.3096 7.84149 17.6899 8.07554 17.924L8.21696 17.7825ZM8.21696 17.217L12.3635 13.0705L12.222 12.929L8.07554 17.0755L8.21696 17.217ZM12.3635 12.929L8.21696 8.78254L8.07554 8.92396L12.222 13.0705L12.3635 12.929ZM8.21696 8.78254C8.06101 8.62659 8.06101 8.37291 8.21696 8.21696L8.07554 8.07554C7.84149 8.30959 7.84149 8.68991 8.07554 8.92396L8.21696 8.78254ZM8.21696 8.21696C8.37291 8.06101 8.62659 8.06101 8.78254 8.21696L8.92396 8.07554C8.68991 7.84149 8.30959 7.84149 8.07554 8.07554L8.21696 8.21696ZM8.78254 8.21696L12.929 12.3635L13.0705 12.222L8.92396 8.07554L8.78254 8.21696ZM13.0705 12.3635L17.217 8.21696L17.0755 8.07554L12.929 12.222L13.0705 12.3635ZM17.217 8.21696C17.3729 8.06101 17.6266 8.06101 17.7825 8.21696L17.924 8.07554C17.6899 7.84149 17.3096 7.84149 17.0755 8.07554L17.217 8.21696ZM17.7825 8.21696C17.9385 8.37291 17.9385 8.62659 17.7825 8.78254L17.924 8.92396C18.158 8.68991 18.158 8.30959 17.924 8.07554L17.7825 8.21696ZM17.7825 8.78254L13.636 12.929L13.7775 13.0705L17.924 8.92396L17.7825 8.78254ZM13.636 13.0705L17.7825 17.217L17.924 17.0755L13.7775 12.929L13.636 13.0705ZM17.7825 17.217C17.9385 17.3729 17.9385 17.6266 17.7825 17.7825L17.924 17.924C18.158 17.6899 18.158 17.3096 17.924 17.0755L17.7825 17.217ZM17.7825 17.7825C17.7051 17.86 17.6028 17.8993 17.5002 17.8993V18.0993C17.6537 18.0993 17.8074 18.0405 17.924 17.924L17.7825 17.7825ZM17.5002 17.8993C17.3978 17.8993 17.2953 17.8601 17.2166 17.7822L17.0759 17.9243C17.1932 18.0404 17.3467 18.0993 17.5002 18.0993V17.8993ZM17.217 17.7825L13.0705 13.636L12.929 13.7775L17.0755 17.924L17.217 17.7825ZM13 24.9C6.43853 24.9 1.1 19.5615 1.1 13H0.9C0.9 19.6719 6.32808 25.1 13 25.1V24.9ZM1.1 13C1.1 6.43853 6.43853 1.1 13 1.1V0.9C6.32808 0.9 0.9 6.32808 0.9 13H1.1ZM13 1.1C19.5615 1.1 24.9 6.43853 24.9 13H25.1C25.1 6.32808 19.6719 0.9 13 0.9V1.1ZM24.9 13C24.9 19.5615 19.5615 24.9 13 24.9V25.1C19.6719 25.1 25.1 19.6719 25.1 13H24.9ZM13 1.94348C6.90303 1.94348 1.94348 6.90303 1.94348 13H2.14348C2.14348 7.01349 7.01349 2.14348 13 2.14348V1.94348ZM1.94348 13C1.94348 19.097 6.90303 24.0565 13 24.0565V23.8565C7.01349 23.8565 2.14348 18.9865 2.14348 13H1.94348ZM13 24.0565C19.097 24.0565 24.0565 19.097 24.0565 13H23.8565C23.8565 18.9865 18.9865 23.8565 13 23.8565V24.0565ZM24.0565 13C24.0565 6.90303 19.097 1.94348 13 1.94348V2.14348C18.9865 2.14348 23.8565 7.01349 23.8565 13H24.0565Z" fill="#54595F"/>
</svg>
