<?xml version="1.0" encoding="UTF-8"?>
<svg width="28px" height="28px" viewBox="0 0 28 28" version="1.1" xmlns="http://www.w3.org/2000/svg" xmlns:xlink="http://www.w3.org/1999/xlink">
    <!-- Generator: sketchtool 63.1 (101010) - https://sketch.com -->
    <title>17FCAADC-EDEE-4463-9DD6-7830A8FEF3DE@1.5x</title>
    <desc>Created with sketchtool.</desc>
    <g id="Page-1" stroke="none" stroke-width="1" fill="none" fill-rule="evenodd">
        <g id="82_retained_viewImg_gallery" transform="translate(-538.000000, -252.000000)">
            <g id="retaied.-Images_carousel" transform="translate(506.000000, 140.000000)">
                <g id="Group-7" transform="translate(32.000000, 112.000000)">
                    <circle id="Oval" fill="#D8D8D8" opacity="0.5" cx="14" cy="14" r="14"></circle>
                    <g id="dropdown_1" transform="translate(5.000000, 5.000000)">
                        <g transform="translate(9.000000, 9.000000) rotate(90.000000) translate(-9.000000, -9.000000) translate(0.000000, 0.000000)">
                            <rect id="Rectangle" x="0" y="0" width="18" height="18"></rect>
                            <path d="M9,11.26 C8.77284798,11.2590885 8.55599539,11.1651191 8.4,11 L5,7.65 C4.76804041,7.4180404 4.76804041,7.0419596 5.00000001,6.81000001 C5.2319596,6.57804041 5.6080404,6.57804041 5.84,6.81 L9,9.93 L12.12,6.81 C12.3519596,6.57804041 12.7280404,6.57804041 12.96,6.81000001 C13.1919596,7.0419596 13.1919596,7.4180404 12.96,7.65 L9.6,11 C9.44400461,11.1651191 9.22715202,11.2590885 9,11.26 L9,11.26 Z" id="Path" fill="#54595F" fill-rule="nonzero"></path>
                        </g>
                    </g>
                </g>
            </g>
        </g>
    </g>
</svg>