<?xml version="1.0" encoding="UTF-8"?>
<svg width="20px" height="20px" viewBox="0 0 20 20" version="1.1" xmlns="http://www.w3.org/2000/svg" xmlns:xlink="http://www.w3.org/1999/xlink">
    <!-- Generator: sketchtool 63.1 (101010) - https://sketch.com -->
    <title>ECEF220C-CAFF-49FA-B19D-580C8000D456</title>
    <desc>Created with sketchtool.</desc>
    <g id="Dashboard" stroke="none" stroke-width="1" fill="none" fill-rule="evenodd">
        <g id="00_Assets" transform="translate(-38.000000, -711.000000)">
            <g id="refresh_24" transform="translate(36.000000, 709.000000)">
                <rect id="Rectangle" x="0" y="0" width="24" height="24"></rect>
                <path d="M3.58,12.73 C3.17683213,12.73 2.84997456,12.4031679 2.84997456,12 C2.84139071,8.34046678 5.01875406,5.02937988 8.38217975,3.58728933 C11.7456054,2.14519878 15.6451397,2.85077645 18.29,5.38 L18.29,2.88 C18.29,2.47683213 18.6168321,2.15 19.02,2.15 C19.4231679,2.15 19.75,2.47683213 19.75,2.88 L19.75,7.09 C19.748788,7.40350364 19.5475396,7.68122648 19.25,7.78 L15,9.19 C14.9236419,9.19972764 14.8463581,9.19972764 14.77,9.19 C14.4581518,9.19333977 14.179606,8.99553189 14.08,8.7 C14.0166519,8.51570535 14.0296219,8.31373222 14.1160219,8.13905385 C14.202422,7.96437549 14.3550787,7.83149471 14.54,7.77 L17.61,6.77 C15.455493,4.47193293 12.1173134,3.72024467 9.18574573,4.87303407 C6.25417804,6.02582347 4.32212394,8.84994198 4.31,12 C4.31,12.4031679 3.98316787,12.73 3.58,12.73 L3.58,12.73 Z" id="Path" fill="#71757B" fill-rule="nonzero"></path>
                <path d="M5,21.85 C4.60074277,21.8445302 4.27999977,21.5192947 4.27999977,21.12 L4.27999977,16.91 C4.27975306,16.5991285 4.47640937,16.3222043 4.77,16.22 L9,14.82 C9.07607575,14.8065385 9.15392425,14.8065385 9.23,14.82 C9.48240747,14.8186584 9.71759875,14.947804 9.85192472,15.1615045 C9.98625069,15.3752049 10.0006495,15.6431344 9.89,15.87 C9.80333929,16.0469806 9.64792708,16.1807074 9.46,16.24 L6.39,17.24 C8.54575843,19.539374 11.8863808,20.2904592 14.8188808,19.1350983 C17.7513808,17.9797374 19.6819538,15.1518804 19.69,12 C19.69,11.5968321 20.0168321,11.27 20.42,11.27 C20.8231679,11.27 21.1500254,11.5968321 21.1500254,12 C21.1586093,15.6595332 18.9812459,18.9706201 15.6178203,20.4127107 C12.2543946,21.8548012 8.35486026,21.1492235 5.71,18.62 L5.71,21.12 C5.71014845,21.5154848 5.39533637,21.8391648 5,21.85 Z" id="Path" fill="#71757B" fill-rule="nonzero"></path>
            </g>
        </g>
    </g>
</svg>