<?xml version="1.0" encoding="UTF-8"?>
<svg width="16px" height="15px" viewBox="0 0 16 15" version="1.1" xmlns="http://www.w3.org/2000/svg" xmlns:xlink="http://www.w3.org/1999/xlink">
    <!-- Generator: sketchtool 63.1 (101010) - https://sketch.com -->
    <title>783F6510-DD8D-499C-BE17-BBF521AE4343@1.5x</title>
    <desc>Created with sketchtool.</desc>
    <g id="Page-1" stroke="none" stroke-width="1" fill="none" fill-rule="evenodd">
        <g id="56_exempt_empted_successToast" transform="translate(-1340.000000, -298.000000)">
            <g id="Group-6" transform="translate(1313.000000, 296.000000)">
                <g id="resume" transform="translate(26.000000, 0.000000)">
                    <rect id="Rectangle" x="0" y="0" width="18" height="18"></rect>
                    <path d="M1.64,6.60000015 C1.50120198,6.60010677 1.36835594,6.54363811 1.27211609,6.44362414 C1.17587624,6.34361017 1.1245569,6.2086913 1.13,6.07 L1.13,2.62 C1.13,2.33833478 1.35833478,2.11 1.64,2.11 L5.11,2.11 C5.33324997,2.17377295 5.48717143,2.37782003 5.48717143,2.61 C5.48717143,2.84217997 5.33324997,3.04622705 5.11,3.11 L2.15,3.11 L2.15,6.09 C2.15,6.37166522 1.92166522,6.60000015 1.64,6.60000015 Z" id="Path" fill="#71757B" fill-rule="nonzero"></path>
                    <path d="M1.64,16 C1.50298902,16.0000263 1.37172972,15.9449238 1.27579344,15.8471064 C1.17985716,15.749289 1.12731351,15.6169846 1.13,15.48 L1.13,12.06 C1.17786962,11.8218397 1.38707652,11.6504988 1.63,11.6504988 C1.87292348,11.6504988 2.08213038,11.8218397 2.13,12.06 L2.13,15 L5.13,15 C5.26435918,14.9999731 5.39307541,15.054022 5.48713643,15.1499643 C5.58119745,15.2459065 5.63268719,15.3756677 5.63,15.51 C5.62479845,15.6452964 5.56601042,15.7729715 5.4665927,15.864886 C5.36717497,15.9568005 5.2352882,16.0054096 5.1,16 L1.64,16 Z" id="Path" fill="#71757B" fill-rule="nonzero"></path>
                    <path d="M12.9,16 C12.67675,15.9362271 12.5228286,15.73218 12.5228286,15.5 C12.5228286,15.26782 12.67675,15.0637729 12.9,15 L15.9,15 L15.9,12.06 C15.8999737,11.922989 15.9550762,11.7917297 16.0528936,11.6957934 C16.150711,11.5998572 16.2830154,11.5473135 16.42,11.55 C16.5555858,11.5480339 16.6859244,11.6023416 16.78,11.7 C16.8698017,11.7937119 16.9168528,11.9203879 16.91,12.05 L16.91,15.51 C16.9126865,15.6469846 16.8601428,15.779289 16.7642066,15.8771064 C16.6682703,15.9749238 16.537011,16.03 16.4,16.03 L12.9,16 Z" id="Path" fill="#71757B" fill-rule="nonzero"></path>
                    <path d="M16.36,6.58 C16.0783348,6.58 15.85,6.35166522 15.85,6.07 L15.85,3.13 L12.9,3.13 C12.6618397,3.08213038 12.4904988,2.87292348 12.4904988,2.63 C12.4904988,2.38707652 12.6618397,2.17786962 12.9,2.13 L16.38,2.13 C16.5155858,2.12803386 16.6459244,2.1823416 16.74,2.28 C16.8298017,2.37371187 16.8768528,2.50038791 16.87,2.63 L16.87,6.07 C16.87,6.35166522 16.6416652,6.58 16.36,6.58 Z" id="Path" fill="#71757B" fill-rule="nonzero"></path>
                    <path d="M12.51,8.7 L7.51,5.8 C7.40284226,5.75048764 7.27821937,5.75665488 7.17647369,5.81650528 C7.07472801,5.87635568 7.0087882,5.98228415 7,6.1 L7,11.9 C7.00587629,12.0234687 7.07468648,12.1352889 7.18225761,12.1961782 C7.28982874,12.2570675 7.42111664,12.2585104 7.53,12.2 L12.53,9.3 C12.6332981,9.23327857 12.6940024,9.11724077 12.6899056,8.99433648 C12.6858088,8.87143218 12.617512,8.75969442 12.51,8.7 L12.51,8.7 Z" id="Path" fill="#71757B"></path>
                </g>
            </g>
        </g>
    </g>
</svg>