<svg width="18" height="19" viewBox="0 0 18 19" fill="none" xmlns="http://www.w3.org/2000/svg">
<path d="M12.93 15.11C11.5987 15.9405 10.0324 16.3134 8.46965 16.1718C6.90687 16.0302 5.43314 15.3819 4.27272 14.3257C3.11229 13.2694 2.3287 11.8629 2.0412 10.3203C1.7537 8.77771 1.97802 7.18341 2.68003 5.78003" stroke="#54595F" stroke-linecap="round" stroke-linejoin="round"/>
<path d="M4.43994 3.54007C5.70598 2.468 7.30339 1.86601 8.96209 1.8359C10.6208 1.80579 12.239 2.3494 13.5431 3.37482C14.8472 4.40024 15.7572 5.84454 16.1193 7.46354C16.4813 9.08253 16.2731 10.7769 15.5299 12.2601" stroke="#54595F" stroke-linecap="round" stroke-linejoin="round"/>
<path d="M16.5 12.7299L15.01 13.1199L14.62 11.6299" stroke="#54595F" stroke-linecap="round" stroke-linejoin="round"/>
<path d="M1.5 5.48989L2.92 4.88989L3.52 6.30989" stroke="#54595F" stroke-linecap="round" stroke-linejoin="round"/>
<path d="M8.91003 4.03003V8.92003" stroke="#545960" stroke-miterlimit="10" stroke-linecap="round"/>
<path d="M11.83 11.6299L8.91003 8.91992" stroke="#545960" stroke-miterlimit="10" stroke-linecap="round"/>
</svg>
