<?xml version="1.0" encoding="UTF-8"?>
<svg width="16px" height="14px" viewBox="0 0 16 14" version="1.1" xmlns="http://www.w3.org/2000/svg" xmlns:xlink="http://www.w3.org/1999/xlink">
    <!-- Generator: sketchtool 63.1 (101010) - https://sketch.com -->
    <title>3F2C9D55-3161-4916-9AEE-EA9DE261505E@1.5x</title>
    <desc>Created with sketchtool.</desc>
    <g id="Page-1" stroke="none" stroke-width="1" fill="none" fill-rule="evenodd">
        <g id="024" transform="translate(-1179.000000, -236.000000)">
            <g id="retain" transform="translate(1178.000000, 234.000000)">
                <rect id="Rectangle" x="0" y="0" width="18" height="18"></rect>
                <path d="M13.4,8.78 L14.7,8.78 C14.5890671,6.22224014 12.7864087,4.05224062 10.2923582,3.47418032 C7.7983077,2.89612002 5.22482895,4.05183727 4,6.3 L3.82,6.63 L3.22,5.63 L3.29,5.51 C4.82611583,2.97282544 7.84938836,1.74994063 10.7174511,2.50566708 C13.5855139,3.26139353 15.6136125,5.81530039 15.7,8.78 L17,8.78 L15.2,11.66 L13.4,8.78 Z" id="Path" fill="#71757B" fill-rule="nonzero"></path>
                <path d="M9,15.7000132 C5.38814241,15.6915543 2.42898539,12.8295636 2.3,9.22 L1,9.22 L2.8,6.34 L4.6,9.22 L3.3,9.22 C3.41093287,11.7777599 5.21359129,13.9477594 7.70764179,14.5258197 C10.2016923,15.10388 12.7751711,13.9481627 14,11.7 L14.18,11.37 L14.78,12.37 L14.71,12.49 C13.5007595,14.4867512 11.3343643,15.7046371 9,15.7000132 Z" id="Path" fill="#71757B" fill-rule="nonzero"></path>
                <path d="M11.34,12.25 C11.0804262,12.25 10.87,12.0395738 10.87,11.78 C10.87,10.7472275 10.0327725,9.91 9,9.91 C7.96722752,9.91 7.13,10.7472275 7.13,11.78 C7.13,12.0395738 6.91957383,12.25 6.66,12.25 C6.40042617,12.25 6.19,12.0395738 6.19,11.78 C6.20115498,10.5461947 7.01038803,9.46182245 8.19,9.1 C7.47291421,8.70716954 7.11315746,7.87836408 7.31590485,7.08626478 C7.51865224,6.29416549 8.23236451,5.74012739 9.05,5.74012739 C9.86763549,5.74012739 10.5813478,6.29416549 10.7840951,7.08626478 C10.9868425,7.87836408 10.6270858,8.70716954 9.91,9.1 C11.089612,9.46182245 11.898845,10.5461947 11.91,11.78 C11.9133082,11.9240855 11.8503261,12.0617233 11.7391292,12.153412 C11.6279323,12.2451007 11.4808152,12.2807025 11.34,12.25 L11.34,12.25 Z M9,6.69 C8.53055796,6.69 8.15,7.07055796 8.15,7.54 C8.15,8.00944204 8.53055796,8.39 9,8.39 C9.46944204,8.39 9.85,8.00944204 9.85,7.54 C9.85,7.07055796 9.46944204,6.69 9,6.69 Z" id="Shape" fill="#71757B" fill-rule="nonzero"></path>
            </g>
        </g>
    </g>
</svg>