<svg width="18" height="19" viewBox="0 0 18 19" fill="none" xmlns="http://www.w3.org/2000/svg">
<path d="M12.9302 15.11C11.5988 15.9405 10.0325 16.3133 8.46977 16.1717C6.907 16.0302 5.43326 15.3819 4.27284 14.3256C3.11241 13.2694 2.32882 11.8629 2.04132 10.3203C1.75382 8.77768 1.97814 7.18338 2.68016 5.78" stroke="#54595F" stroke-linecap="round" stroke-linejoin="round"/>
<path d="M4.43994 3.54001C5.70598 2.46794 7.30339 1.86595 8.96209 1.83584C10.6208 1.80573 12.239 2.34934 13.5431 3.37476C14.8472 4.40018 15.7572 5.84448 16.1193 7.46347C16.4813 9.08247 16.2731 10.7768 15.5299 12.26" stroke="#54595F" stroke-linecap="round" stroke-linejoin="round"/>
<path d="M16.5001 12.73L15.0101 13.12L14.6201 11.63" stroke="#54595F" stroke-linecap="round" stroke-linejoin="round"/>
<path d="M1.5 5.49001L2.92 4.89001L3.52 6.31001" stroke="#54595F" stroke-linecap="round" stroke-linejoin="round"/>
<path d="M6.87988 7.50001L10.0799 5.01001V11.39V11.43V13.01L6.87988 10.49V7.50001Z" stroke="#54595F" stroke-linecap="round" stroke-linejoin="round"/>
<path d="M5.31016 10.49H6.88016V7.48999H5.31016C5.26771 7.4899 5.22569 7.49853 5.18672 7.51535C5.14774 7.53216 5.11263 7.5568 5.08357 7.58774C5.05451 7.61868 5.03211 7.65526 5.01776 7.69521C5.00341 7.73516 4.99742 7.77763 5.00016 7.81999V10.18C5.00016 10.2622 5.03282 10.3411 5.09095 10.3992C5.14909 10.4573 5.22794 10.49 5.31016 10.49V10.49Z" stroke="#54595F" stroke-linecap="round" stroke-linejoin="round"/>
<path d="M11.5498 7.79001C11.9344 7.79001 12.3032 7.94278 12.5751 8.2147C12.847 8.48663 12.9998 8.85544 12.9998 9.24001C12.9998 9.62457 12.847 9.99339 12.5751 10.2653C12.3032 10.5372 11.9344 10.69 11.5498 10.69" stroke="#54595F" stroke-linecap="round" stroke-linejoin="round"/>
</svg>
