<?xml version="1.0" encoding="utf-8"?>
<!-- Generator: Adobe Illustrator 24.3.0, SVG Export Plug-In . SVG Version: 6.00 Build 0)  -->
<svg version="1.1" id="Layer_1" xmlns="http://www.w3.org/2000/svg" xmlns:xlink="http://www.w3.org/1999/xlink" x="0px" y="0px"
	 viewBox="0 0 18 18" style="enable-background:new 0 0 18 18;" xml:space="preserve">
<style type="text/css">
	.st0{fill:none;}
	.st1{fill:#B8BABD;}
</style>
<g id="_x35_9_x5F_employee_x5F_info_x5F_retain_x5F_expand" transform="translate(-1276.000000, -252.000000)">
	<g id="retain" transform="translate(1275.000000, 250.000000)">
		<rect id="Rectangle" x="1" y="2" class="st0" width="18" height="18"/>
		<path id="Path" class="st1" d="M14.4,10.8h1.3c-0.1-2.6-1.9-4.7-4.4-5.3S6.2,6.1,5,8.3L4.8,8.6l-0.6-1l0.1-0.1
			c1.5-2.5,4.6-3.8,7.4-3s4.9,3.3,5,6.3H18l-1.8,2.9L14.4,10.8z"/>
		<path id="Path_1_" class="st1" d="M10,17.7c-3.6,0-6.6-2.9-6.7-6.5H2l1.8-2.9l1.8,2.9H4.3c0.1,2.6,1.9,4.7,4.4,5.3
			s5.1-0.6,6.3-2.8l0.2-0.3l0.6,1l-0.1,0.1C14.5,16.5,12.3,17.7,10,17.7z"/>
		<path id="Shape" class="st1" d="M12.3,14.2c-0.3,0-0.5-0.2-0.5-0.5c0-1-0.8-1.9-1.9-1.9s-1.9,0.8-1.9,1.9c0,0.3-0.2,0.5-0.5,0.5
			c-0.3,0-0.5-0.2-0.5-0.5c0-1.2,0.8-2.3,2-2.7c-0.7-0.4-1.1-1.2-0.9-2c0.2-0.8,0.9-1.3,1.7-1.3s1.5,0.6,1.7,1.3
			c0.2,0.8-0.2,1.6-0.9,2c1.2,0.4,2,1.4,2,2.7c0,0.1-0.1,0.3-0.2,0.4C12.6,14.2,12.5,14.3,12.3,14.2L12.3,14.2z M10,8.7
			c-0.5,0-0.9,0.4-0.9,0.8c0,0.5,0.4,0.9,0.9,0.9s0.9-0.4,0.9-0.9C10.9,9.1,10.5,8.7,10,8.7z"/>
	</g>
</g>
<desc>Created with sketchtool.</desc>
</svg>
