<?xml version="1.0" encoding="UTF-8"?>
<svg width="18px" height="18px" viewBox="0 0 18 18" version="1.1" xmlns="http://www.w3.org/2000/svg" xmlns:xlink="http://www.w3.org/1999/xlink">
    <title>8454DC79-938B-4AE9-9FE7-15A8DE239648</title>
    <g id="Varint_Shift-Management" stroke="none" stroke-width="1" fill="none" fill-rule="evenodd">
        <g id="01_shft_listPage1" transform="translate(-430.000000, -258.000000)">
            <g id="Group" transform="translate(422.000000, 227.000000)">
                <g id="schedule" transform="translate(8.000000, 31.000000)">
                    <rect id="Rectangle" x="0" y="0" width="18" height="18"></rect>
                    <path d="M9,16.5 C6.32322215,16.4945816 3.85223661,15.0629493 2.51619461,12.7434319 C1.18015261,10.4239145 1.18160285,7.5681592 2.52,5.25 C2.59205867,5.12302287 2.71246218,5.03063469 2.85376308,4.99389646 C2.99506398,4.95715822 3.14521955,4.97920105 3.27,5.055 C3.39540938,5.12851077 3.48643655,5.24887722 3.52301562,5.38956594 C3.55959468,5.53025466 3.53872246,5.67971495 3.465,5.805 C2.32075815,7.78378947 2.31921167,10.2227368 3.46094319,12.2029757 C4.60267471,14.1832147 6.71419689,15.4038458 9,15.405 C9.19560292,15.405 9.37634747,15.5093529 9.47414894,15.67875 C9.5719504,15.8481471 9.5719504,16.0568529 9.47414894,16.22625 C9.37634747,16.3956471 9.19560292,16.5 9,16.5 L9,16.5 Z" id="Path" fill="#71757B" fill-rule="nonzero"></path>
                    <path d="M6.285,3.15 C6.01958977,3.15540744 5.78854055,2.96963559 5.73683369,2.70925466 C5.68512684,2.44887372 5.82766217,2.18891487 6.075,2.0925 C6.43926442,1.93734194 6.81549363,1.81193221 7.2,1.7175 C7.34122867,1.68367067 7.49011181,1.70733697 7.61388938,1.78329139 C7.73766695,1.8592458 7.82619718,1.98126498 7.86,2.1225 C7.89615882,2.26280265 7.87441956,2.41175053 7.79966842,2.53586564 C7.72491727,2.65998075 7.60342551,2.74885041 7.4625,2.7825 C7.1339833,2.86275372 6.81283967,2.97063791 6.5025,3.105 C6.43390136,3.13490895 6.35983491,3.15023304 6.285,3.15 L6.285,3.15 Z" id="Path" fill="#71757B" fill-rule="nonzero"></path>
                    <path d="M15.75,11.3325 L15.6075,11.3325 C15.3157853,11.2554679 15.1413715,10.9569518 15.2175,10.665 C15.35298,10.1206662 15.4160244,9.56083206 15.405,9 C15.405,8.8125 15.405,8.6325 15.405,8.4525 C15.3875833,8.25689708 15.4758425,8.06686083 15.6365313,7.95397607 C15.79722,7.8410913 16.0059258,7.82250791 16.1840313,7.90522607 C16.3621367,7.98794423 16.4825833,8.15939708 16.5,8.355 C16.5113935,8.56984906 16.5113935,8.78515094 16.5,9 C16.5007911,9.64800466 16.4175982,10.2933795 16.2525,10.92 C16.1914901,11.1514817 15.9889325,11.3177603 15.75,11.3325 Z M15.345,6.6375 C15.1318167,6.641068 14.9370572,6.51713015 14.85,6.3225 C14.5314808,5.64518987 14.0975047,5.02848696 13.5675,4.5 C13.370642,4.38351838 13.2669441,4.15693205 13.3074671,3.93181228 C13.34799,3.70669251 13.5241925,3.53049003 13.7493123,3.48996706 C13.9744321,3.44944408 14.2010184,3.55314204 14.3175,3.75 C14.9238339,4.36779956 15.4186397,5.08590239 15.78,5.8725 C15.8465711,6.00646496 15.8562437,6.16163095 15.8068253,6.30282637 C15.7574069,6.44402179 15.6530827,6.5592889 15.5175,6.6225 C15.4512349,6.63828689 15.3828679,6.64335111 15.315,6.6375 L15.345,6.6375 Z M12,3.285 C11.9174193,3.28267486 11.8360092,3.26486639 11.76,3.2325 C11.0953933,2.91066774 10.3796,2.70760582 9.645,2.6325 C9.44939709,2.61374356 9.27865899,2.49205898 9.19710109,2.31328367 C9.11554319,2.13450836 9.13555608,1.92580253 9.24960109,1.76578367 C9.3636461,1.6057648 9.55439709,1.51874356 9.75,1.5375 C10.6205157,1.62525002 11.4686119,1.86647499 12.255,2.25 C12.4812822,2.36563425 12.5982562,2.6217685 12.5374658,2.86850607 C12.4766754,3.11524364 12.2541014,3.28772111 12,3.285 L12,3.285 Z" id="Shape" fill="#71757B" fill-rule="nonzero"></path>
                    <path d="M14.0175,14.355 C13.7975578,14.3543073 13.5993808,14.222066 13.5143229,14.0192356 C13.4292649,13.8164051 13.4738399,13.5823646 13.6275,13.425 C13.8588804,13.1916829 14.0720067,12.9409461 14.265,12.675 C14.3775387,12.5142305 14.5672982,12.425712 14.762798,12.4427885 C14.9582978,12.4598651 15.1298369,12.5799425 15.212798,12.7577886 C15.2957592,12.9356347 15.2775387,13.1442305 15.165,13.305 C14.9365232,13.6270249 14.6859181,13.9327631 14.415,14.22 C14.3065767,14.3175335 14.1628961,14.3663307 14.0175,14.355 Z" id="Path" fill="#71757B" fill-rule="nonzero"></path>
                    <path d="M12.87,5.34 C12.6578196,5.14552727 12.3321804,5.14552727 12.12,5.34 L8.97,8.805 L6.4125,6.9225 C6.16397186,6.73403284 5.80971718,6.78272188 5.62125002,7.03125001 C5.43278285,7.27977814 5.48147188,7.63403282 5.73,7.8225 L8.6625,10.0725 C8.90399537,10.2345058 9.22916507,10.1857304 9.4125,9.96 C9.4125,9.96 9.4125,9.96 9.4125,9.96 L12.8475,6.21 C12.9831459,6.10820594 13.064805,5.94997884 13.0691895,5.7804424 C13.0735741,5.61090596 13.0002028,5.44866946 12.87,5.34 Z" id="Path" fill="#71757B" fill-rule="nonzero"></path>
                </g>
            </g>
        </g>
    </g>
</svg>