<svg width="24" height="24" viewBox="0 0 24 24" fill="none" xmlns="http://www.w3.org/2000/svg">
<path d="M20.23 18.34C19.024 20.0666 17.3122 21.3767 15.3304 22.0897C13.3487 22.8026 11.1946 22.8834 9.16505 22.3208C7.13549 21.7582 5.33038 20.58 3.99848 18.9486C2.66658 17.3171 1.87347 15.3127 1.72845 13.2116C1.58344 11.1106 2.09365 9.01621 3.18879 7.21725C4.28392 5.41828 5.91005 4.00326 7.84308 3.16719C9.77611 2.33113 11.9209 2.11518 13.9818 2.54912C16.0427 2.98305 17.9182 4.0455 19.35 5.59004" stroke="#71757B" stroke-width="1.2" stroke-miterlimit="10" stroke-linecap="round"/>
<path d="M19.09 1.69995L19.96 5.89995L15.76 6.76995" stroke="#71757B" stroke-width="1.2" stroke-linecap="round" stroke-linejoin="round"/>
<path d="M15.69 11.8101H7.88V17.0701H15.69V11.8101Z" stroke="#71757B" stroke-width="1.2" stroke-linecap="round" stroke-linejoin="round"/>
<path d="M11.78 7.06995C12.0833 7.06995 12.3837 7.1297 12.664 7.24578C12.9442 7.36187 13.1989 7.53203 13.4134 7.74653C13.6279 7.96103 13.798 8.21569 13.9141 8.49595C14.0302 8.77621 14.09 9.07659 14.09 9.37995V11.6899H9.46997V9.37995C9.46997 8.7673 9.71334 8.17974 10.1466 7.74653C10.5798 7.31332 11.1673 7.06995 11.78 7.06995Z" stroke="#71757B" stroke-width="1.2" stroke-linecap="round" stroke-linejoin="round"/>
</svg>
