<svg width="24" height="24" viewBox="0 0 24 24" fill="none" xmlns="http://www.w3.org/2000/svg">
<path fill-rule="evenodd" clip-rule="evenodd" d="M19.902 19.4307L14.1776 13.7063C15.3093 12.4623 16 10.8103 16 9C16 5.14 12.86 2 9 2C5.14 2 2 5.14 2 9C2 12.86 5.14 16 9 16C10.8103 16 12.4623 15.3093 13.7063 14.1776L19.4307 19.9027C19.496 19.9673 19.5813 20 19.6667 20C19.752 20 19.8373 19.9673 19.902 19.9027C20.0327 19.772 20.0327 19.5613 19.902 19.4307ZM2.66667 9C2.66667 5.508 5.508 2.66667 9 2.66667C12.492 2.66667 15.3333 5.508 15.3333 9C15.3333 12.492 12.492 15.3333 9 15.3333C5.508 15.3333 2.66667 12.492 2.66667 9Z" fill="#54595F"/>
<path d="M14.1776 13.7063L13.8078 13.3698L13.4868 13.7226L13.824 14.0598L14.1776 13.7063ZM19.902 19.4307L20.2556 19.0771L19.902 19.4307ZM13.7063 14.1776L14.0598 13.8241L13.7226 13.4868L13.3698 13.8078L13.7063 14.1776ZM19.4307 19.9027L19.0771 20.2562L19.0789 20.258L19.4307 19.9027ZM13.824 14.0598L19.5484 19.7842L20.2556 19.0771L14.5312 13.3527L13.824 14.0598ZM15.5 9C15.5 10.6807 14.8593 12.214 13.8078 13.3698L14.5474 14.0427C15.7594 12.7106 16.5 10.94 16.5 9H15.5ZM9 2.5C12.5839 2.5 15.5 5.41614 15.5 9H16.5C16.5 4.86386 13.1361 1.5 9 1.5V2.5ZM2.5 9C2.5 5.41614 5.41614 2.5 9 2.5V1.5C4.86386 1.5 1.5 4.86386 1.5 9H2.5ZM9 15.5C5.41614 15.5 2.5 12.5839 2.5 9H1.5C1.5 13.1361 4.86386 16.5 9 16.5V15.5ZM13.3698 13.8078C12.214 14.8593 10.6807 15.5 9 15.5V16.5C10.94 16.5 12.7106 15.7594 14.0427 14.5475L13.3698 13.8078ZM19.7842 19.5491L14.0598 13.8241L13.3527 14.5311L19.0771 20.2562L19.7842 19.5491ZM19.6667 19.5C19.7089 19.5 19.7512 19.5164 19.7824 19.5473L19.0789 20.258C19.2408 20.4182 19.4538 20.5 19.6667 20.5V19.5ZM19.5484 19.5491C19.5814 19.5162 19.6249 19.5 19.6667 19.5V20.5C19.8791 20.5 20.0933 20.4185 20.2556 20.2562L19.5484 19.5491ZM19.5484 19.7842C19.4839 19.7196 19.4839 19.6137 19.5484 19.5491L20.2556 20.2562C20.5815 19.9303 20.5815 19.403 20.2556 19.0771L19.5484 19.7842ZM9 2.16667C5.23186 2.16667 2.16667 5.23186 2.16667 9H3.16667C3.16667 5.78414 5.78414 3.16667 9 3.16667V2.16667ZM15.8333 9C15.8333 5.23186 12.7681 2.16667 9 2.16667V3.16667C12.2159 3.16667 14.8333 5.78414 14.8333 9H15.8333ZM9 15.8333C12.7681 15.8333 15.8333 12.7681 15.8333 9H14.8333C14.8333 12.2159 12.2159 14.8333 9 14.8333V15.8333ZM2.16667 9C2.16667 12.7681 5.23186 15.8333 9 15.8333V14.8333C5.78414 14.8333 3.16667 12.2159 3.16667 9H2.16667Z" fill="#54595F"/>
</svg>
