<svg width="20" height="20" viewBox="0 0 20 20" fill="none" xmlns="http://www.w3.org/2000/svg">
<path d="M10 0.136353C4.54545 0.136353 0.136364 4.54544 0.136364 9.99999C0.136364 15.4545 4.54545 19.8636 10 19.8636C15.4545 19.8636 19.8636 15.4545 19.8636 9.99999C19.8636 4.54544 15.4545 0.136353 10 0.136353ZM14.7727 7.95453L8.93182 13.7727C8.75 13.9545 8.52273 14.0454 8.29545 14.0454C8.06818 14.0454 7.81818 13.9545 7.65909 13.7727L4.77273 10.9091C4.40909 10.5454 4.40909 9.97726 4.77273 9.61362C5.13636 9.24999 5.70455 9.24999 6.06818 9.61362L8.29545 11.8409L13.4773 6.65908C13.8409 6.29544 14.4091 6.29544 14.7727 6.65908C15.1136 7.02271 15.1136 7.61362 14.7727 7.95453Z" fill="#248700"/>
</svg>
