<svg width="24" height="24" viewBox="0 0 24 24" fill="none" xmlns="http://www.w3.org/2000/svg">
<path d="M5.48988 8.14999H6.48988V16.39H5.48988C4.73136 16.39 4.00391 16.0887 3.46756 15.5523C2.9312 15.016 2.62988 14.2885 2.62988 13.53V11C2.63253 10.2432 2.93502 9.51832 3.47108 8.98413C4.00715 8.44994 4.73309 8.14999 5.48988 8.14999V8.14999Z" stroke="#71757B" stroke-linecap="round" stroke-linejoin="round"/>
<path d="M13.7995 19.84L6.51953 16.48V8.15001L13.7995 4.98001V19.84Z" stroke="#71757B" stroke-linecap="round" stroke-linejoin="round"/>
<path d="M16.1396 9.64002L16.7196 8.25001L18.4996 8.49001L19.0696 7.05001L20.7596 7.33001L21.5296 5.89001" stroke="#71757B" stroke-linecap="round" stroke-linejoin="round"/>
<path d="M16.1396 15.3L16.9096 16.65L18.4996 16.36L19.1696 17.8L20.8496 17.42L21.6196 18.96" stroke="#71757B" stroke-linecap="round" stroke-linejoin="round"/>
</svg>
