<svg width="45" height="45" viewBox="0 0 45 45" fill="none" xmlns="http://www.w3.org/2000/svg">
<circle cx="22.5" cy="22.5" r="22.5" fill="#FFF6F8"/>
<path d="M34.14 21.72C34.14 21.72 29.41 27.44 23.57 27.44C17.73 27.44 13 21.72 13 21.72C13 21.72 17.73 16 23.57 16C29.41 16 34.14 21.72 34.14 21.72Z" stroke="#C12335" stroke-linejoin="round"/>
<path d="M23.5699 18.4099C23.2878 18.4149 23.0081 18.4621 22.7399 18.5499C22.8333 18.6856 22.8876 18.8444 22.897 19.0088C22.9063 19.1733 22.8704 19.3372 22.793 19.4826C22.7156 19.628 22.5998 19.7494 22.4582 19.8336C22.3166 19.9178 22.1547 19.9615 21.9899 19.9599C21.8473 19.9581 21.7072 19.9217 21.5818 19.8538C21.4564 19.7858 21.3494 19.6884 21.2699 19.5699C20.8866 20.0689 20.6791 20.6807 20.6799 21.3099C20.6819 21.8811 20.8531 22.4388 21.1718 22.9128C21.4906 23.3867 21.9426 23.7556 22.4709 23.9728C22.9991 24.19 23.5799 24.2458 24.1398 24.1332C24.6998 24.0205 25.2138 23.7445 25.617 23.3399C26.0202 22.9353 26.2944 22.4204 26.4051 21.8601C26.5158 21.2997 26.458 20.7192 26.239 20.1917C26.0199 19.6642 25.6495 19.2134 25.1745 18.8963C24.6994 18.5792 24.1411 18.4099 23.5699 18.4099Z" fill="#C12335"/>
</svg>
