<?xml version="1.0" encoding="UTF-8"?>
<svg width="41px" height="40px" viewBox="0 0 41 40" version="1.1" xmlns="http://www.w3.org/2000/svg" xmlns:xlink="http://www.w3.org/1999/xlink">
    <title>0D6F1D5D-D15A-431C-85F2-BE4ADEDD3E11</title>
    <g id="Global-Search" stroke="none" stroke-width="1" fill="none" fill-rule="evenodd">
        <g id="40" transform="translate(-895.000000, -273.000000)">
            <g id="Suspicious-Activity" transform="translate(407.000000, 187.000000)">
                <g id="Group-4" transform="translate(486.000000, 83.000000)">
                    <g id="shoulder_40" transform="translate(2.000000, 3.000000)">
                        <rect id="Rectangle" x="0.99" y="0" width="40" height="40"></rect>
                        <path d="M18.2,35.48 C17.6165237,35.48 17.0569451,35.248215 16.6443651,34.8356349 C16.231785,34.4230549 16,33.8634763 16,33.28 C15.989371,33.1402017 15.989371,32.9997983 16,32.86 C14.6169216,32.4260471 13.6716394,31.1495122 13.66,29.7 L13.66,24.28 C13.6655042,21.1673968 16.1873968,18.6455042 19.3,18.64 L29.69,18.64 C32.8026032,18.6455042 35.3244958,21.1673968 35.33,24.28 L35.33,29.7 C35.3197522,31.1468141 34.3791242,32.4225157 33,32.86 C33.0096508,32.9731279 33.0096508,33.0868721 33,33.2 C33.0161269,33.7956525 32.7921216,34.3727826 32.3783673,34.8015825 C31.964613,35.2303824 31.3958485,35.4748501 30.8,35.48 L18.2,35.48 Z M18.2,33.02 C18.1005887,33.02 18.02,33.1005887 18.02,33.2 C18.02,33.38 18.1,33.46 18.2,33.46 L30.82,33.46 C30.9194113,33.46 31,33.3794113 31,33.28 C31,33.1 30.92,33.02 30.82,33.02 L18.2,33.02 Z M32,31 C32.7179702,31 33.3,30.4179702 33.3,29.7 L33.3,24.28 C33.3,22.2846279 31.6853644,20.6655121 29.69,20.66 L19.33,20.66 C17.3330092,20.6654938 15.7154938,22.2830092 15.71,24.28 L15.71,29.7 C15.7153515,30.4118579 16.2882046,30.9891517 17,31 L17.05,31 L16,23.87 C15.9564244,23.577804 16.0442794,23.2812935 16.24,23.06 C16.4300027,22.8378622 16.7076882,22.7099808 17,22.71 L32,22.71 C32.2923118,22.7099808 32.5699973,22.8378622 32.76,23.06 C32.9557206,23.2812935 33.0435756,23.577804 33,23.87 L32,31 Z M29.91,31 L30.84,24.73 L18.18,24.73 L19.11,31 L29.91,31 Z" id="Shape" fill="#EB5D5D" fill-rule="nonzero"></path>
                        <path d="M24.51,18.58 C21.1962915,18.58 18.51,15.8937085 18.51,12.58 C18.51,9.2662915 21.1962915,6.58 24.51,6.58 C27.8237085,6.58 30.51,9.2662915 30.51,12.58 C30.51,15.8937085 27.8237085,18.58 24.51,18.58 L24.51,18.58 Z M24.51,8.58 C22.300861,8.58 20.51,10.370861 20.51,12.58 C20.51,14.789139 22.300861,16.58 24.51,16.58 C26.719139,16.58 28.51,14.789139 28.51,12.58 C28.4989932,10.3786755 26.711352,8.59997248 24.51,8.6 L24.51,8.58 Z" id="Shape" fill="#EB5D5D" fill-rule="nonzero"></path>
                        <path d="M13.83,13.48 C11.3557643,13.48 9.35,11.4742357 9.35,9 C9.35,6.52576432 11.3557643,4.52 13.83,4.52 C16.3042357,4.52 18.31,6.52576432 18.31,9 C18.3045006,11.4719542 16.3019542,13.4745006 13.83,13.48 Z M13.83,6.48 C12.4519013,6.48 11.3337343,7.59529276 11.3300798,8.9733866 C11.3264432,10.3514804 12.4386941,11.4726294 13.8167733,11.48 C15.1948524,11.4872998 16.3189752,10.3780546 16.33,9 C16.33,8.33695878 16.0666079,7.70107399 15.597767,7.23223305 C15.128926,6.7633921 14.4930412,6.5 13.83,6.5 L13.83,6.48 Z" id="Shape" fill="#EB5D5D" fill-rule="nonzero"></path>
                        <path d="M19.55,17.1 C19.5744177,17.1550093 19.5944793,17.2118506 19.61,17.27 L8.05,17.27 C8.31665298,16.2980212 9.20211693,15.6257245 10.21,15.63 L17.45,15.63 C17.9246547,15.6285334 18.3872834,15.7792382 18.77,16.06 C18.3273693,15.3337561 18.0286055,14.5291309 17.89,13.69 C17.7434977,13.6801815 17.5965023,13.6801815 17.45,13.69 L10.21,13.69 C7.90101846,13.7007563 6.02726817,15.5611544 6,17.87 C6,18.0291299 6.0632141,18.1817422 6.17573593,18.2942641 C6.28825776,18.4067859 6.44087011,18.47 6.6,18.47 L21.08,18.47 L21.23,18.47 C20.6002452,18.1062503 20.0330178,17.6436899 19.55,17.1 L19.55,17.1 Z" id="Path" fill="#EB5D5D" fill-rule="nonzero"></path>
                    </g>
                </g>
            </g>
        </g>
    </g>
</svg>