<svg width="45" height="45" viewBox="0 0 45 45" fill="none" xmlns="http://www.w3.org/2000/svg">
<circle cx="22.5" cy="22.5" r="22.5" fill="#FFF6F8"/>
<path d="M19.05 18.36H16.71C16.3179 18.36 16 18.6779 16 19.07C16 19.4621 16.3179 19.78 16.71 19.78H19.05C19.4421 19.78 19.76 19.4621 19.76 19.07C19.76 18.6779 19.4421 18.36 19.05 18.36Z" fill="#C12335"/>
<path d="M18.6799 25.05C18.7187 25.8464 19.0525 26.5998 19.6163 27.1636C20.1801 27.7274 20.9336 28.0612 21.7299 28.1C21.7724 28.1 21.8131 28.0832 21.8431 28.0532C21.8731 28.0231 21.8899 27.9825 21.8899 27.94V25.04C21.8899 25.0002 21.8741 24.9621 21.846 24.9339C21.8179 24.9058 21.7797 24.89 21.7399 24.89H18.8399C18.8189 24.89 18.7981 24.8942 18.7787 24.9022C18.7593 24.9102 18.7417 24.922 18.7268 24.9369C18.7119 24.9517 18.7002 24.9694 18.6921 24.9888C18.6841 25.0082 18.6799 25.029 18.6799 25.05Z" fill="#C12335"/>
<path d="M31.38 15C28.9301 13.0653 25.9017 12.0088 22.78 12H21.78C18.5977 12.1005 15.5498 13.3062 13.16 15.41L13 15.55V23.55C13.29 28.8 17.36 31.76 19.77 33.06C20.3913 33.3954 21.0695 33.6124 21.77 33.7H22.28H22.8C23.5342 33.6615 24.254 33.4815 24.92 33.17C26.8301 32.3518 28.4695 31.0093 29.6481 29.2979C30.8268 27.5866 31.4966 25.5763 31.58 23.5V15.15L31.38 15ZM21.78 32.64C21.254 32.5534 20.7467 32.3775 20.28 32.12C17.57 30.66 14.28 27.96 14.04 23.47V15.98C16.2254 14.139 18.9644 13.0828 21.82 12.98L21.78 32.64ZM22.33 28.1C22.2876 28.1 22.2469 28.0831 22.2169 28.0531C22.1869 28.0231 22.17 27.9824 22.17 27.94V25.04C22.17 25.0002 22.1858 24.9621 22.2139 24.9339C22.2421 24.9058 22.2802 24.89 22.32 24.89H25.22C25.2607 24.8925 25.2989 24.9105 25.3267 24.9403C25.3546 24.97 25.3701 25.0092 25.37 25.05C25.3314 25.8447 24.999 26.5968 24.4373 27.1604C23.8756 27.7239 23.1246 28.0588 22.33 28.1ZM26.82 19.67H24.48C24.392 19.6861 24.3016 19.6827 24.2151 19.66C24.1286 19.6373 24.0482 19.5959 23.9795 19.5386C23.9108 19.4814 23.8555 19.4097 23.8176 19.3287C23.7797 19.2478 23.76 19.1594 23.76 19.07C23.76 18.9806 23.7797 18.8922 23.8176 18.8113C23.8555 18.7303 23.9108 18.6586 23.9795 18.6014C24.0482 18.5441 24.1286 18.5027 24.2151 18.48C24.3016 18.4573 24.392 18.4539 24.48 18.47H26.82C26.908 18.4539 26.9984 18.4573 27.0849 18.48C27.1714 18.5027 27.2518 18.5441 27.3205 18.6014C27.3892 18.6586 27.4445 18.7303 27.4824 18.8113C27.5203 18.8922 27.54 18.9806 27.54 19.07C27.54 19.1594 27.5203 19.2478 27.4824 19.3287C27.4445 19.4097 27.3892 19.4814 27.3205 19.5386C27.2518 19.5959 27.1714 19.6373 27.0849 19.66C26.9984 19.6827 26.908 19.6861 26.82 19.67Z" fill="#C12335"/>
</svg>
