<?xml version="1.0" encoding="UTF-8"?>
<svg width="41px" height="40px" viewBox="0 0 41 40" version="1.1" xmlns="http://www.w3.org/2000/svg" xmlns:xlink="http://www.w3.org/1999/xlink">
    <title>9A74CC1A-7F9D-49F0-842B-F116A6A30FB9</title>
    <g id="Global-Search" stroke="none" stroke-width="1" fill="none" fill-rule="evenodd">
        <g id="40" transform="translate(-441.000000, -273.000000)">
            <g id="Suspicious-Activity" transform="translate(407.000000, 187.000000)">
                <g id="Group-5" transform="translate(32.000000, 83.000000)">
                    <g id="spoof_40" transform="translate(2.000000, 3.000000)">
                        <rect id="Rectangle" x="0.99" y="0" width="40" height="40"></rect>
                        <path d="M18.82,32.6001233 C18.0103819,32.6047388 17.2057631,32.4728895 16.44,32.21 C12.0023195,30.7176103 8.49144317,27.2767304 6.91,22.87 L5.13,18 C4.86350149,17.3263889 4.98208605,16.5613272 5.44,16 C7.90186383,13.0706684 11.2098013,10.9748263 14.91,10 C15.3521762,9.88442943 15.8219687,9.94539487 16.22,10.17 C16.6337156,10.3953848 16.9345707,10.7832342 17.05,11.24 C17.2275327,11.9613801 16.9410252,12.7174418 16.33,13.14 L16.33,16.62 C16.332966,18.8579395 16.8208261,21.068662 17.76,23.1 L18.08,23.8 L17.48,24.27 C16.7631533,24.830025 16.3459188,25.6903404 16.35,26.6 L19.19,25.6 L19.62,26.14 C20.2283013,26.8625833 20.8974167,27.5316987 21.62,28.14 C22.2983628,27.9493594 23.0262106,28.1584221 23.5,28.68 L23.6,28.81 C24.1047281,29.5888976 23.9262595,30.6248859 23.19,31.19 C21.9212955,32.1146347 20.3898674,32.6087568 18.82,32.6001233 Z M14.39,12.16 C11.4821264,13.1374663 8.90060393,14.8988536 6.93,17.25 L8.73,22.25 C10.1138659,26.1057228 13.1865989,29.1158222 17.07,30.42 C18.3621621,30.834944 19.7622229,30.7565691 21,30.2 L20.77,30 C19.9757977,29.3483852 19.2396978,28.6290148 18.57,27.85 L16.82,28.49 C16.2954738,28.6814672 15.7117904,28.6186658 15.24,28.32 C14.7866371,28.0384028 14.4907477,27.561281 14.44,27.03 C14.3010974,25.650336 14.7681576,24.2783466 15.72,23.27 C14.8482797,21.1609622 14.3965035,18.9020812 14.39,16.62 L14.39,12.16 Z" id="Shape" fill="#EB5D5D" fill-rule="nonzero"></path>
                        <path d="M12.81,19.76 L10.62,20.56 C10.4256414,20.6395994 10.2068114,20.6340564 10.016732,20.5447191 C9.82665262,20.4553818 9.68274169,20.2904366 9.62,20.09 C9.53339855,19.8975626 9.53430975,19.6770645 9.62249868,19.4853494 C9.71068762,19.2936343 9.87752478,19.1494621 10.08,19.09 L12.28,18.29 C12.4724374,18.2033986 12.6929355,18.2043097 12.8846506,18.2924987 C13.0763657,18.3806876 13.2205379,18.5475248 13.28,18.75 C13.4219835,19.1583577 13.2138421,19.6056403 12.81,19.76 L12.81,19.76 Z" id="Path" fill="#EB5D5D" fill-rule="nonzero"></path>
                        <path d="M27.41,29.0000789 C25.9100794,29.0009889 24.454146,28.4933511 23.28,27.56 C19.8133368,24.7800971 17.8002504,20.573593 17.8099647,16.13 L17.8099647,10.83 C17.8316545,10.4124473 18.0656293,10.0350686 18.43,9.83 C24.003061,6.62897892 30.856939,6.62897892 36.43,9.83 L36.56,9.91 C36.8661925,10.0764777 37.0520247,10.401684 37.04,10.75 L37.04,16.12 C37.0556272,20.5649181 35.0413823,24.7738432 31.57,27.55 C30.3903328,28.4955232 28.9218116,29.0073876 27.41,29.0000789 Z M19.8,16.08 C19.8003784,19.9306879 21.5383276,23.5756045 24.53,26 C25.3441692,26.6517138 26.3571287,27.0046613 27.4,27 C27.5997455,27.0142699 27.8002545,27.0142699 28,27 C27.5023239,26.5758604 27.2169473,25.9538858 27.22,25.3 L27.22,23.75 C27.2198666,23.6433333 27.3034666,23.5553333 27.41,23.55 C29.3667976,23.5528919 30.9836543,22.0239078 31.09,20.07 L27.43,20.07 C27.3234666,20.0646667 27.2398666,19.9766667 27.24,19.87 L27.24,9.35 C24.6403401,9.38164248 22.0872244,10.0439427 19.8,11.28 L19.8,16.08 Z M30,14.13 C29.6796748,14.13 29.42,14.3896748 29.42,14.71 C29.42,15.0303252 29.6796748,15.29 30,15.29 L32.33,15.29 C32.6503252,15.29 32.91,15.0303252 32.91,14.71 C32.9127378,14.5553514 32.8525104,14.4062301 32.7431402,14.2968598 C32.6337699,14.1874896 32.4846486,14.1272622 32.33,14.13 L30,14.13 Z" id="Shape" fill="#EB5D5D" fill-rule="nonzero"></path>
                        <path d="M27.45,23.76 L27.45,19.87 L23.5699871,19.87 C23.5673434,20.9007715 23.9749548,21.8902357 24.7028841,22.6200411 C25.4308134,23.3498465 26.4192251,23.76 27.45,23.76 L27.45,23.76 Z" id="Path" fill="#EB5D5D" fill-rule="nonzero"></path>
                        <path d="M25.41,14.69 C25.4127935,14.4831928 25.3311808,14.2841795 25.1839923,14.138878 C25.0368037,13.9935764 24.8367539,13.9145383 24.63,13.92 L22.3,13.92 C22.0932461,13.9145383 21.8931963,13.9935764 21.7460077,14.138878 C21.5988192,14.2841795 21.5172065,14.4831928 21.52,14.69 C21.5172848,14.8976893 21.5985909,15.0976669 21.745462,15.244538 C21.8923331,15.3914091 22.0923107,15.4727152 22.3,15.47 L24.63,15.47 C25.0585292,15.4646091 25.4046091,15.1185292 25.41,14.69 Z" id="Path" fill="#EB5D5D" fill-rule="nonzero"></path>
                    </g>
                </g>
            </g>
        </g>
    </g>
</svg>