<svg width="32" height="32" viewBox="0 0 32 32" fill="none" xmlns="http://www.w3.org/2000/svg">
<circle cx="16" cy="16" r="16" fill="#F0EBFB"/>
<path d="M15.98 17.76C17.0515 17.76 17.92 16.8914 17.92 15.82C17.92 14.7486 17.0515 13.88 15.98 13.88C14.9086 13.88 14.04 14.7486 14.04 15.82C14.04 16.8914 14.9086 17.76 15.98 17.76Z" stroke="#4B286D" stroke-linecap="round" stroke-linejoin="round"/>
<path d="M11.5802 22.56C11.5518 21.9639 11.6447 21.3682 11.8532 20.809C12.0618 20.2498 12.3817 19.7388 12.7935 19.3069C13.2053 18.8749 13.7006 18.5311 14.2492 18.2961C14.7978 18.0612 15.3884 17.9401 15.9852 17.9401C16.582 17.9401 17.1726 18.0612 17.7212 18.2961C18.2698 18.5311 18.7651 18.8749 19.1769 19.3069C19.5887 19.7388 19.9086 20.2498 20.1172 20.809C20.3257 21.3682 20.4186 21.9639 20.3902 22.56" stroke="#4B286D" stroke-linecap="round" stroke-linejoin="round"/>
<path d="M21.9699 19.2C22.826 19.2 23.5199 18.506 23.5199 17.65C23.5199 16.7939 22.826 16.1 21.9699 16.1C21.1139 16.1 20.4199 16.7939 20.4199 17.65C20.4199 18.506 21.1139 19.2 21.9699 19.2Z" stroke="#4B286D" stroke-linecap="round" stroke-linejoin="round"/>
<path d="M19.7598 20.29C20.3921 19.7758 21.1848 19.4997 21.9998 19.51C22.9239 19.5178 23.8081 19.8877 24.4625 20.5403C25.1169 21.1928 25.4893 22.076 25.4998 23" stroke="#4B286D" stroke-linecap="round" stroke-linejoin="round"/>
<path d="M10.03 19.2C10.886 19.2 11.58 18.506 11.58 17.65C11.58 16.7939 10.886 16.1 10.03 16.1C9.17394 16.1 8.47998 16.7939 8.47998 17.65C8.47998 18.506 9.17394 19.2 10.03 19.2Z" stroke="#4B286D" stroke-linecap="round" stroke-linejoin="round"/>
<path d="M6.5 23C6.49973 22.3366 6.6864 21.6865 7.03863 21.1243C7.39085 20.5621 7.89437 20.1106 8.49145 19.8214C9.08854 19.5323 9.75501 19.4173 10.4145 19.4895C11.0739 19.5618 11.6997 19.8184 12.22 20.23" stroke="#4B286D" stroke-linecap="round" stroke-linejoin="round"/>
<path d="M9.79004 13.15C9.79004 10.83 12.67 9 16.21 9C19.75 9 22.63 10.87 22.63 13.19" stroke="#4B286D" stroke-linecap="round" stroke-linejoin="round"/>
</svg>
