<?xml version="1.0" encoding="UTF-8"?>
<svg width="212px" height="22px" viewBox="0 0 212 22" version="1.1" xmlns="http://www.w3.org/2000/svg" xmlns:xlink="http://www.w3.org/1999/xlink">
    <!-- Generator: sketchtool 63.1 (101010) - https://sketch.com -->
    <title>1F89F80C-F741-45F1-BF3B-41BF97AE308A@1.5x</title>
    <desc>Created with sketchtool.</desc>
    <g id="Page-1" stroke="none" stroke-width="1" fill="none" fill-rule="evenodd">
        <g id="001_Login_FD" transform="translate(-614.000000, -259.000000)">
            <g id="TI_logo" transform="translate(614.000000, 259.000000)">
                <g transform="translate(0.000000, 0.000000)">
                    <path d="M209.541357,15.2157549 L209.541357,15.9579869 C208.381619,16.3291028 207.917724,16.0043764 207.592998,14.659081 C207.453829,14.7982495 207.314661,14.9374179 207.221882,15.0765864 C206.062144,16.3754923 204.160175,16.7466083 202.629322,15.9115974 C201.8407,15.4477024 201.423195,14.566302 201.515974,13.6849015 C201.562363,12.7571116 201.933479,11.9684902 202.861269,11.7365427 C203.881838,11.4582057 204.856018,11.2726477 205.876586,11.0870897 C206.062144,11.0407002 206.201313,11.0407002 206.386871,11.0407002 C206.943545,10.9479212 207.453829,10.8551422 207.546608,10.1592998 C207.685777,9.46345733 207.40744,8.76761488 206.804376,8.39649891 C205.876586,7.83982495 204.716849,7.88621444 203.789059,8.4892779 C203.325164,8.81400438 203.093217,9.46345733 202.76849,9.97374179 L202.861269,10.0665208 L201.979869,10.0665208 C201.8407,9.04595186 202.397374,8.07177243 203.325164,7.65426696 C204.531291,7.0512035 205.922976,7.004814 207.175492,7.51509847 C208.056893,7.79343545 208.613567,8.62844639 208.613567,9.55623632 C208.659956,11.1334792 208.613567,12.7107221 208.659956,14.3343545 C208.613567,15.0765864 208.752735,15.2157549 209.541357,15.2157549 Z M207.500219,11.5045952 C207.129103,11.5973742 206.757987,11.6901532 206.386871,11.7829322 C206.015755,11.8757112 205.55186,11.8757112 205.180744,11.9684902 C204.577681,12.0612691 204.021007,12.2468271 203.417943,12.4787746 C202.675711,12.8035011 202.350985,13.6849015 202.675711,14.4271335 C202.76849,14.659081 202.907659,14.8446389 203.093217,14.9838074 C203.603501,15.4013129 204.299344,15.5868709 204.948796,15.4940919 C206.989934,15.1229759 207.964114,13.5921225 207.500219,11.5045952 Z" id="Shape" fill="#4B286D" fill-rule="nonzero"></path>
                    <path d="M150.580306,13.3137856 C150.487527,14.9374179 149.003063,16.2363239 147.240263,16.3291028 C144.68884,16.4218818 143.157987,14.9838074 142.972429,12.3859956 C142.83326,11.1798687 143.111597,9.9273523 143.714661,8.86039387 C144.549672,7.56148796 145.755799,7.097593 147.240263,7.19037199 C148.539168,7.23676149 149.698906,8.02538293 150.20919,9.23150985 C150.626696,10.1129103 150.812254,11.0407002 150.719475,12.0148796 L144.132166,12.0148796 C143.900219,13.4065646 144.642451,14.7982495 145.941357,15.3549234 C147.286652,15.8652079 148.771116,15.2621444 149.374179,13.9632385 C149.698906,13.1746171 149.698906,13.1746171 150.580306,13.3137856 Z M149.652516,11.1334792 C149.698906,10.0201313 149.142232,8.99956236 148.214442,8.39649891 C147.379431,7.83982495 146.266083,7.88621444 145.431072,8.4892779 C144.503282,9.09234136 144.132166,10.0201313 144.039387,11.1334792 L149.652516,11.1334792 L149.652516,11.1334792 Z" id="Shape" fill="#4B286D" fill-rule="nonzero"></path>
                    <path d="M166.770241,9.97374179 C166.723851,8.67483589 167.651641,7.51509847 168.950547,7.32954048 C169.739168,7.19037199 170.574179,7.19037199 171.362801,7.28315098 C172.708096,7.46870897 173.403939,8.35010941 173.450328,9.74179431 C173.450328,11.2726477 173.450328,12.7571116 173.450328,14.287965 C173.450328,15.0765864 173.635886,15.2157549 174.378118,15.2157549 L174.378118,15.9579869 C173.218381,16.3291028 172.754486,16.0043764 172.38337,14.566302 C172.33698,14.7054705 172.244201,14.8446389 172.151422,14.9838074 C171.130853,16.4682713 169.228884,16.5610503 167.976368,16.1435449 C166.955799,15.8188184 166.306346,14.8910284 166.352735,13.82407 C166.259956,12.8035011 166.909409,11.8293217 167.929978,11.5973742 C168.857768,11.3654267 169.785558,11.1798687 170.759737,11.0407002 C170.945295,10.9943107 171.084464,10.9943107 171.270022,10.9943107 C172.105033,10.8551422 172.38337,10.6231947 172.429759,9.97374179 C172.522538,9.27789934 172.197812,8.58205689 171.548359,8.25733042 C170.713348,7.83982495 169.692779,7.88621444 168.857768,8.30371991 C168.440263,8.5356674 168.115536,8.95317287 167.929978,9.37067834 C167.558862,10.1129103 167.651641,10.1129103 166.770241,9.97374179 Z M172.429759,11.5045952 C171.826696,11.5973742 171.316411,11.7365427 170.759737,11.8293217 C170.017505,11.9684902 169.275274,12.1076586 168.533042,12.2932166 C167.837199,12.4323851 167.373304,13.0354486 167.373304,13.731291 C167.419694,14.473523 167.883589,15.0765864 168.579431,15.3085339 C170.110284,15.8188184 171.780306,14.9838074 172.290591,13.452954 C172.33698,13.2673961 172.38337,13.0818381 172.429759,12.8962801 C172.429759,12.4323851 172.429759,11.9684902 172.429759,11.5045952 Z" id="Shape" fill="#4B286D" fill-rule="nonzero"></path>
                    <path d="M191.263895,11.7365427 C191.310284,12.9426696 190.892779,14.1487965 190.104158,15.0765864 C188.619694,16.7002188 186.068271,16.7929978 184.444639,15.3085339 C184.027133,14.8910284 183.656018,14.4271335 183.42407,13.8704595 C182.728228,12.0612691 182.821007,10.2520788 184.027133,8.62844639 C185.094092,7.23676149 186.578556,6.91203501 188.202188,7.32954048 C189.825821,7.74704595 190.753611,8.90678337 191.078337,10.4840263 C191.171116,10.8551422 191.217505,11.3190372 191.263895,11.7365427 Z M184.073523,11.7365427 L183.934354,11.7829322 C184.119912,12.5251641 184.35186,13.2673961 184.676586,13.9632385 C185.372429,15.3549234 187.08884,15.8652079 188.480525,15.1693654 C188.99081,14.9374179 189.361926,14.5199125 189.640263,14.0560175 C190.521663,12.6179431 190.521663,10.8551422 189.640263,9.41706783 C188.851641,8.07177243 187.13523,7.60787746 185.743545,8.39649891 C185.326039,8.62844639 184.954923,8.99956236 184.722976,9.41706783 C184.259081,10.1129103 184.027133,10.9479212 184.073523,11.7365427 L184.073523,11.7365427 Z" id="Shape" fill="#4B286D" fill-rule="nonzero"></path>
                    <path d="M130.818381,8.67483589 C131.328665,7.93260394 132.117287,7.42231947 132.998687,7.23676149 C133.787309,7.0512035 134.622319,7.14398249 135.410941,7.46870897 C136.245952,7.79343545 136.802626,8.62844639 136.802626,9.50984683 C136.895405,11.5509847 136.895405,13.638512 136.895405,15.6796499 C136.895405,15.8188184 136.709847,16.0043764 136.524289,16.0507659 C136.292341,16.0971554 136.060394,16.0971554 135.874836,16.0507659 C135.874836,15.8188184 135.828446,15.6332604 135.828446,15.4477024 L135.828446,10.4376368 C135.782057,9.13873085 135.271772,8.35010941 134.204814,8.11816193 C133.045077,7.79343545 131.79256,8.35010941 131.235886,9.41706783 C130.957549,10.0201313 130.818381,10.6231947 130.818381,11.2726477 C130.771991,12.6643326 130.818381,14.0560175 130.818381,15.4013129 L130.818381,16.0043764 L129.797812,16.0043764 L129.797812,7.42231947 L130.771991,7.42231947 L130.771991,8.67483589 L130.818381,8.67483589 Z" id="Path" fill="#4B286D" fill-rule="nonzero"></path>
                    <path d="M193.815317,16.0507659 L192.887527,16.0507659 L192.887527,7.42231947 L193.815317,7.42231947 L193.815317,8.76761488 C193.954486,8.62844639 194.047265,8.62844639 194.093654,8.5356674 C195.160613,6.86564551 197.387309,6.91203501 198.593435,7.51509847 C199.382057,7.93260394 199.845952,8.72122538 199.845952,9.60262582 C199.892341,11.6901532 199.892341,13.7776805 199.892341,15.8652079 C199.892341,15.9115974 199.845952,15.9115974 199.845952,16.0043764 L198.918162,16.0043764 C198.918162,15.8188184 198.871772,15.6332604 198.871772,15.4013129 C198.871772,13.916849 198.871772,12.4323851 198.871772,10.9943107 L198.871772,10.6231947 C198.871772,8.99956236 198.222319,8.11816193 196.969803,8.02538293 C195.531729,7.83982495 194.186433,8.81400438 193.954486,10.2984683 C193.954486,10.2984683 193.954486,10.2984683 193.954486,10.2984683 C193.861707,10.8551422 193.861707,11.4118162 193.861707,12.0148796 C193.861707,13.3137856 193.861707,14.6126915 193.861707,15.9115974 C193.861707,15.9115974 193.861707,16.0043764 193.815317,16.0507659 Z" id="Path" fill="#4B286D" fill-rule="nonzero"></path>
                    <path d="M158.744858,16.0971554 C158.51291,16.1435449 158.280963,16.1435449 158.049015,16.0971554 C157.909847,16.0507659 157.724289,15.9115974 157.724289,15.7724289 C157.724289,12.9890591 157.724289,10.2520788 157.724289,7.42231947 L158.698468,7.42231947 C158.698468,7.79343545 158.744858,8.21094092 158.744858,8.67483589 C158.791247,8.67483589 158.884026,8.62844639 158.884026,8.62844639 C159.765427,7.097593 161.713786,6.91203501 163.15186,7.46870897 C164.03326,7.79343545 164.589934,8.58205689 164.589934,9.50984683 C164.682713,11.6901532 164.589934,13.8704595 164.589934,16.0971554 L163.662144,16.0971554 C163.662144,15.9115974 163.615755,15.7260394 163.615755,15.5404814 C163.615755,14.009628 163.615755,12.4787746 163.615755,10.9479212 C163.615755,10.6695842 163.615755,10.3912473 163.569365,10.1129103 C163.476586,9.18512035 163.10547,8.4428884 162.084902,8.21094092 C161.064333,7.88621444 159.950985,8.25733042 159.301532,9.09234136 C158.837637,9.69540481 158.5593,10.4376368 158.605689,11.2262582 C158.605689,12.6643326 158.605689,14.0560175 158.605689,15.4940919 L158.605689,16.0971554 L158.744858,16.0971554 Z" id="Path" fill="#4B286D" fill-rule="nonzero"></path>
                    <path d="M177.161488,8.25733042 C177.161488,10.4376368 177.161488,12.4323851 177.161488,14.473523 C177.161488,15.0301969 177.532604,15.3085339 178.182057,15.3085339 C178.414004,15.3085339 178.645952,15.2621444 178.877899,15.2621444 L178.877899,16.1435449 C178.414004,16.1899344 177.950109,16.1899344 177.486214,16.1435449 C176.512035,16.0507659 176.09453,15.6332604 176.09453,14.659081 C176.04814,12.8035011 176.09453,10.9479212 176.09453,9.09234136 C176.09453,8.30371991 176.09453,8.30371991 175.305908,8.30371991 L174.610066,8.30371991 L174.610066,7.42231947 L176.09453,7.42231947 L176.09453,4.87089716 L177.161488,4.87089716 L177.161488,7.37592998 L178.924289,7.37592998 L178.924289,8.25733042 L177.161488,8.25733042 Z" id="Path" fill="#4B286D" fill-rule="nonzero"></path>
                    <path d="M142.230197,15.3085339 L142.230197,16.1899344 C141.627133,16.1899344 141.02407,16.1435449 140.421007,16.0971554 C139.910722,16.0507659 139.539606,15.6796499 139.493217,15.1693654 C139.446827,14.8446389 139.400438,14.473523 139.400438,14.1487965 C139.400438,12.4323851 139.400438,10.7159737 139.400438,8.99956236 L139.400438,8.30371991 L137.962363,8.30371991 L137.962363,7.42231947 L139.400438,7.42231947 L139.400438,4.87089716 L140.467396,4.87089716 L140.467396,7.37592998 L142.230197,7.37592998 L142.230197,8.25733042 L140.467396,8.25733042 L140.467396,14.1487965 C140.467396,15.1229759 140.745733,15.3549234 141.766302,15.3085339 C141.90547,15.2621444 142.044639,15.3085339 142.230197,15.3085339 Z" id="Path" fill="#4B286D" fill-rule="nonzero"></path>
                    <path d="M126.364989,16.0043764 L126.364989,4.12866521 L127.524726,4.12866521 L127.524726,15.1229759 C127.524726,16.1899344 127.524726,16.1899344 126.364989,16.0043764 Z" id="Path" fill="#4B286D" fill-rule="nonzero"></path>
                    <path d="M210.840263,16.0043764 L210.840263,4.12866521 L211.860832,4.12866521 L211.860832,15.2621444 C211.860832,16.1899344 211.860832,16.1899344 210.840263,16.0043764 Z" id="Path" fill="#4B286D" fill-rule="nonzero"></path>
                    <path d="M153.270897,16.0507659 L152.296718,16.0507659 L152.296718,7.42231947 L153.224508,7.42231947 L153.224508,9.18512035 C153.873961,7.97899344 155.172867,7.23676149 156.564551,7.28315098 C156.564551,7.51509847 156.564551,7.70065646 156.564551,7.88621444 C156.564551,8.21094092 156.471772,8.30371991 156.147046,8.35010941 C154.291466,8.58205689 153.317287,9.74179431 153.270897,11.6437637 C153.270897,12.8962801 153.270897,14.1487965 153.270897,15.4013129 L153.270897,16.0507659 Z" id="Path" fill="#4B286D" fill-rule="nonzero"></path>
                    <polygon id="Path" fill="#4B286D" fill-rule="nonzero" points="180.362363 7.42231947 181.290153 7.42231947 181.290153 16.0507659 180.362363 16.0507659"></polygon>
                    <path d="M181.290153,5.7059081 L180.733479,5.7059081 C180.6407,5.7059081 180.501532,5.6595186 180.408753,5.6595186 L180.408753,4.08227571 L181.336543,4.08227571 L181.290153,5.7059081 Z" id="Path" fill="#4B286D" fill-rule="nonzero"></path>
                    <path d="M116.252079,6.49452954 C115.602626,6.54091904 115.045952,6.03063457 114.999562,5.38118162 C114.999562,5.33479212 114.999562,5.33479212 114.999562,5.28840263 C114.953173,4.63894967 115.463457,4.08227571 116.11291,4.03588621 C116.1593,4.03588621 116.205689,4.03588621 116.205689,4.03588621 C116.901532,4.03588621 117.458206,4.54617068 117.458206,5.24201313 C117.458206,5.24201313 117.458206,5.28840263 117.458206,5.28840263 C117.504595,5.98424508 116.947921,6.49452954 116.252079,6.49452954 C116.252079,6.49452954 116.252079,6.49452954 116.252079,6.49452954 Z M116.252079,4.2214442 C115.695405,4.2214442 115.23151,4.63894967 115.18512,5.19562363 C115.18512,5.19562363 115.18512,5.24201313 115.18512,5.24201313 C115.18512,5.84507659 115.649015,6.35536105 116.252079,6.35536105 C116.808753,6.30897155 117.272648,5.84507659 117.272648,5.24201313 C117.319037,4.68533917 116.855142,4.2214442 116.252079,4.2214442 C116.252079,4.2214442 116.252079,4.2214442 116.252079,4.2214442 L116.252079,4.2214442 Z" id="Shape" fill="#4B286D" fill-rule="nonzero"></path>
                    <path d="M26.2100656,6.07702407 C24.1225383,8.11816193 21.8958425,9.97374179 19.2052516,11.2726477 C19.2516411,11.1334792 19.3444201,10.9943107 19.4371991,10.9015317 C20.5041575,9.64901532 21.571116,8.35010941 22.6844639,7.097593 C22.9628009,6.86564551 23.2411379,6.68008753 23.6122538,6.58730853 C24.4472648,6.35536105 25.2822757,6.16980306 26.1172867,5.98424508 L26.2100656,6.07702407 Z" id="Path" fill="#FFFFFF" fill-rule="nonzero"></path>
                    <path d="M29.1326039,1.71641138 C29.0862144,2.64420131 28.6223195,3.52560175 27.8800875,4.08227571 C27.1842451,4.54617068 26.1636761,4.59256018 25.2822757,4.68533917 C26.4420131,3.57199125 27.64814,2.45864333 29.1326039,1.71641138 Z" id="Path" fill="#FFFFFF" fill-rule="nonzero"></path>
                    <path d="M115.880963,4.63894967 L116.436518,4.63894967 C116.547629,4.63894967 116.603185,4.63894967 116.658741,4.68533917 C116.769852,4.73172867 116.825407,4.82450766 116.825407,4.96367615 C116.825407,5.01006565 116.825407,5.10284464 116.769852,5.14923414 C116.714296,5.19562363 116.714296,5.24201313 116.658741,5.24201313 C116.714296,5.24201313 116.714296,5.28840263 116.769852,5.28840263 C116.769852,5.33479212 116.825407,5.38118162 116.825407,5.42757112 L116.825407,5.56673961 C116.825407,5.6131291 116.825407,5.6595186 116.825407,5.6595186 C116.825407,5.7059081 116.825407,5.7059081 116.880963,5.7059081 L116.880963,5.75229759 L116.658741,5.75229759 C116.658741,5.75229759 116.658741,5.75229759 116.658741,5.7059081 C116.658741,5.7059081 116.658741,5.6595186 116.658741,5.6131291 L116.658741,5.42757112 C116.658741,5.33479212 116.603185,5.28840263 116.547629,5.28840263 C116.492074,5.28840263 116.492074,5.28840263 116.380963,5.28840263 L116.047629,5.28840263 L116.047629,5.75229759 L115.880963,5.75229759 L115.880963,4.63894967 Z M116.380963,5.14923414 C116.436518,5.14923414 116.492074,5.14923414 116.547629,5.10284464 C116.603185,5.05645514 116.603185,5.01006565 116.603185,4.96367615 C116.603185,4.87089716 116.547629,4.82450766 116.492074,4.82450766 C116.436518,4.82450766 116.436518,4.82450766 116.380963,4.82450766 L115.992074,4.82450766 L115.992074,5.19562363 L116.380963,5.19562363 L116.380963,5.14923414 Z" id="Shape" fill="#4B286D" fill-rule="nonzero"></path>
                    <line x1="3.71115974" y1="11.3654267" x2="45.2761488" y2="1.02056893" id="Path"></line>
                    <polygon id="Path" fill="#4B2368" fill-rule="nonzero" points="67.7750547 6.44814004 67.7750547 4.12866521 59.5177243 4.12866521 59.5177243 16.0507659 67.7750547 16.0507659 67.7750547 13.5921225 62.8577681 13.5921225 62.8577681 10.9943107 66.9864333 10.9943107 66.9864333 8.67483589 62.8577681 8.67483589 62.8577681 6.44814004"></polygon>
                    <polygon id="Path" fill="#4B2368" fill-rule="nonzero" points="82.6660832 13.6849015 77.4704595 13.6849015 77.4704595 4.12866521 74.0840263 4.12866521 74.0840263 16.0507659 82.6660832 16.0507659"></polygon>
                    <path d="M110.407002,8.58205689 C108.133917,8.07177243 107.345295,8.02538293 107.345295,7.097593 C107.345295,6.16980306 108.458643,5.98424508 109.154486,5.98424508 C110.407002,5.98424508 111.613129,6.30897155 112.726477,6.86564551 L113.654267,4.68533917 C112.216193,3.98949672 110.63895,3.61838074 109.061707,3.66477024 C105.907221,3.66477024 103.773304,4.96367615 103.726915,7.42231947 C103.634136,9.69540481 105.489716,10.5304158 107.159737,10.9015317 C108.829759,11.2726477 110.453392,11.5509847 110.499781,12.5251641 C110.546171,13.4065646 109.71116,13.82407 108.180306,13.82407 C106.788621,13.7776805 105.396937,13.4065646 104.098031,12.8035011 L103.309409,15.1693654 C104.793873,15.8188184 106.417505,16.1899344 108.041138,16.1899344 C110.267834,16.1899344 111.937856,15.8188184 113.143982,14.7054705 C113.886214,14.0560175 114.25733,13.0818381 114.25733,12.1076586 C114.164551,10.2056893 113.004814,9.18512035 110.407002,8.58205689 L110.407002,8.58205689 Z" id="Path" fill="#4B2368" fill-rule="nonzero"></path>
                    <polygon id="Path" fill="#4B2368" fill-rule="nonzero" points="54.5076586 6.40175055 54.5076586 4.08227571 44.0700219 4.08227571 44.0700219 6.40175055 47.5956236 6.40175055 47.5956236 16.0043764 50.9820569 16.0043764 50.9820569 6.40175055"></polygon>
                    <path d="M94.4026258,4.12866521 L94.4026258,11.6901532 C94.4026258,12.0148796 94.4026258,12.3396061 94.3562363,12.6643326 C94.2634573,13.4065646 93.5212254,13.82407 92.454267,13.82407 C91.619256,13.82407 91.0161926,13.5921225 90.7378556,13.1282276 C90.5522976,12.7107221 90.5059081,12.2932166 90.5522976,11.8757112 L90.5522976,4.12866521 L87.0266958,4.12866521 L87.0266958,12.3396061 C87.0266958,13.4993435 87.1658643,14.009628 87.6761488,14.659081 C88.5111597,15.7260394 90.1811816,16.2827133 92.454267,16.2827133 L92.5934354,16.2827133 C95.6551422,16.2827133 97.2323851,15.0765864 97.6498906,13.9632385 C97.8818381,13.4065646 97.8818381,13.1746171 97.8818381,12.1076586 L97.8818381,4.12866521 L94.4026258,4.12866521 Z" id="Path" fill="#4B2368" fill-rule="nonzero"></path>
                    <path d="M45.4617068,0.788621444 L25.7925602,4.73172867 L25.7925602,6.12341357 L25.8389497,6.12341357 C38.8280088,2.96892779 45.4617068,1.06695842 45.5544858,1.02056893 C45.6008753,1.02056893 45.6472648,0.974179431 45.6472648,0.881400438 C45.6008753,0.835010941 45.5544858,0.788621444 45.4617068,0.788621444 L45.4617068,0.788621444 Z" id="Path" fill="#4B2368" fill-rule="nonzero"></path>
                    <path d="M28.947046,1.90196937 C29.2717724,1.71641138 29.3181619,1.80919037 29.2717724,2.04113786 C29.1326039,2.41225383 28.4367615,4.54617068 23.5194748,8.58205689 C22.2205689,9.60262582 20.8752735,10.5304158 19.4371991,11.3190372 C22.4525164,7.097593 26.9059081,3.20087527 28.947046,1.90196937 Z M29.4573304,0.41750547 C28.483151,0.463894967 26.7203501,1.90196937 25.7461707,2.73698031 C21.8958425,6.07702407 19.0196937,9.18512035 16.8857768,12.3859956 C11.9221007,15.0301969 6.77286652,17.2105033 1.4380744,19.0196937 L1.29890591,19.0660832 L0.231947484,21.9422319 L0.835010941,21.7102845 C5.84507659,19.7619256 10.7623632,17.5352298 15.5404814,15.0765864 C15.2621444,15.7724289 15.0765864,16.5146608 15.0765864,17.3032823 C15.0765864,17.7671772 15.1693654,18.2310722 15.3085339,18.6949672 C15.6332604,19.5763676 16.3291028,20.2258206 17.2105033,20.550547 C18.5557987,21.107221 20.4577681,21.107221 22.5452954,20.4577681 C27.9728665,18.7877462 34.3746171,13.7776805 35.766302,12.7571116 L35.8126915,12.7107221 C35.859081,12.6643326 35.859081,12.6179431 35.859081,12.5715536 C35.8126915,12.5251641 35.766302,12.5251641 35.7199125,12.5715536 L35.7199125,12.5715536 L35.6271335,12.6179431 C34.1426696,13.4993435 26.8131291,17.8599562 22.0814004,19.1124726 C19.6691466,19.7619256 17.8135667,19.3908096 17.1177243,18.4166302 C16.8857768,18.0455142 16.7466083,17.6280088 16.7466083,17.1641138 C16.7466083,16.1899344 17.2105033,14.9838074 18.0455142,13.638512 C18.8341357,13.1746171 19.5763676,12.7571116 20.2722101,12.3396061 C25.0503282,9.69540481 30.3387309,4.63894967 30.6170678,1.57724289 L30.6170678,1.53085339 C30.6170678,1.25251641 30.4778993,0.974179431 30.2923414,0.788621444 C30.0603939,0.556673961 29.7820569,0.41750547 29.4573304,0.41750547 L29.4573304,0.41750547 Z" id="Shape" fill="#7DC242" fill-rule="nonzero"></path>
                    <polygon id="Path" fill="#4B2368" fill-rule="nonzero" points="25.6997812 4.73172867 5.01006565 9.18512035 4.1750547 11.3654267 25.7925602 6.07702407 25.7925602 6.07702407 25.7925602 4.73172867"></polygon>
                </g>
            </g>
        </g>
    </g>
</svg>