<?xml version="1.0" encoding="UTF-8"?>
<svg width="24px" height="24px" viewBox="0 0 24 24" version="1.1" xmlns="http://www.w3.org/2000/svg" xmlns:xlink="http://www.w3.org/1999/xlink">
    <title>D3EFDBF2-FA57-4187-B095-5AB48975A820</title>
    <g id="Phase-4_Manager" stroke="none" stroke-width="1" fill="none" fill-rule="evenodd">
        <g id="35_Notification_option2" transform="translate(-1209.000000, -241.000000)">
            <g id="Group-35" transform="translate(949.000000, 62.000000)">
                <g id="complete_read" transform="translate(260.000000, 179.000000)">
                    <rect id="Rectangle" x="0" y="0" width="24" height="24"></rect>
                    <path d="M12,22 C6.4771525,22 2,17.5228475 2,12 C2,6.4771525 6.4771525,2 12,2 C17.5228475,2 22,6.4771525 22,12 C22,17.5228475 17.5228475,22 12,22 Z" id="Path" fill="#248700" fill-rule="nonzero"></path>
                    <path d="M10.08,15.58 C9.80781238,15.5789612 9.54780884,15.4670153 9.36,15.27 L6.54,12.27 C6.44534367,12.1761167 6.39210084,12.0483188 6.39210084,11.915 C6.39210084,11.7816812 6.44534367,11.6538833 6.54,11.56 L6.54,11.56 C6.73781368,11.3682167 7.05218632,11.3682167 7.25,11.56 L10.07,14.56 L16.73,8.33 C16.8238833,8.23534367 16.9516812,8.18210084 17.085,8.18210084 C17.2183188,8.18210084 17.3461167,8.23534367 17.44,8.33 L17.44,8.33 C17.6293889,8.52101288 17.6293889,8.82898712 17.44,9.02 L17.44,9.02 L10.76,15.25 C10.5852344,15.4447251 10.3411102,15.5631971 10.08,15.58 Z" id="Path" fill="#FFFFFF" fill-rule="nonzero"></path>
                </g>
            </g>
        </g>
    </g>
</svg>