<?xml version="1.0" encoding="UTF-8"?>
<svg width="24px" height="24px" viewBox="0 0 24 24" version="1.1" xmlns="http://www.w3.org/2000/svg" xmlns:xlink="http://www.w3.org/1999/xlink">
    <title>C427504D-96CF-475D-8860-3DA265330D12</title>
    <g id="Phase-4_Manager" stroke="none" stroke-width="1" fill="none" fill-rule="evenodd">
        <g id="100_nnotification" transform="translate(-1209.000000, -176.000000)">
            <g id="Group-35" transform="translate(949.000000, 62.000000)">
                <g id="success" transform="translate(260.000000, 114.000000)">
                    <rect id="Rectangle" x="0" y="0" width="24" height="24"></rect>
                    <path d="M12,22.07 C6.4771525,22.07 2,17.5928475 2,12.07 C2,6.5471525 6.4771525,2.07 12,2.07 C17.5228475,2.07 22,6.5471525 22,12.07 C22,14.7221649 20.9464316,17.265704 19.0710678,19.1410678 C17.195704,21.0164316 14.6521649,22.07 12,22.07 L12,22.07 Z M12,3.18 C7.09018857,3.18 3.11,7.16018857 3.11,12.07 C3.11,16.9798114 7.09018857,20.96 12,20.96 C16.9098114,20.96 20.89,16.9798114 20.89,12.07 C20.89,9.71222541 19.9533777,7.45101912 18.2861793,5.78382072 C16.6189809,4.11662231 14.3577746,3.18 12,3.18 Z" id="Shape" fill="#248700" fill-rule="nonzero"></path>
                    <path d="M10.08,15.65 C9.80964523,15.6404876 9.55270491,15.5298605 9.36,15.34 L6.54,12.34 C6.44534367,12.2461167 6.39210084,12.1183188 6.39210084,11.985 C6.39210084,11.8516812 6.44534367,11.7238833 6.54,11.63 L6.54,11.63 C6.6338833,11.5353437 6.76168123,11.4821008 6.895,11.4821008 C7.02831877,11.4821008 7.1561167,11.5353437 7.25,11.63 L10.07,14.63 L16.73,8.4 C16.8238833,8.30534367 16.9516812,8.25210084 17.085,8.25210084 C17.2183188,8.25210084 17.3461167,8.30534367 17.44,8.4 L17.44,8.4 C17.6293889,8.59101288 17.6293889,8.89898712 17.44,9.09 L17.44,9.09 L10.76,15.32 C10.5852344,15.5147251 10.3411102,15.6331971 10.08,15.65 L10.08,15.65 Z" id="Path" fill="#248700" fill-rule="nonzero"></path>
                </g>
            </g>
        </g>
    </g>
</svg>