<?xml version="1.0" encoding="UTF-8"?>
<svg width="24px" height="24px" viewBox="0 0 24 24" version="1.1" xmlns="http://www.w3.org/2000/svg" xmlns:xlink="http://www.w3.org/1999/xlink">
    <title>EEC63B2F-27B4-44E5-8C9A-3661E38E2D20</title>
    <g id="Phase-4_Manager" stroke="none" stroke-width="1" fill="none" fill-rule="evenodd">
        <g id="35_Notification_option2" transform="translate(-1021.000000, -310.000000)">
            <g id="Group-35" transform="translate(949.000000, 62.000000)">
                <g id="time-copy" transform="translate(72.000000, 248.000000)">
                    <rect id="Rectangle" x="0" y="0" width="24" height="24"></rect>
                    <path d="M12,22 C6.4771525,22 2,17.5228475 2,12 C2,6.4771525 6.4771525,2 12,2 C17.5228475,2 22,6.4771525 22,12 C22,17.5228475 17.5228475,22 12,22 Z M12,3.5 C7.30557963,3.5 3.5,7.30557963 3.5,12 C3.5,16.6944204 7.30557963,20.5 12,20.5 C16.6944204,20.5 20.5,16.6944204 20.5,12 C20.4944896,7.30786402 16.692136,3.50551044 12,3.5 Z" id="Shape" fill="#71757B" fill-rule="nonzero"></path>
                    <path d="M8.82,13.43 C8.50850635,13.4203928 8.24211664,13.2031827 8.17,12.9 C8.12049894,12.7199705 8.1495665,12.5273979 8.25,12.37 C8.34513324,12.2186893 8.49601425,12.1109172 8.67,12.07 L11.3,11.47 L11.3,6.03 C11.3,5.65444637 11.6044464,5.35 11.98,5.35 C12.3555536,5.35 12.66,5.65444637 12.66,6.03 L12.66,12.03 C12.6641133,12.3527256 12.4439609,12.6351852 12.13,12.71 L9,13.43 L8.82,13.43 Z" id="Path" fill="#71757B" fill-rule="nonzero"></path>
                </g>
            </g>
        </g>
    </g>
</svg>