<?xml version="1.0" encoding="UTF-8"?>
<svg width="21px" height="18px" viewBox="0 0 21 18" version="1.1" xmlns="http://www.w3.org/2000/svg" xmlns:xlink="http://www.w3.org/1999/xlink">
    <!-- Generator: sketchtool 63.1 (101010) - https://sketch.com -->
    <title>B9E12DE9-6AF2-4000-BF62-DB9B182DAD51</title>
    <desc>Created with sketchtool.</desc>
    <g id="Page-1" stroke="none" stroke-width="1" fill="none" fill-rule="evenodd">
        <g id="01" transform="translate(-469.000000, -185.000000)">
            <g id="Daily-overview" transform="translate(113.000000, 158.000000)">
                <g id="Daily-Overview">
                    <g id="trend_24" transform="translate(354.000000, 24.000000)">
                        <rect id="Rectangle" x="0" y="0" width="24" height="24"></rect>
                        <path d="M20.33,3.11 C19.4115921,3.11549955 18.6699835,3.86157564 18.67,4.78 C18.6670831,5.14054615 18.7830645,5.49200514 19,5.78 L15.76,10.4 C15.6192686,10.3644556 15.4750859,10.344337 15.33,10.34 C14.629413,10.3485047 14.0076651,10.7909023 13.77,11.45 L10.23,11.45 C9.96585836,10.6806773 9.18317572,10.2160755 8.38131228,10.3526158 C7.57944884,10.489156 6.99463988,11.1866123 7,12 C6.99708306,12.3605462 7.11306453,12.7120051 7.33,13 L4.09,17.62 C3.95363789,17.5797959 3.81216478,17.5595854 3.67,17.56 C2.99274508,17.5559566 2.38011107,17.9613494 2.11906555,18.5862861 C1.85802002,19.2112227 2.00026136,19.9319385 2.47916144,20.4108386 C2.95806152,20.8897386 3.67877728,21.03198 4.30371392,20.7709345 C4.92865056,20.5098889 5.33404342,19.8972549 5.33,19.22 C5.33291694,18.8594538 5.21693547,18.5079949 5,18.22 L8.23,13.6 C8.37319113,13.640228 8.52126597,13.66042 8.67,13.66 C9.37426295,13.6556571 10.0010625,13.2125059 10.24,12.55 L13.76,12.55 C14.0350294,13.3090343 14.8136576,13.762645 15.6095965,13.6275319 C16.4055353,13.4924189 16.9908562,12.8072736 17,12 C17.0029169,11.6394538 16.8869355,11.2879949 16.67,11 L19.9,6.39 C20.0402642,6.42682967 20.1850274,6.4436626 20.33,6.44 C20.9556502,6.48852329 21.5556918,6.1822131 21.8833717,5.64703232 C22.2110517,5.11185155 22.2110517,4.43814845 21.8833717,3.90296768 C21.5556918,3.3677869 20.9556502,3.06147671 20.33,3.11 Z" id="Path" fill="#4B286D" fill-rule="nonzero"></path>
                    </g>
                </g>
            </g>
        </g>
    </g>
</svg>