<?xml version="1.0" encoding="UTF-8"?>
<svg width="16px" height="16px" viewBox="0 0 16 16" version="1.1" xmlns="http://www.w3.org/2000/svg" xmlns:xlink="http://www.w3.org/1999/xlink">
    <!-- Generator: sketchtool 63.1 (101010) - https://sketch.com -->
    <title>4AA3B8E4-9919-4C94-8AB9-1F54468A16A9@1.5x</title>
    <desc>Created with sketchtool.</desc>
    <g id="Page-1" stroke="none" stroke-width="1" fill="none" fill-rule="evenodd">
        <g id="001_Login_FD" transform="translate(-848.000000, -390.000000)">
            <g id="Login-block" transform="translate(523.000000, 219.000000)">
                <g id="user_login" transform="translate(324.000000, 170.000000)">
                    <rect id="Rectangle" x="0" y="0" width="18" height="18"></rect>
                    <path d="M1.5,16.57 L1.43,16.06 C1.43502739,14.2846968 2.15612414,12.586514 3.43,11.35 C4.2587956,10.5131141 5.2935626,9.90949999 6.43,9.6 C4.822136,8.477647 4.12855403,6.44172763 4.71682905,4.57121021 C5.30510407,2.7006928 7.0391576,1.42826128 9,1.42826128 C10.9608424,1.42826128 12.6948959,2.7006928 13.283171,4.57121021 C13.871446,6.44172763 13.177864,8.477647 11.57,9.6 C12.7064374,9.90949999 13.7412044,10.5131141 14.57,11.35 C15.841972,12.5878181 16.5627121,14.285161 16.57,16.06 L16.57,16.57 L1.5,16.57 Z M15.5,15.57 C15.2333599,12.6681374 12.8139446,10.438819 9.9,10.41 L8.1,10.41 C5.18150669,10.4224745 2.74743827,12.6446968 2.47,15.55 L15.5,15.57 Z M9,2.45 C7.08357192,2.45 5.53,4.00357192 5.53,5.92 C5.53,7.83642808 7.08357192,9.39 9,9.39 C10.9164281,9.39 12.47,7.83642808 12.47,5.92 C12.4645074,4.00585163 10.9141484,2.45549257 9,2.45 Z" id="Shape" fill="#71757B" fill-rule="nonzero"></path>
                </g>
            </g>
        </g>
    </g>
</svg>