<svg id="Layer_1" data-name="Layer 1" xmlns="http://www.w3.org/2000/svg" viewBox="0 0 18 18"><defs><style>.cls-1{fill:none;}.cls-2{fill:#54595f;}</style></defs><rect class="cls-1" width="18" height="18"/><path class="cls-2" d="M10.26,10.55a4.67,4.67,0,1,0-2.52,0C4.55,11,2,13.23,1.48,16.06a.45.45,0,0,0,.37.53.46.46,0,0,0,.53-.38C2.85,13.46,5.7,11.38,9,11.38s6.15,2.08,6.62,4.84a.46.46,0,0,0,.45.38h.08a.45.45,0,0,0,.37-.53C16,13.23,13.45,11,10.26,10.55ZM5.17,6.07A3.83,3.83,0,1,1,9,9.9,3.83,3.83,0,0,1,5.17,6.07Z"/></svg>