<svg width="10" height="6" viewBox="0 0 10 6" fill="none" xmlns="http://www.w3.org/2000/svg">
<path d="M5.00002 5.25996C4.88762 5.25951 4.77647 5.23623 4.67334 5.19153C4.5702 5.14684 4.47721 5.08166 4.40002 4.99996L1.00002 1.64996C0.888629 1.53857 0.82605 1.38749 0.82605 1.22996C0.82605 1.07243 0.888629 0.921347 1.00002 0.809956C1.11141 0.698565 1.26249 0.635986 1.42002 0.635986C1.57755 0.635986 1.72863 0.698565 1.84002 0.809956L5.00002 3.92996L8.12002 0.809956C8.23141 0.698565 8.38249 0.635986 8.54002 0.635986C8.69755 0.635986 8.84863 0.698565 8.96002 0.809956C9.07141 0.921347 9.13399 1.07243 9.13399 1.22996C9.13399 1.38749 9.07141 1.53857 8.96002 1.64996L5.60002 4.99996C5.52283 5.08166 5.42984 5.14684 5.3267 5.19153C5.22357 5.23623 5.11242 5.25951 5.00002 5.25996Z" fill="#54595F"/>
</svg>
