<svg id="Layer_1" data-name="Layer 1" xmlns="http://www.w3.org/2000/svg" viewBox="0 0 18 18"><defs><style>.cls-1{fill:none;}.cls-2{fill:#54595f;}</style></defs><rect class="cls-1" width="18" height="18"/><path class="cls-2" d="M9,13.42c-4.28,0-7.61-4.51-7.75-4.71a.56.56,0,0,1,0-.62C1.39,7.9,4.72,3.39,9,3.39s7.71,4.66,7.75,4.7a.54.54,0,0,1,0,.63S13.34,13.42,9,13.42Zm0-9c-3.15,0-5.89,3-6.66,4,.77.9,3.51,3.93,6.66,3.93s5.89-3,6.65-4C14.89,7.49,12.15,4.45,9,4.45Z"/><path class="cls-2" d="M9,11.61A3.21,3.21,0,1,1,12.21,8.4,3.21,3.21,0,0,1,9,11.61ZM9,6.28A2.12,2.12,0,1,0,11.12,8.4,2.12,2.12,0,0,0,9,6.28Z"/></svg>