<?xml version="1.0" encoding="UTF-8"?>
<svg width="17px" height="16px" viewBox="0 0 17 16" version="1.1" xmlns="http://www.w3.org/2000/svg" xmlns:xlink="http://www.w3.org/1999/xlink">
    <!-- Generator: sketchtool 63.1 (101010) - https://sketch.com -->
    <title>347BF378-06BD-4A75-A190-E1402A4EC304@1.5x</title>
    <desc>Created with sketchtool.</desc>
    <g id="Page-1" stroke="none" stroke-width="1" fill="none" fill-rule="evenodd">
        <g id="68_retained_img_empDetail" transform="translate(-1274.000000, -251.000000)">
            <g id="Group-6" transform="translate(113.000000, 232.000000)">
                <g id="view_retainedImages" transform="translate(1161.000000, 18.000000)">
                    <rect id="Rectangle" x="0" y="0" width="18" height="18"></rect>
                    <rect id="Rectangle" x="0" y="0" width="18" height="18"></rect>
                    <path d="M12.58,9.5 C12.0633347,9.18487602 11.5089511,8.93624338 10.93,8.76 C11.4442729,8.42077285 11.8750463,7.96948644 12.19,7.44 C12.7519257,6.51066521 12.9211714,5.39600046 12.6604238,4.34175462 C12.3996761,3.28750877 11.7303461,2.38024978 10.8,1.82 C9.37921826,0.960744709 7.58046515,1.04324071 6.24429824,2.02893761 C4.90813133,3.01463451 4.29838745,4.70889859 4.7,6.32 C4.94947794,7.32461027 5.5714775,8.19683953 6.44,8.76 C5.7271092,8.99152148 5.05295166,9.32860025 4.44,9.76 C2.16492716,11.1255374 0.798047975,13.6073013 0.86,16.26 C0.86510012,16.5356734 1.08448163,16.7594425 1.36,16.77 C1.63614237,16.77 1.86,16.5461424 1.86,16.27 C1.86550739,12.5057016 4.9157016,9.45550739 8.68,9.45 C9.59160853,9.45059218 10.4934491,9.63776664 11.33,10 C11.7102666,9.75378526 12.1348313,9.58395938 12.58,9.5 Z M8.68,8.5 C6.95948286,8.5 5.56372391,7.10713724 5.56006395,5.38662397 C5.55641836,3.66611071 6.94625061,2.26736928 8.66675209,2.25999939 C10.3872536,2.25268752 11.788971,3.63951821 11.8,5.36 C11.8,6.18655882 11.4709721,6.97911874 10.8855694,7.56264519 C10.3001667,8.14617164 9.50655455,8.47265775 8.68,8.47 L8.68,8.5 Z" id="Shape" fill="#71757B"></path>
                    <path d="M11.8,16.84 C9.08,16.84 6.95,13.97 6.86,13.84 C6.78,13.7333333 6.78,13.5866667 6.86,13.48 C6.95,13.36 9.08,10.48 11.8,10.48 C14.52,10.48 16.65,13.36 16.74,13.48 C16.82,13.5866667 16.82,13.7333333 16.74,13.84 C16.67,14 14.53,16.84 11.8,16.84 Z M11.8,11.09 C9.8,11.09 8.02,13.09 7.51,13.69 C8.02,14.32 9.78,16.26 11.8,16.26 C13.82,16.26 15.63,14.32 16.12,13.69 C15.63,13.07 13.85,11.11 11.8,11.11 L11.8,11.09 Z" id="Shape" fill="#71757B" fill-rule="nonzero"></path>
                    <path d="M11.8,15.64 C10.6954305,15.64 9.8,14.7445695 9.8,13.64 C9.8,12.5354305 10.6954305,11.64 11.8,11.64 C12.9045695,11.64 13.8,12.5354305 13.8,13.64 C13.8,14.7445695 12.9045695,15.64 11.8,15.64 Z M11.8,12.32 C11.051525,12.325524 10.4481998,12.9348155 10.4500369,13.6833087 C10.4518825,14.4318018 11.0581982,15.0381175 11.8066913,15.0399631 C12.5551845,15.0418002 13.164476,14.438475 13.17,13.69 C13.1726877,13.3258361 13.029212,12.9758075 12.7717023,12.7182977 C12.5141925,12.460788 12.1641639,12.3173123 11.8,12.32 Z" id="Shape" fill="#71757B" fill-rule="nonzero"></path>
                </g>
            </g>
        </g>
    </g>
</svg>