<svg width="64" height="11" viewBox="0 0 64 11" fill="none" xmlns="http://www.w3.org/2000/svg">
<path d="M0.944 0.00399935V0.816H4.416V10H5.368V0.816H8.854V0.00399935H0.944ZM9.6053 0.00399935V10H10.4873V5.786C10.4966 5.43133 10.5526 5.10467 10.6553 4.806C10.7673 4.498 10.9166 4.23667 11.1033 4.022C11.2993 3.798 11.5326 3.62533 11.8033 3.504C12.0833 3.37333 12.4006 3.308 12.7553 3.308C13.11 3.308 13.404 3.364 13.6373 3.476C13.88 3.588 14.0713 3.742 14.2113 3.938C14.3513 4.134 14.4493 4.36733 14.5053 4.638C14.5613 4.89933 14.5893 5.184 14.5893 5.492V10H15.4713V5.352C15.4713 4.92267 15.4293 4.53533 15.3453 4.19C15.2613 3.84467 15.1166 3.55533 14.9113 3.322C14.706 3.07933 14.4306 2.89267 14.0853 2.762C13.7493 2.63133 13.3293 2.566 12.8253 2.566C12.312 2.566 11.8406 2.70133 11.4113 2.972C10.982 3.23333 10.6833 3.58333 10.5153 4.022H10.4873V0.00399935H9.6053ZM17.1528 0.00399935V1.418H18.0348V0.00399935H17.1528ZM17.1528 2.776V10H18.0348V2.776H17.1528ZM24.0488 4.89H24.9308C24.9121 4.498 24.8328 4.15733 24.6928 3.868C24.5528 3.57867 24.3615 3.336 24.1188 3.14C23.8855 2.944 23.6101 2.79933 23.2928 2.706C22.9848 2.61267 22.6488 2.566 22.2848 2.566C21.9675 2.566 21.6455 2.60333 21.3188 2.678C21.0015 2.75267 20.7121 2.86933 20.4508 3.028C20.1895 3.18667 19.9748 3.39667 19.8068 3.658C19.6481 3.91933 19.5688 4.232 19.5688 4.596C19.5688 4.904 19.6201 5.16533 19.7228 5.38C19.8255 5.58533 19.9655 5.76267 20.1428 5.912C20.3295 6.052 20.5441 6.17333 20.7868 6.276C21.0295 6.36933 21.2955 6.45333 21.5848 6.528L22.7188 6.78C22.9148 6.82667 23.1061 6.88267 23.2928 6.948C23.4888 7.01333 23.6615 7.09733 23.8108 7.2C23.9601 7.29333 24.0768 7.41467 24.1608 7.564C24.2541 7.704 24.3008 7.88133 24.3008 8.096C24.3008 8.348 24.2355 8.56267 24.1048 8.74C23.9835 8.908 23.8248 9.048 23.6288 9.16C23.4328 9.272 23.2181 9.35133 22.9848 9.398C22.7608 9.44467 22.5415 9.468 22.3268 9.468C21.7388 9.468 21.2441 9.31867 20.8428 9.02C20.4508 8.712 20.2361 8.25933 20.1988 7.662H19.3168C19.3915 8.54867 19.6901 9.19267 20.2128 9.594C20.7448 9.99533 21.4355 10.196 22.2848 10.196C22.6208 10.196 22.9615 10.1587 23.3068 10.084C23.6521 10.0093 23.9601 9.888 24.2308 9.72C24.5108 9.54267 24.7395 9.31867 24.9168 9.048C25.0941 8.768 25.1828 8.432 25.1828 8.04C25.1828 7.72267 25.1221 7.44733 25.0008 7.214C24.8795 6.98067 24.7208 6.78467 24.5248 6.626C24.3381 6.46733 24.1188 6.34133 23.8668 6.248C23.6241 6.14533 23.3768 6.07533 23.1248 6.038L21.9488 5.772C21.7995 5.73467 21.6361 5.688 21.4588 5.632C21.2815 5.56667 21.1181 5.48733 20.9688 5.394C20.8195 5.30067 20.6935 5.18867 20.5908 5.058C20.4975 4.918 20.4508 4.75 20.4508 4.554C20.4508 4.32067 20.5021 4.12467 20.6048 3.966C20.7075 3.80733 20.8428 3.68133 21.0108 3.588C21.1788 3.48533 21.3608 3.41533 21.5568 3.378C21.7621 3.33133 21.9628 3.308 22.1588 3.308C22.4108 3.308 22.6488 3.34067 22.8728 3.406C23.0968 3.462 23.2928 3.55533 23.4608 3.686C23.6381 3.81667 23.7781 3.98467 23.8808 4.19C23.9835 4.386 24.0395 4.61933 24.0488 4.89ZM29.5195 0.00399935L32.2915 10H33.3275L35.8475 1.054H35.8755L38.4095 10H39.4175L42.1755 0.00399935H41.2235L38.9415 8.754H38.9135L36.4635 0.00399935H35.2735L32.8375 8.754H32.8095L30.5415 0.00399935H29.5195ZM48.0086 5.884H43.3326C43.3699 5.55733 43.4446 5.24 43.5566 4.932C43.6779 4.61467 43.8366 4.33933 44.0326 4.106C44.2286 3.86333 44.4666 3.672 44.7466 3.532C45.0266 3.38267 45.3486 3.308 45.7126 3.308C46.0673 3.308 46.3846 3.38267 46.6646 3.532C46.9446 3.672 47.1826 3.86333 47.3786 4.106C47.5746 4.33933 47.7239 4.61 47.8266 4.918C47.9386 5.226 47.9993 5.548 48.0086 5.884ZM43.3326 6.626H48.8906C48.9093 6.122 48.8626 5.62733 48.7506 5.142C48.6386 4.64733 48.4519 4.21333 48.1906 3.84C47.9386 3.45733 47.6073 3.14933 47.1966 2.916C46.7859 2.68267 46.2913 2.566 45.7126 2.566C45.1433 2.566 44.6486 2.678 44.2286 2.902C43.8179 3.11667 43.4819 3.406 43.2206 3.77C42.9593 4.12467 42.7633 4.53067 42.6326 4.988C42.5113 5.44533 42.4506 5.912 42.4506 6.388C42.4506 6.90133 42.5113 7.39133 42.6326 7.858C42.7633 8.31533 42.9593 8.72133 43.2206 9.076C43.4819 9.42133 43.8179 9.69667 44.2286 9.902C44.6486 10.098 45.1433 10.196 45.7126 10.196C46.6273 10.196 47.3319 9.972 47.8266 9.524C48.3306 9.076 48.6759 8.44133 48.8626 7.62H47.9806C47.8406 8.18 47.5886 8.628 47.2246 8.964C46.8606 9.3 46.3566 9.468 45.7126 9.468C45.2926 9.468 44.9333 9.37933 44.6346 9.202C44.3359 9.02467 44.0886 8.80067 43.8926 8.53C43.6966 8.25933 43.5519 7.956 43.4586 7.62C43.3746 7.27467 43.3326 6.94333 43.3326 6.626ZM55.2684 5.884H50.5924C50.6297 5.55733 50.7044 5.24 50.8164 4.932C50.9377 4.61467 51.0964 4.33933 51.2924 4.106C51.4884 3.86333 51.7264 3.672 52.0064 3.532C52.2864 3.38267 52.6084 3.308 52.9724 3.308C53.327 3.308 53.6444 3.38267 53.9244 3.532C54.2044 3.672 54.4424 3.86333 54.6384 4.106C54.8344 4.33933 54.9837 4.61 55.0864 4.918C55.1984 5.226 55.259 5.548 55.2684 5.884ZM50.5924 6.626H56.1504C56.169 6.122 56.1224 5.62733 56.0104 5.142C55.8984 4.64733 55.7117 4.21333 55.4504 3.84C55.1984 3.45733 54.867 3.14933 54.4564 2.916C54.0457 2.68267 53.551 2.566 52.9724 2.566C52.403 2.566 51.9084 2.678 51.4884 2.902C51.0777 3.11667 50.7417 3.406 50.4804 3.77C50.219 4.12467 50.023 4.53067 49.8924 4.988C49.771 5.44533 49.7104 5.912 49.7104 6.388C49.7104 6.90133 49.771 7.39133 49.8924 7.858C50.023 8.31533 50.219 8.72133 50.4804 9.076C50.7417 9.42133 51.0777 9.69667 51.4884 9.902C51.9084 10.098 52.403 10.196 52.9724 10.196C53.887 10.196 54.5917 9.972 55.0864 9.524C55.5904 9.076 55.9357 8.44133 56.1224 7.62H55.2404C55.1004 8.18 54.8484 8.628 54.4844 8.964C54.1204 9.3 53.6164 9.468 52.9724 9.468C52.5524 9.468 52.193 9.37933 51.8944 9.202C51.5957 9.02467 51.3484 8.80067 51.1524 8.53C50.9564 8.25933 50.8117 7.956 50.7184 7.62C50.6344 7.27467 50.5924 6.94333 50.5924 6.626ZM57.3341 0.00399935V10H58.2161V7.256L59.6441 6.066L62.5001 10H63.6061L60.3161 5.45L63.3961 2.776H62.2201L58.2161 6.276V0.00399935H57.3341Z" fill="#2A2C2E"/>
</svg>
